<svg width="336" height="352" viewBox="0 0 336 352" fill="none" xmlns="http://www.w3.org/2000/svg">
<g filter="url(#filter0_d_878_8550)">
<path d="M168.507 167.039L22.97 83.5145L167.543 0.148844L168.507 167.039Z" fill="white"/>
<path d="M168.507 167.039L167.543 0.14129L311.274 84.358L168.507 167.039Z" fill="white"/>
<path d="M168.507 167.039L23.8113 251.632L22.97 83.5144L168.507 167.039Z" fill="white"/>
<path d="M168.507 167.039L311.274 252.024L168.507 334.111L168.507 167.039Z" fill="white"/>
<path d="M168.507 167.039L311.274 84.3703L311.274 252.024L168.507 167.039Z" fill="white"/>
<path d="M168.507 167.039L168.507 334.111L23.8113 251.64L168.507 167.039Z" fill="white"/>
<path d="M168.507 167.039L311.274 252.024L168.507 334.111L168.507 167.039Z" fill="white"/>
<path d="M169.011 168.148L39.8608 94.0694L168.155 20.132L169.011 168.148Z" fill="#394C71"/>
<path d="M169.01 168.148L168.154 20.1253L295.702 94.8175L169.01 168.148Z" fill="#4E6081"/>
<path d="M169.01 168.148L40.6074 243.173L39.8608 94.0693L169.01 168.148Z" fill="#394C71"/>
<path d="M169.01 168.148L295.701 243.521L169.01 316.325L169.01 168.148Z" fill="#25385C"/>
<path d="M169.01 168.148L295.702 94.8284L295.702 243.521L169.01 168.148Z" fill="#4E6081"/>
<path d="M169.01 168.148L169.01 316.325L40.6073 243.181L169.01 168.148Z" fill="#25385C"/>
<path d="M107.394 169.441L107.593 197.892L77.7148 183.653L107.394 169.441Z" fill="#78CCBA" stroke="#F0F0F0" stroke-width="0.5"/>
<path d="M137.266 183.831L108.231 197.794L108.035 169.608L137.266 183.831Z" fill="#40B79E" stroke="#F0F0F0" stroke-width="0.5"/>
<path d="M77.5637 184.297L107.094 198.308L77.7344 212.497L77.5637 184.297Z" fill="#AADFD4" stroke="#F0F0F0" stroke-width="0.5"/>
<path d="M108.281 226.922L108.281 198.891L137.125 213.149L108.281 226.922Z" fill="#40B79E" stroke="#F0F0F0" stroke-width="0.5"/>
<path d="M137.499 212.6L108.776 198.31L137.499 184.409L137.499 212.6Z" fill="#78CCBA" stroke="#F0F0F0" stroke-width="0.5"/>
<path d="M78.4486 213.049L107.409 198.988L107.409 226.757L78.4486 213.049Z" fill="#008066" stroke="#F0F0F0" stroke-width="0.5"/>
<path d="M107.394 140.597L107.593 169.048L77.7148 154.809L107.394 140.597Z" fill="#E8AFAC" stroke="#F0F0F0" stroke-width="0.5"/>
<path d="M137.266 154.987L108.231 168.95L108.035 140.764L137.266 154.987Z" fill="#C34833" stroke="#F0F0F0" stroke-width="0.5"/>
<path d="M77.5637 155.453L107.094 169.464L77.7344 183.653L77.5637 155.453Z" fill="#F1CCCB" stroke="#F0F0F0" stroke-width="0.5"/>
<path d="M108.281 198.078L108.281 170.047L137.125 184.305L108.281 198.078Z" fill="#D36D63" stroke="#F0F0F0" stroke-width="0.5"/>
<path d="M137.499 183.756L108.776 169.466L137.499 155.565L137.499 183.756Z" fill="#DF908B" stroke="#F0F0F0" stroke-width="0.5"/>
<path d="M78.4486 184.205L107.409 170.144L107.409 197.913L78.4486 184.205Z" fill="#AC3619" stroke="#F0F0F0" stroke-width="0.5"/>
<path d="M107.394 82.9086L107.593 111.36L77.7148 97.1206L107.394 82.9086Z" fill="#CFE8E6" stroke="#F0F0F0" stroke-width="0.5"/>
<path d="M137.266 97.2985L108.231 111.262L108.035 83.0755L137.266 97.2985Z" fill="#C7E4E2" stroke="#F0F0F0" stroke-width="0.5"/>
<path d="M77.5637 97.7653L107.094 111.776L77.7344 125.965L77.5637 97.7653Z" fill="#E7F3F2" stroke="#F0F0F0" stroke-width="0.5"/>
<path d="M108.281 140.39L108.281 112.359L137.125 126.617L108.281 140.39Z" fill="#B7DCDA" stroke="#F0F0F0" stroke-width="0.5"/>
<path d="M137.499 126.068L108.776 111.778L137.499 97.8772L137.499 126.068Z" fill="#DCEEED" stroke="#F0F0F0" stroke-width="0.5"/>
<path d="M78.4486 126.517L107.409 112.456L107.409 140.225L78.4486 126.517Z" fill="#99C2DF" stroke="#F0F0F0" stroke-width="0.5"/>
<path d="M137.451 183.841L137.649 212.292L107.772 198.053L137.451 183.841Z" fill="#CFE8E6" stroke="#F0F0F0" stroke-width="0.5"/>
<path d="M167.323 198.231L138.288 212.194L138.092 184.008L167.323 198.231Z" fill="#C7E4E2" stroke="#F0F0F0" stroke-width="0.5"/>
<path d="M107.621 198.697L137.151 212.708L107.791 226.897L107.621 198.697Z" fill="#E7F3F2" stroke="#F0F0F0" stroke-width="0.5"/>
<path d="M138.338 241.322L138.338 213.291L167.182 227.549L138.338 241.322Z" fill="#B7DCDA" stroke="#F0F0F0" stroke-width="0.5"/>
<path d="M167.556 227L138.833 212.71L167.556 198.809L167.556 227Z" fill="#DCEEED" stroke="#F0F0F0" stroke-width="0.5"/>
<path d="M108.505 227.449L137.466 213.388L137.466 241.157L108.505 227.449Z" fill="#99C2DF" stroke="#F0F0F0" stroke-width="0.5"/>
<path d="M137.451 154.997L137.649 183.448L107.772 169.209L137.451 154.997Z" fill="#F7CF7D" stroke="#F0F0F0" stroke-width="0.5"/>
<path d="M167.323 169.387L138.288 183.35L138.092 155.164L167.323 169.387Z" fill="#DF9611" stroke="#F0F0F0" stroke-width="0.5"/>
<path d="M107.621 169.853L137.151 183.864L107.791 198.053L107.621 169.853Z" fill="#FCECCB" stroke="#F0F0F0" stroke-width="0.5"/>
<path d="M138.338 212.478L138.338 184.447L167.182 198.705L138.338 212.478Z" fill="#F4B12E" stroke="#F0F0F0" stroke-width="0.5"/>
<path d="M167.556 198.156L138.833 183.866L167.556 169.965L167.556 198.156Z" fill="#F7CF7D" stroke="#F0F0F0" stroke-width="0.5"/>
<path d="M108.505 198.605L137.466 184.544L137.466 212.313L108.505 198.605Z" fill="#DF9611" stroke="#F0F0F0" stroke-width="0.5"/>
<path d="M137.451 126.153L137.649 154.604L107.772 140.365L137.451 126.153Z" fill="#CFE8E6" stroke="#F0F0F0" stroke-width="0.5"/>
<path d="M167.323 140.543L138.288 154.506L138.092 126.32L167.323 140.543Z" fill="#C7E4E2" stroke="#F0F0F0" stroke-width="0.5"/>
<path d="M107.621 141.009L137.151 155.02L107.791 169.209L107.621 141.009Z" fill="#E7F3F2" stroke="#F0F0F0" stroke-width="0.5"/>
<path d="M138.338 183.634L138.338 155.603L167.182 169.861L138.338 183.634Z" fill="#B7DCDA" stroke="#F0F0F0" stroke-width="0.5"/>
<path d="M167.556 169.312L138.833 155.022L167.556 141.121L167.556 169.312Z" fill="#DCEEED" stroke="#F0F0F0" stroke-width="0.5"/>
<path d="M108.505 169.761L137.466 155.7L137.466 183.469L108.505 169.761Z" fill="#99C2DF" stroke="#F0F0F0" stroke-width="0.5"/>
<path d="M137.451 97.3085L137.649 125.76L107.772 111.521L137.451 97.3085Z" fill="#E8AFAC" stroke="#F0F0F0" stroke-width="0.5"/>
<path d="M167.323 111.699L138.288 125.662L138.092 97.4755L167.323 111.699Z" fill="#C34833" stroke="#F0F0F0" stroke-width="0.5"/>
<path d="M107.621 112.165L137.151 126.176L107.791 140.365L107.621 112.165Z" fill="#F1CCCB" stroke="#F0F0F0" stroke-width="0.5"/>
<path d="M138.338 154.79L138.338 126.759L167.182 141.017L138.338 154.79Z" fill="#D36D63" stroke="#F0F0F0" stroke-width="0.5"/>
<path d="M167.556 140.468L138.833 126.178L167.556 112.277L167.556 140.468Z" fill="#DF908B" stroke="#F0F0F0" stroke-width="0.5"/>
<path d="M108.505 140.917L137.466 126.856L137.466 154.625L108.505 140.917Z" fill="#AC3619" stroke="#F0F0F0" stroke-width="0.5"/>
<path d="M228.057 138.968L228.255 167.419L198.377 153.18L228.057 138.968Z" fill="#F7CF7D" stroke="#F0F0F0" stroke-width="0.5"/>
<path d="M257.929 153.358L228.894 167.322L228.697 139.135L257.929 153.358Z" fill="#DF9611" stroke="#F0F0F0" stroke-width="0.5"/>
<path d="M198.226 153.825L227.756 167.835L198.397 182.024L198.226 153.825Z" fill="#FCECCB" stroke="#F0F0F0" stroke-width="0.5"/>
<path d="M228.943 196.449L228.943 168.418L257.788 182.677L228.943 196.449Z" fill="#F4B12E" stroke="#F0F0F0" stroke-width="0.5"/>
<path d="M258.161 182.128L229.438 167.837L258.161 153.937L258.161 182.128Z" fill="#F7CF7D" stroke="#F0F0F0" stroke-width="0.5"/>
<path d="M199.111 182.577L228.072 168.515L228.072 196.284L199.111 182.577Z" fill="#DF9611" stroke="#F0F0F0" stroke-width="0.5"/>
<path d="M228.057 110.938L228.255 139.389L198.377 125.15L228.057 110.938Z" fill="#F7CF7D" stroke="#F0F0F0" stroke-width="0.5"/>
<path d="M257.929 125.328L228.894 139.292L228.697 111.105L257.929 125.328Z" fill="#DF9611" stroke="#F0F0F0" stroke-width="0.5"/>
<path d="M198.226 125.795L227.756 139.805L198.397 153.995L198.226 125.795Z" fill="#FCECCB" stroke="#F0F0F0" stroke-width="0.5"/>
<path d="M228.943 168.419L228.943 140.389L257.788 154.647L228.943 168.419Z" fill="#F4B12E" stroke="#F0F0F0" stroke-width="0.5"/>
<path d="M258.161 154.098L229.438 139.808L258.161 125.907L258.161 154.098Z" fill="#F7CF7D" stroke="#F0F0F0" stroke-width="0.5"/>
<path d="M199.111 154.547L228.072 140.486L228.072 168.254L199.111 154.547Z" fill="#DF9611" stroke="#F0F0F0" stroke-width="0.5"/>
<path d="M197.285 211.255L197.483 239.706L167.605 225.467L197.285 211.255Z" fill="#CFE8E6" stroke="#F0F0F0" stroke-width="0.5"/>
<path d="M227.157 225.645L198.122 239.609L197.926 211.422L227.157 225.645Z" fill="#C7E4E2" stroke="#F0F0F0" stroke-width="0.5"/>
<path d="M167.454 226.112L196.985 240.122L167.625 254.311L167.454 226.112Z" fill="#E7F3F2" stroke="#F0F0F0" stroke-width="0.5"/>
<path d="M198.171 268.736L198.171 240.705L227.016 254.964L198.171 268.736Z" fill="#B7DCDA" stroke="#F0F0F0" stroke-width="0.5"/>
<path d="M227.39 254.415L198.666 240.125L227.39 226.224L227.39 254.415Z" fill="#DCEEED" stroke="#F0F0F0" stroke-width="0.5"/>
<path d="M168.339 254.864L197.3 240.803L197.3 268.571L168.339 254.864Z" fill="#99C2DF" stroke="#F0F0F0" stroke-width="0.5"/>
<path d="M197.285 183.026L197.483 211.478L167.605 197.238L197.285 183.026Z" fill="#E8AFAC" stroke="#F0F0F0" stroke-width="0.5"/>
<path d="M227.157 197.416L198.122 211.38L197.926 183.193L227.157 197.416Z" fill="#C34833" stroke="#F0F0F0" stroke-width="0.5"/>
<path d="M167.454 197.883L196.985 211.893L167.625 226.083L167.454 197.883Z" fill="#F1CCCB" stroke="#F0F0F0" stroke-width="0.5"/>
<path d="M198.171 240.507L198.171 212.477L227.016 226.735L198.171 240.507Z" fill="#D36D63" stroke="#F0F0F0" stroke-width="0.5"/>
<path d="M227.39 226.186L198.666 211.896L227.39 197.995L227.39 226.186Z" fill="#DF908B" stroke="#F0F0F0" stroke-width="0.5"/>
<path d="M168.339 226.635L197.3 212.574L197.3 240.342L168.339 226.635Z" fill="#AC3619" stroke="#F0F0F0" stroke-width="0.5"/>
<path d="M197.287 152.251L197.485 181.423L167.599 166.823L197.287 152.251Z" fill="#CFE8E6" stroke="#F0F0F0" stroke-width="0.5"/>
<path d="M227.164 167.005L198.12 181.323L197.923 152.422L227.164 167.005Z" fill="#C7E4E2" stroke="#F0F0F0" stroke-width="0.5"/>
<path d="M167.454 167.48L196.996 181.846L167.625 196.395L167.454 167.48Z" fill="#E7F3F2" stroke="#F0F0F0" stroke-width="0.5"/>
<path d="M198.169 211.181L198.169 182.44L227.023 197.06L198.169 211.181Z" fill="#B7DCDA" stroke="#F0F0F0" stroke-width="0.5"/>
<path d="M227.39 196.501L198.655 181.848L227.39 167.594L227.39 196.501Z" fill="#DCEEED" stroke="#F0F0F0" stroke-width="0.5"/>
<path d="M168.332 196.957L197.302 182.54L197.302 211.012L168.332 196.957Z" fill="#99C2DF" stroke="#F0F0F0" stroke-width="0.5"/>
<path d="M197.285 125.338L197.483 153.79L167.605 139.55L197.285 125.338Z" fill="#78CCBA" stroke="#F0F0F0" stroke-width="0.5"/>
<path d="M227.157 139.728L198.122 153.692L197.926 125.505L227.157 139.728Z" fill="#40B79E" stroke="#F0F0F0" stroke-width="0.5"/>
<path d="M167.454 140.195L196.985 154.205L167.625 168.395L167.454 140.195Z" fill="#AADFD4" stroke="#F0F0F0" stroke-width="0.5"/>
<path d="M198.171 182.819L198.171 154.789L227.016 169.047L198.171 182.819Z" fill="#40B79E" stroke="#F0F0F0" stroke-width="0.5"/>
<path d="M227.39 168.498L198.666 154.208L227.39 140.307L227.39 168.498Z" fill="#78CCBA" stroke="#F0F0F0" stroke-width="0.5"/>
<path d="M168.339 168.947L197.3 154.886L197.3 182.654L168.339 168.947Z" fill="#008066" stroke="#F0F0F0" stroke-width="0.5"/>
</g>
<defs>
<filter id="filter0_d_878_8550" x="-8" y="0" width="352" height="352" filterUnits="userSpaceOnUse" color-interpolation-filters="sRGB">
<feFlood flood-opacity="0" result="BackgroundImageFix"/>
<feColorMatrix in="SourceAlpha" type="matrix" values="0 0 0 0 0 0 0 0 0 0 0 0 0 0 0 0 0 0 127 0" result="hardAlpha"/>
<feOffset dy="8"/>
<feGaussianBlur stdDeviation="4"/>
<feComposite in2="hardAlpha" operator="out"/>
<feColorMatrix type="matrix" values="0 0 0 0 0 0 0 0 0 0 0 0 0 0 0 0 0 0 0.3 0"/>
<feBlend mode="normal" in2="BackgroundImageFix" result="effect1_dropShadow_878_8550"/>
<feBlend mode="normal" in="SourceGraphic" in2="effect1_dropShadow_878_8550" result="shape"/>
</filter>
</defs>
</svg>
