<svg width="1440" height="375" viewBox="0 0 1440 375" fill="none" xmlns="http://www.w3.org/2000/svg">
<path d="M430.893 207.273L431.298 274.897L370.166 241.053L430.893 207.273Z" fill="#CFE8E6" stroke="#F0F0F0" stroke-width="0.25"/>
<path d="M491.517 241.396L431.551 274.897L431.146 207.273L491.517 241.396Z" fill="#C7E4E2" stroke="#F0F0F0" stroke-width="0.25"/>
<path d="M370.036 241.265L431.17 275.109L370.39 309.386L370.036 241.265Z" fill="#E7F3F2" stroke="#F0F0F0" stroke-width="0.25"/>
<path d="M431.552 343.017L431.552 275.323L491.518 309.757L431.552 343.017Z" fill="#B7DCDA" stroke="#F0F0F0" stroke-width="0.25"/>
<path d="M491.645 309.544L431.679 275.11L491.645 241.614L491.645 309.544Z" fill="#DCEEED" stroke="#F0F0F0" stroke-width="0.25"/>
<path d="M370.521 309.601L431.299 275.321L431.299 343.018L370.521 309.601Z" fill="#99C2DF" stroke="#F0F0F0" stroke-width="0.25"/>
<path d="M244.893 105.273L245.298 172.897L184.166 139.053L244.893 105.273Z" fill="#CFE8E6" stroke="#F0F0F0" stroke-width="0.25"/>
<path d="M305.517 139.396L245.551 172.897L245.146 105.273L305.517 139.396Z" fill="#C7E4E2" stroke="#F0F0F0" stroke-width="0.25"/>
<path d="M184.036 139.265L245.17 173.109L184.39 207.386L184.036 139.265Z" fill="#E7F3F2" stroke="#F0F0F0" stroke-width="0.25"/>
<path d="M245.552 241.017L245.552 173.323L305.518 207.757L245.552 241.017Z" fill="#B7DCDA" stroke="#F0F0F0" stroke-width="0.25"/>
<path d="M305.645 207.544L245.679 173.11L305.645 139.614L305.645 207.544Z" fill="#DCEEED" stroke="#F0F0F0" stroke-width="0.25"/>
<path d="M184.521 207.601L245.299 173.321L245.299 241.018L184.521 207.601Z" fill="#99C2DF" stroke="#F0F0F0" stroke-width="0.25"/>
<path d="M56.8924 207.272L57.2975 274.401L-3.83316 240.804L56.8924 207.272Z" fill="#F7CF7D" stroke="#F0F0F0" stroke-width="0.25"/>
<path d="M117.516 241.146L57.5515 274.401L57.1464 207.273L117.516 241.146Z" fill="#DF9611" stroke="#F0F0F0" stroke-width="0.25"/>
<path d="M-3.96388 241.015L57.1681 274.612L-3.61048 308.638L-3.96388 241.015Z" fill="#FCECCB" stroke="#F0F0F0" stroke-width="0.25"/>
<path d="M57.5528 342.023L57.5528 274.825L117.517 309.007L57.5528 342.023Z" fill="#F4B12E" stroke="#F0F0F0" stroke-width="0.25"/>
<path d="M117.645 308.795L57.6808 274.613L117.645 241.362L117.645 308.795Z" fill="#F7CF7D" stroke="#F0F0F0" stroke-width="0.25"/>
<path d="M-3.47828 308.852L57.2988 274.823L57.2988 342.024L-3.47828 308.852Z" fill="#DF9611" stroke="#F0F0F0" stroke-width="0.25"/>
<path d="M-0.107633 104.272L0.297526 171.401L-60.8332 137.804L-0.107633 104.272Z" fill="#78CCBA" stroke="#F0F0F0" stroke-width="0.25"/>
<path d="M60.5161 138.145L0.551529 171.401L0.14636 104.272L60.5161 138.145Z" fill="#40B79E" stroke="#F0F0F0" stroke-width="0.25"/>
<path d="M-60.9639 138.015L0.168087 171.612L-60.6105 205.638L-60.9639 138.015Z" fill="#AADFD4" stroke="#F0F0F0" stroke-width="0.25"/>
<path d="M0.552674 239.023L0.552666 171.825L60.5168 206.007L0.552674 239.023Z" fill="#40B79E" stroke="#F0F0F0" stroke-width="0.25"/>
<path d="M60.6455 205.795L0.680829 171.613L60.6455 138.362L60.6455 205.795Z" fill="#78CCBA" stroke="#F0F0F0" stroke-width="0.25"/>
<path d="M-60.4783 205.852L0.298777 171.823L0.298781 239.024L-60.4783 205.852Z" fill="#008066" stroke="#F0F0F0" stroke-width="0.25"/>
<path d="M121.892 307.272L122.298 374.4L61.1668 340.804L121.892 307.272Z" fill="#62718F" stroke="#F0F0F0" stroke-width="0.25"/>
<path d="M182.516 341.146L122.552 374.401L122.146 307.273L182.516 341.146Z" fill="#394C71" stroke="#F0F0F0" stroke-width="0.25"/>
<path d="M61.0361 341.015L122.168 374.612L61.3895 408.638L61.0361 341.015Z" fill="#B6BDCB" stroke="#F0F0F0" stroke-width="0.25"/>
<path d="M122.553 442.023L122.553 374.825L182.517 409.007L122.553 442.023Z" fill="#62718F" stroke="#F0F0F0" stroke-width="0.25"/>
<path d="M182.645 408.795L122.681 374.613L182.645 341.362L182.645 408.795Z" fill="#9CA5B8" stroke="#F0F0F0" stroke-width="0.25"/>
<path d="M61.5217 408.852L122.299 374.823L122.299 442.024L61.5217 408.852Z" fill="#25385C" stroke="#F0F0F0" stroke-width="0.25"/>
<path d="M244.892 307.272L245.298 374.4L184.167 340.804L244.892 307.272Z" fill="#CFE8E6" stroke="#F0F0F0" stroke-width="0.25"/>
<path d="M305.516 341.146L245.552 374.401L245.146 307.273L305.516 341.146Z" fill="#C7E4E2" stroke="#F0F0F0" stroke-width="0.25"/>
<path d="M184.036 341.015L245.168 374.612L184.39 408.638L184.036 341.015Z" fill="#E7F3F2" stroke="#F0F0F0" stroke-width="0.25"/>
<path d="M245.553 442.023L245.553 374.825L305.517 409.007L245.553 442.023Z" fill="#B7DCDA" stroke="#F0F0F0" stroke-width="0.25"/>
<path d="M305.645 408.795L245.681 374.613L305.645 341.362L305.645 408.795Z" fill="#DCEEED" stroke="#F0F0F0" stroke-width="0.25"/>
<path d="M184.522 408.852L245.299 374.823L245.299 442.024L184.522 408.852Z" fill="#99C2DF" stroke="#F0F0F0" stroke-width="0.25"/>
<path d="M-1.10763 307.272L-0.702474 374.4L-61.8332 340.804L-1.10763 307.272Z" fill="#CFE8E6" stroke="#F0F0F0" stroke-width="0.25"/>
<path d="M59.5161 341.146L-0.448471 374.401L-0.85364 307.273L59.5161 341.146Z" fill="#C7E4E2" stroke="#F0F0F0" stroke-width="0.25"/>
<path d="M-0.447326 442.023L-0.447334 374.825L59.5168 409.007L-0.447326 442.023Z" fill="#B7DCDA" stroke="#F0F0F0" stroke-width="0.25"/>
<path d="M59.6455 408.795L-0.319171 374.613L59.6455 341.362L59.6455 408.795Z" fill="#DCEEED" stroke="#F0F0F0" stroke-width="0.25"/>
<path d="M-61.4783 408.852L-0.701223 374.823L-0.701219 442.024L-61.4783 408.852Z" fill="#99C2DF" stroke="#F0F0F0" stroke-width="0.25"/>
<path d="M1384.75 0.272405L1385.16 67.5537L1323.89 33.8809L1384.75 0.272405Z" fill="#E8AFAC" stroke="#F0F0F0" stroke-width="0.25"/>
<path d="M1445.52 34.2227L1385.41 67.5541L1385.01 0.27247L1445.52 34.2227Z" fill="#C34833" stroke="#F0F0F0" stroke-width="0.25"/>
<path d="M1323.76 34.0921L1385.03 67.7655L1324.11 101.869L1323.76 34.0921Z" fill="#F1CCCB" stroke="#F0F0F0" stroke-width="0.25"/>
<path d="M1385.42 135.33L1385.42 67.9785L1445.52 102.238L1385.42 135.33Z" fill="#D36D63" stroke="#F0F0F0" stroke-width="0.25"/>
<path d="M1445.64 102.026L1385.54 67.766L1445.64 34.4396L1445.64 102.026Z" fill="#DF908B" stroke="#F0F0F0" stroke-width="0.25"/>
<path d="M1324.25 102.083L1385.16 67.9765L1385.16 135.331L1324.25 102.083Z" fill="#AC3619" stroke="#F0F0F0" stroke-width="0.25"/>
<path d="M1384.75 204.735L1385.16 272.016L1323.89 238.344L1384.75 204.735Z" fill="#CFE8E6" stroke="#F0F0F0" stroke-width="0.25"/>
<path d="M1445.52 238.686L1385.41 272.017L1385.01 204.735L1445.52 238.686Z" fill="#C7E4E2" stroke="#F0F0F0" stroke-width="0.25"/>
<path d="M1323.76 238.555L1385.03 272.228L1324.11 306.332L1323.76 238.555Z" fill="#E7F3F2" stroke="#F0F0F0" stroke-width="0.25"/>
<path d="M1385.42 339.792L1385.42 272.441L1445.52 306.7L1385.42 339.792Z" fill="#B7DCDA" stroke="#F0F0F0" stroke-width="0.25"/>
<path d="M1445.64 306.488L1385.54 272.229L1445.64 238.902L1445.64 306.488Z" fill="#DCEEED" stroke="#F0F0F0" stroke-width="0.25"/>
<path d="M1324.25 306.545L1385.16 272.439L1385.16 339.793L1324.25 306.545Z" fill="#99C2DF" stroke="#F0F0F0" stroke-width="0.25"/>
<path d="M1200.33 305.963L1200.74 373.741L1139.47 339.819L1200.33 305.963Z" fill="#62718F" stroke="#F0F0F0" stroke-width="0.25"/>
<path d="M1261.09 340.164L1200.99 373.741L1200.59 305.963L1261.09 340.164Z" fill="#394C71" stroke="#F0F0F0" stroke-width="0.25"/>
<path d="M1139.34 340.032L1200.61 373.953L1139.69 408.309L1139.34 340.032Z" fill="#B6BDCB" stroke="#F0F0F0" stroke-width="0.25"/>
<path d="M1200.99 442.015L1200.99 374.167L1261.1 408.679L1200.99 442.015Z" fill="#62718F" stroke="#F0F0F0" stroke-width="0.25"/>
<path d="M1261.22 408.466L1201.12 373.954L1261.22 340.381L1261.22 408.466Z" fill="#9CA5B8" stroke="#F0F0F0" stroke-width="0.25"/>
<path d="M1139.82 408.523L1200.74 374.165L1200.74 442.016L1139.82 408.523Z" fill="#25385C" stroke="#F0F0F0" stroke-width="0.25"/>
<path d="M1323.61 306.964L1324.02 374.245L1262.75 340.573L1323.61 306.964Z" fill="#CFE8E6" stroke="#F0F0F0" stroke-width="0.25"/>
<path d="M1384.37 340.914L1324.27 374.246L1323.86 306.964L1384.37 340.914Z" fill="#C7E4E2" stroke="#F0F0F0" stroke-width="0.25"/>
<path d="M1262.62 340.783L1323.89 374.457L1262.97 408.56L1262.62 340.783Z" fill="#E7F3F2" stroke="#F0F0F0" stroke-width="0.25"/>
<path d="M1324.27 442.021L1324.27 374.67L1384.37 408.929L1324.27 442.021Z" fill="#B7DCDA" stroke="#F0F0F0" stroke-width="0.25"/>
<path d="M1384.5 408.717L1324.4 374.458L1384.5 341.131L1384.5 408.717Z" fill="#DCEEED" stroke="#F0F0F0" stroke-width="0.25"/>
<path d="M1263.1 408.774L1324.02 374.668L1324.02 442.022L1263.1 408.774Z" fill="#99C2DF" stroke="#F0F0F0" stroke-width="0.25"/>
<path d="M1446.61 306.964L1447.02 374.245L1385.75 340.573L1446.61 306.964Z" fill="#CFE8E6" stroke="#F0F0F0" stroke-width="0.25"/>
<path d="M1507.37 340.914L1447.27 374.246L1446.86 306.964L1507.37 340.914Z" fill="#C7E4E2" stroke="#F0F0F0" stroke-width="0.25"/>
<path d="M1385.62 340.783L1446.89 374.457L1385.97 408.56L1385.62 340.783Z" fill="#E7F3F2" stroke="#F0F0F0" stroke-width="0.25"/>
<path d="M1447.27 442.021L1447.27 374.67L1507.37 408.929L1447.27 442.021Z" fill="#B7DCDA" stroke="#F0F0F0" stroke-width="0.25"/>
<path d="M1386.1 408.774L1447.02 374.668L1447.02 442.022L1386.1 408.774Z" fill="#99C2DF" stroke="#F0F0F0" stroke-width="0.25"/>
<path d="M1446.61 102.964L1447.02 170.245L1385.75 136.572L1446.61 102.964Z" fill="#CFE8E6" stroke="#F0F0F0" stroke-width="0.25"/>
<path d="M1507.37 136.914L1447.27 170.246L1446.86 102.964L1507.37 136.914Z" fill="#C7E4E2" stroke="#F0F0F0" stroke-width="0.25"/>
<path d="M1385.62 136.783L1446.89 170.457L1385.97 204.561L1385.62 136.783Z" fill="#E7F3F2" stroke="#F0F0F0" stroke-width="0.25"/>
<path d="M1447.27 238.021L1447.27 170.67L1507.37 204.929L1447.27 238.021Z" fill="#B7DCDA" stroke="#F0F0F0" stroke-width="0.25"/>
<path d="M1386.1 204.774L1447.02 170.668L1447.02 238.022L1386.1 204.774Z" fill="#99C2DF" stroke="#F0F0F0" stroke-width="0.25"/>
<path d="M1077.05 305.963L1077.46 373.741L1016.19 339.819L1077.05 305.963Z" fill="#CFE8E6" stroke="#F0F0F0" stroke-width="0.25"/>
<path d="M1137.82 340.164L1077.71 373.741L1077.31 305.963L1137.82 340.164Z" fill="#C7E4E2" stroke="#F0F0F0" stroke-width="0.25"/>
<path d="M1016.06 340.032L1077.33 373.953L1016.41 408.309L1016.06 340.032Z" fill="#E7F3F2" stroke="#F0F0F0" stroke-width="0.25"/>
<path d="M1077.71 442.015L1077.71 374.167L1137.82 408.679L1077.71 442.015Z" fill="#B7DCDA" stroke="#F0F0F0" stroke-width="0.25"/>
<path d="M1137.94 408.466L1077.84 373.954L1137.94 340.381L1137.94 408.466Z" fill="#DCEEED" stroke="#F0F0F0" stroke-width="0.25"/>
<path d="M1016.54 408.523L1077.46 374.165L1077.46 442.016L1016.54 408.523Z" fill="#99C2DF" stroke="#F0F0F0" stroke-width="0.25"/>
</svg>
