<svg width="575" height="144" viewBox="0 0 575 144" fill="none" xmlns="http://www.w3.org/2000/svg">
<g clip-path="url(#clip0_865_698)">
<g filter="url(#filter0_d_865_698)">
<path d="M187.545 79.1497L187.695 104.095L165.043 91.6104L187.545 79.1497Z" fill="#CFE8E6" stroke="#F0F0F0" stroke-width="0.5"/>
<path d="M210.293 91.7673L188.282 104.009L188.134 79.2981L210.293 91.7673Z" fill="#C7E4E2" stroke="#F0F0F0" stroke-width="0.5"/>
<path d="M164.897 92.2588L187.291 104.546L165.027 116.989L164.897 92.2588Z" fill="#E7F3F2" stroke="#F0F0F0" stroke-width="0.5"/>
<path d="M188.321 129.718L188.321 105.145L210.186 117.644L188.321 129.718Z" fill="#B7DCDA" stroke="#F0F0F0" stroke-width="0.5"/>
<path d="M210.501 117.078L188.722 104.548L210.501 92.3584L210.501 117.078Z" fill="#DCEEED" stroke="#F0F0F0" stroke-width="0.5"/>
<path d="M165.603 117.556L187.556 105.23L187.556 129.572L165.603 117.556Z" fill="#99C2DF" stroke="#F0F0F0" stroke-width="0.5"/>
<path d="M116.869 40.3895L117.019 65.3347L94.3673 52.8502L116.869 40.3895Z" fill="#F7CF7D" stroke="#F0F0F0" stroke-width="0.5"/>
<path d="M139.617 53.007L117.607 65.2489L117.458 40.5378L139.617 53.007Z" fill="#DF9611" stroke="#F0F0F0" stroke-width="0.5"/>
<path d="M94.2214 53.4986L116.615 65.7852L94.3508 78.2289L94.2214 53.4986Z" fill="#FCECCB" stroke="#F0F0F0" stroke-width="0.5"/>
<path d="M117.645 90.9574L117.645 66.3847L139.51 78.8841L117.645 90.9574Z" fill="#F4B12E" stroke="#F0F0F0" stroke-width="0.5"/>
<path d="M139.825 78.3182L118.046 65.7875L139.825 53.5981L139.825 78.3182Z" fill="#F7CF7D" stroke="#F0F0F0" stroke-width="0.5"/>
<path d="M94.9269 78.7959L116.88 66.4695L116.88 90.8121L94.9269 78.7959Z" fill="#DF9611" stroke="#F0F0F0" stroke-width="0.5"/>
<path d="M45.4331 79.1493L45.5821 103.906L23.1014 91.5159L45.4331 79.1493Z" fill="#CFE8E6" stroke="#F0F0F0" stroke-width="0.5"/>
<path d="M68.0137 91.6716L46.1691 103.821L46.0215 79.2966L68.0137 91.6716Z" fill="#C7E4E2" stroke="#F0F0F0" stroke-width="0.5"/>
<path d="M22.9546 92.1627L45.179 104.357L23.0831 116.706L22.9546 92.1627Z" fill="#E7F3F2" stroke="#F0F0F0" stroke-width="0.5"/>
<path d="M46.2073 129.342L46.2073 104.955L67.907 117.36L46.2073 129.342Z" fill="#B7DCDA" stroke="#F0F0F0" stroke-width="0.5"/>
<path d="M68.2219 116.795L46.6071 104.359L68.2219 92.2615L68.2219 116.795Z" fill="#DCEEED" stroke="#F0F0F0" stroke-width="0.5"/>
<path d="M23.6569 117.272L45.444 105.039L45.444 129.198L23.6569 117.272Z" fill="#99C2DF" stroke="#F0F0F0" stroke-width="0.5"/>
<path d="M23.7744 40.009L23.9234 64.766L1.44267 52.3757L23.7744 40.009Z" fill="#78CCBA" stroke="#F0F0F0" stroke-width="0.5"/>
<path d="M46.355 52.5313L24.5104 64.6807L24.3628 40.1563L46.355 52.5313Z" fill="#40B79E" stroke="#F0F0F0" stroke-width="0.5"/>
<path d="M1.2959 53.0224L23.5203 65.2164L1.42437 77.5661L1.2959 53.0224Z" fill="#AADFD4" stroke="#F0F0F0" stroke-width="0.5"/>
<path d="M24.5486 90.2017L24.5486 65.8145L46.2483 78.2195L24.5486 90.2017Z" fill="#40B79E" stroke="#F0F0F0" stroke-width="0.5"/>
<path d="M46.5631 77.6546L24.9484 65.2185L46.5631 53.1212L46.5631 77.6546Z" fill="#78CCBA" stroke="#F0F0F0" stroke-width="0.5"/>
<path d="M1.99821 78.132L23.7853 65.8986L23.7853 90.0574L1.99821 78.132Z" fill="#008066" stroke="#F0F0F0" stroke-width="0.5"/>
<path d="M70.1316 117.149L70.2806 141.906L47.7999 129.516L70.1316 117.149Z" fill="#CFE8E6" stroke="#F0F0F0" stroke-width="0.5"/>
<path d="M92.7122 129.672L70.8676 141.821L70.72 117.297L92.7122 129.672Z" fill="#C7E4E2" stroke="#F0F0F0" stroke-width="0.5"/>
<path d="M47.6532 130.163L69.8776 142.357L47.7816 154.707L47.6532 130.163Z" fill="#E7F3F2" stroke="#F0F0F0" stroke-width="0.5"/>
<path d="M70.9058 167.342L70.9058 142.955L92.6056 155.36L70.9058 167.342Z" fill="#B7DCDA" stroke="#F0F0F0" stroke-width="0.5"/>
<path d="M92.9204 154.795L71.3057 142.359L92.9204 130.262L92.9204 154.795Z" fill="#DCEEED" stroke="#F0F0F0" stroke-width="0.5"/>
<path d="M48.3555 155.272L70.1425 143.039L70.1425 167.198L48.3555 155.272Z" fill="#99C2DF" stroke="#F0F0F0" stroke-width="0.5"/>
<path d="M117.009 116.896L117.161 142.142L94.2363 129.507L117.009 116.896Z" fill="#62718F" stroke="#F0F0F0" stroke-width="0.25"/>
<path d="M139.901 129.636L117.415 142.143L117.263 116.898L139.901 129.636Z" fill="#394C71" stroke="#F0F0F0" stroke-width="0.25"/>
<path d="M94.106 129.719L117.032 142.354L94.2385 155.152L94.106 129.719Z" fill="#B6BDCB" stroke="#F0F0F0" stroke-width="0.25"/>
<path d="M117.416 167.838L117.416 142.568L139.902 155.422L117.416 167.838Z" fill="#62718F" stroke="#F0F0F0" stroke-width="0.25"/>
<path d="M140.03 155.209L117.544 142.355L140.03 129.85L140.03 155.209Z" fill="#9CA5B8" stroke="#F0F0F0" stroke-width="0.25"/>
<path d="M94.3704 155.363L117.162 142.566L117.162 167.839L94.3704 155.363Z" fill="#25385C" stroke="#F0F0F0" stroke-width="0.25"/>
<path d="M23.3944 117.149L23.5434 141.906L1.06268 129.516L23.3944 117.149Z" fill="#E8AFAC" stroke="#F0F0F0" stroke-width="0.5"/>
<path d="M45.975 129.672L24.1304 141.821L23.9828 117.297L45.975 129.672Z" fill="#C34833" stroke="#F0F0F0" stroke-width="0.5"/>
<path d="M0.915907 130.163L23.1403 142.357L1.04438 154.707L0.915907 130.163Z" fill="#F1CCCB" stroke="#F0F0F0" stroke-width="0.5"/>
<path d="M24.1686 167.342L24.1686 142.955L45.8683 155.36L24.1686 167.342Z" fill="#D36D63" stroke="#F0F0F0" stroke-width="0.5"/>
<path d="M46.1831 154.795L24.5684 142.359L46.1831 130.262L46.1831 154.795Z" fill="#DF908B" stroke="#F0F0F0" stroke-width="0.5"/>
<path d="M1.61822 155.272L23.4053 143.039L23.4053 167.198L1.61822 155.272Z" fill="#AC3619" stroke="#F0F0F0" stroke-width="0.5"/>
<path d="M0.215666 78.7697L0.365797 103.715L-22.2858 91.2304L0.215666 78.7697Z" fill="#CFE8E6" stroke="#F0F0F0" stroke-width="0.5"/>
<path d="M22.9642 91.3872L0.953381 103.629L0.804655 78.9181L22.9642 91.3872Z" fill="#C7E4E2" stroke="#F0F0F0" stroke-width="0.5"/>
<path d="M-22.4318 91.8788L-0.0382929 104.165L-22.3023 116.609L-22.4318 91.8788Z" fill="#E7F3F2" stroke="#F0F0F0" stroke-width="0.5"/>
<path d="M0.991866 129.338L0.991863 104.765L22.8568 117.264L0.991866 129.338Z" fill="#B7DCDA" stroke="#F0F0F0" stroke-width="0.5"/>
<path d="M23.172 116.698L1.39277 104.168L23.172 91.9784L23.172 116.698Z" fill="#DCEEED" stroke="#F0F0F0" stroke-width="0.5"/>
<path d="M-21.7262 117.176L0.226665 104.85L0.226666 129.192L-21.7262 117.176Z" fill="#99C2DF" stroke="#F0F0F0" stroke-width="0.5"/>
<path d="M549.991 0.488738L550.14 25.3038L527.607 12.8844L549.991 0.488738Z" fill="#E8AFAC" stroke="#F0F0F0" stroke-width="0.5"/>
<path d="M572.623 13.0404L550.727 25.2183L550.579 0.636382L572.623 13.0404Z" fill="#C34833" stroke="#F0F0F0" stroke-width="0.5"/>
<path d="M527.46 13.5316L549.737 25.7542L527.589 38.1329L527.46 13.5316Z" fill="#F1CCCB" stroke="#F0F0F0" stroke-width="0.5"/>
<path d="M550.766 50.7971L550.766 26.3528L572.516 38.7869L550.766 50.7971Z" fill="#D36D63" stroke="#F0F0F0" stroke-width="0.5"/>
<path d="M572.831 38.2217L551.166 25.7564L572.831 13.6307L572.831 38.2217Z" fill="#DF908B" stroke="#F0F0F0" stroke-width="0.5"/>
<path d="M528.163 38.6992L550.002 26.4371L550.002 50.6526L528.163 38.6992Z" fill="#AC3619" stroke="#F0F0F0" stroke-width="0.5"/>
<path d="M549.991 78.1851L550.14 103L527.607 90.5807L549.991 78.1851Z" fill="#CFE8E6" stroke="#F0F0F0" stroke-width="0.5"/>
<path d="M572.623 90.7368L550.727 102.915L550.579 78.3327L572.623 90.7368Z" fill="#C7E4E2" stroke="#F0F0F0" stroke-width="0.5"/>
<path d="M527.46 91.228L549.737 103.451L527.589 115.829L527.46 91.228Z" fill="#E7F3F2" stroke="#F0F0F0" stroke-width="0.5"/>
<path d="M550.766 128.493L550.766 104.049L572.516 116.483L550.766 128.493Z" fill="#B7DCDA" stroke="#F0F0F0" stroke-width="0.5"/>
<path d="M572.831 115.918L551.166 103.453L572.831 91.3271L572.831 115.918Z" fill="#DCEEED" stroke="#F0F0F0" stroke-width="0.5"/>
<path d="M528.163 116.396L550.002 104.133L550.002 128.349L528.163 116.396Z" fill="#99C2DF" stroke="#F0F0F0" stroke-width="0.5"/>
<path d="M479.914 116.652L480.065 141.656L457.36 129.142L479.914 116.652Z" fill="#CFE8E6" stroke="#F0F0F0" stroke-width="0.5"/>
<path d="M502.715 129.299L480.653 141.57L480.504 116.801L502.715 129.299Z" fill="#C7E4E2" stroke="#F0F0F0" stroke-width="0.5"/>
<path d="M457.215 129.791L479.661 142.106L457.344 154.579L457.215 129.791Z" fill="#E7F3F2" stroke="#F0F0F0" stroke-width="0.5"/>
<path d="M480.691 167.337L480.691 142.706L502.608 155.235L480.691 167.337Z" fill="#B7DCDA" stroke="#F0F0F0" stroke-width="0.5"/>
<path d="M502.923 154.669L481.093 142.109L502.923 129.891L502.923 154.669Z" fill="#DCEEED" stroke="#F0F0F0" stroke-width="0.5"/>
<path d="M457.921 155.147L479.926 142.791L479.926 167.191L457.921 155.147Z" fill="#99C2DF" stroke="#F0F0F0" stroke-width="0.5"/>
<path d="M526.758 117.032L526.907 141.847L504.374 129.428L526.758 117.032Z" fill="#CFE8E6" stroke="#F0F0F0" stroke-width="0.5"/>
<path d="M549.39 129.584L527.494 141.762L527.346 117.18L549.39 129.584Z" fill="#C7E4E2" stroke="#F0F0F0" stroke-width="0.5"/>
<path d="M504.227 130.075L526.504 142.298L504.356 154.676L504.227 130.075Z" fill="#E7F3F2" stroke="#F0F0F0" stroke-width="0.5"/>
<path d="M527.533 167.341L527.533 142.896L549.283 155.33L527.533 167.341Z" fill="#B7DCDA" stroke="#F0F0F0" stroke-width="0.5"/>
<path d="M549.598 154.765L527.933 142.3L549.598 130.174L549.598 154.765Z" fill="#DCEEED" stroke="#F0F0F0" stroke-width="0.5"/>
<path d="M504.93 155.243L526.769 142.981L526.769 167.196L504.93 155.243Z" fill="#99C2DF" stroke="#F0F0F0" stroke-width="0.5"/>
<path d="M573.495 117.032L573.644 141.847L551.111 129.428L573.495 117.032Z" fill="#78CCBA" stroke="#F0F0F0" stroke-width="0.5"/>
<path d="M596.127 129.584L574.231 141.762L574.083 117.18L596.127 129.584Z" fill="#40B79E" stroke="#F0F0F0" stroke-width="0.5"/>
<path d="M550.964 130.075L573.241 142.298L551.093 154.676L550.964 130.075Z" fill="#AADFD4" stroke="#F0F0F0" stroke-width="0.5"/>
<path d="M574.27 167.341L574.27 142.896L596.02 155.33L574.27 167.341Z" fill="#40B79E" stroke="#F0F0F0" stroke-width="0.5"/>
<path d="M596.335 154.765L574.67 142.3L596.335 130.174L596.335 154.765Z" fill="#78CCBA" stroke="#F0F0F0" stroke-width="0.5"/>
<path d="M551.667 155.243L573.506 142.981L573.506 167.196L551.667 155.243Z" fill="#008066" stroke="#F0F0F0" stroke-width="0.5"/>
<path d="M573.635 39.2583L573.787 64.5626L550.81 51.8983L573.635 39.2583Z" fill="#62718F" stroke="#F0F0F0" stroke-width="0.25"/>
<path d="M596.579 52.028L574.041 64.563L573.889 39.2603L596.579 52.028Z" fill="#394C71" stroke="#F0F0F0" stroke-width="0.25"/>
<path d="M550.679 52.1098L573.658 64.7747L550.812 77.6014L550.679 52.1098Z" fill="#B6BDCB" stroke="#F0F0F0" stroke-width="0.25"/>
<path d="M574.042 90.3166L574.042 64.988L596.58 77.8719L574.042 90.3166Z" fill="#62718F" stroke="#F0F0F0" stroke-width="0.25"/>
<path d="M596.708 77.6594L574.17 64.7752L596.708 52.2421L596.708 77.6594Z" fill="#9CA5B8" stroke="#F0F0F0" stroke-width="0.25"/>
<path d="M550.944 77.8133L573.789 64.9861L573.789 90.3176L550.944 77.8133Z" fill="#25385C" stroke="#F0F0F0" stroke-width="0.25"/>
<path d="M480.16 39.5117L480.309 64.3268L457.775 51.9074L480.16 39.5117Z" fill="#CFE8E6" stroke="#F0F0F0" stroke-width="0.5"/>
<path d="M502.792 52.0634L480.896 64.2414L480.748 39.6594L502.792 52.0634Z" fill="#C7E4E2" stroke="#F0F0F0" stroke-width="0.5"/>
<path d="M457.629 52.5546L479.906 64.7772L457.758 77.1559L457.629 52.5546Z" fill="#E7F3F2" stroke="#F0F0F0" stroke-width="0.5"/>
<path d="M480.934 89.8201L480.934 65.3758L502.685 77.8099L480.934 89.8201Z" fill="#B7DCDA" stroke="#F0F0F0" stroke-width="0.5"/>
<path d="M503 77.2447L481.334 64.7794L503 52.6538L503 77.2447Z" fill="#DCEEED" stroke="#F0F0F0" stroke-width="0.5"/>
<path d="M458.332 77.7222L480.17 65.4601L480.17 89.6756L458.332 77.7222Z" fill="#99C2DF" stroke="#F0F0F0" stroke-width="0.5"/>
<path d="M433.212 116.398L433.365 141.892L410.216 129.133L433.212 116.398Z" fill="#62718F" stroke="#F0F0F0" stroke-width="0.25"/>
<path d="M456.325 129.263L433.619 141.892L433.465 116.4L456.325 129.263Z" fill="#394C71" stroke="#F0F0F0" stroke-width="0.25"/>
<path d="M410.085 129.344L433.236 142.104L410.219 155.026L410.085 129.344Z" fill="#B6BDCB" stroke="#F0F0F0" stroke-width="0.25"/>
<path d="M433.62 167.835L433.62 142.317L456.326 155.297L433.62 167.835Z" fill="#62718F" stroke="#F0F0F0" stroke-width="0.25"/>
<path d="M456.454 155.085L433.748 142.104L456.454 129.477L456.454 155.085Z" fill="#9CA5B8" stroke="#F0F0F0" stroke-width="0.25"/>
<path d="M410.351 155.238L433.366 142.315L433.366 167.836L410.351 155.238Z" fill="#25385C" stroke="#F0F0F0" stroke-width="0.25"/>
<path d="M386.033 116.652L386.184 141.656L363.479 129.142L386.033 116.652Z" fill="#F7CF7D" stroke="#F0F0F0" stroke-width="0.5"/>
<path d="M408.834 129.299L386.772 141.57L386.622 116.801L408.834 129.299Z" fill="#DF9611" stroke="#F0F0F0" stroke-width="0.5"/>
<path d="M363.333 129.791L385.779 142.106L363.463 154.579L363.333 129.791Z" fill="#FCECCB" stroke="#F0F0F0" stroke-width="0.5"/>
<path d="M386.81 167.337L386.81 142.706L408.726 155.235L386.81 167.337Z" fill="#F4B12E" stroke="#F0F0F0" stroke-width="0.5"/>
<path d="M409.042 154.669L387.211 142.109L409.042 129.891L409.042 154.669Z" fill="#F7CF7D" stroke="#F0F0F0" stroke-width="0.5"/>
<path d="M364.04 155.147L386.044 142.791L386.044 167.191L364.04 155.147Z" fill="#DF9611" stroke="#F0F0F0" stroke-width="0.5"/>
<path d="M291.866 116.652L292.017 141.656L269.312 129.142L291.866 116.652Z" fill="#CFE8E6" stroke="#F0F0F0" stroke-width="0.5"/>
<path d="M314.667 129.299L292.604 141.57L292.455 116.801L314.667 129.299Z" fill="#C7E4E2" stroke="#F0F0F0" stroke-width="0.5"/>
<path d="M269.166 129.791L291.612 142.106L269.296 154.579L269.166 129.791Z" fill="#E7F3F2" stroke="#F0F0F0" stroke-width="0.5"/>
<path d="M292.643 167.337L292.643 142.706L314.559 155.235L292.643 167.337Z" fill="#B7DCDA" stroke="#F0F0F0" stroke-width="0.5"/>
<path d="M314.874 154.669L293.044 142.109L314.874 129.891L314.874 154.669Z" fill="#DCEEED" stroke="#F0F0F0" stroke-width="0.5"/>
<path d="M269.873 155.147L291.877 142.791L291.877 167.191L269.873 155.147Z" fill="#99C2DF" stroke="#F0F0F0" stroke-width="0.5"/>
</g>
</g>
<defs>
<filter id="filter0_d_865_698" x="-25" y="-4" width="624.11" height="172.341" filterUnits="userSpaceOnUse" color-interpolation-filters="sRGB">
<feFlood flood-opacity="0" result="BackgroundImageFix"/>
<feColorMatrix in="SourceAlpha" type="matrix" values="0 0 0 0 0 0 0 0 0 0 0 0 0 0 0 0 0 0 127 0" result="hardAlpha"/>
<feOffset dy="-2"/>
<feGaussianBlur stdDeviation="1"/>
<feComposite in2="hardAlpha" operator="out"/>
<feColorMatrix type="matrix" values="0 0 0 0 0 0 0 0 0 0 0 0 0 0 0 0 0 0 0.3 0"/>
<feBlend mode="normal" in2="BackgroundImageFix" result="effect1_dropShadow_865_698"/>
<feBlend mode="normal" in="SourceGraphic" in2="effect1_dropShadow_865_698" result="shape"/>
</filter>
<clipPath id="clip0_865_698">
<rect width="575" height="144" fill="white"/>
</clipPath>
</defs>
</svg>
