<svg width="2560" height="763" viewBox="0 0 2560 763" fill="none" xmlns="http://www.w3.org/2000/svg">
<g filter="url(#filter0_d_1037_5587)">
<path d="M539.264 693.611L539.706 767.119L473.091 730.33L539.264 693.611Z" fill="#CFE8E6" stroke="#F0F0F0" stroke-width="0.5"/>
<path d="M605.196 730.783L540.444 766.87L540.006 694.027L605.196 730.783Z" fill="#C7E4E2" stroke="#F0F0F0" stroke-width="0.5"/>
<path d="M473.161 731.405L539.032 767.619L473.542 804.297L473.161 731.405Z" fill="#E7F3F2" stroke="#F0F0F0" stroke-width="0.5"/>
<path d="M540.549 840.993L540.549 768.545L604.883 805.397L540.549 840.993Z" fill="#B7DCDA" stroke="#F0F0F0" stroke-width="0.5"/>
<path d="M605.309 804.568L541.228 767.624L605.309 731.687L605.309 804.568Z" fill="#DCEEED" stroke="#F0F0F0" stroke-width="0.5"/>
<path d="M474.704 805.141L539.301 768.797L539.301 840.571L474.704 805.141Z" fill="#99C2DF" stroke="#F0F0F0" stroke-width="0.5"/>
<path d="M809.883 693.279L810.328 767.402L743.157 730.305L809.883 693.279Z" fill="#62718F" stroke="#F0F0F0" stroke-width="0.25"/>
<path d="M876.472 730.682L810.581 767.402L810.136 693.279L876.472 730.682Z" fill="#394C71" stroke="#F0F0F0" stroke-width="0.25"/>
<path d="M743.027 730.517L810.199 767.614L743.415 805.186L743.027 730.517Z" fill="#B6BDCB" stroke="#F0F0F0" stroke-width="0.25"/>
<path d="M810.583 842.028L810.583 767.828L876.472 805.571L810.583 842.028Z" fill="#62718F" stroke="#F0F0F0" stroke-width="0.25"/>
<path d="M876.6 805.359L810.71 767.615L876.6 730.899L876.6 805.359Z" fill="#9CA5B8" stroke="#F0F0F0" stroke-width="0.25"/>
<path d="M743.547 805.4L810.329 767.826L810.329 842.029L743.547 805.4Z" fill="#25385C" stroke="#F0F0F0" stroke-width="0.25"/>
<path d="M1080.38 693.611L1080.82 767.119L1014.21 730.33L1080.38 693.611Z" fill="#CFE8E6" stroke="#F0F0F0" stroke-width="0.5"/>
<path d="M1146.31 730.783L1081.56 766.87L1081.12 694.027L1146.31 730.783Z" fill="#C7E4E2" stroke="#F0F0F0" stroke-width="0.5"/>
<path d="M1014.28 731.405L1080.15 767.619L1014.66 804.297L1014.28 731.405Z" fill="#E7F3F2" stroke="#F0F0F0" stroke-width="0.5"/>
<path d="M1081.67 840.993L1081.67 768.545L1146 805.397L1081.67 840.993Z" fill="#B7DCDA" stroke="#F0F0F0" stroke-width="0.5"/>
<path d="M1146.43 804.568L1082.35 767.624L1146.43 731.687L1146.43 804.568Z" fill="#DCEEED" stroke="#F0F0F0" stroke-width="0.5"/>
<path d="M1015.82 805.141L1080.42 768.797L1080.42 840.571L1015.82 805.141Z" fill="#99C2DF" stroke="#F0F0F0" stroke-width="0.5"/>
<path d="M-1.73928 693.611L-1.29778 767.119L-67.9122 730.33L-1.73928 693.611Z" fill="#CFE8E6" stroke="#F0F0F0" stroke-width="0.5"/>
<path d="M64.1925 730.783L-0.559681 766.87L-0.997216 694.027L64.1925 730.783Z" fill="#C7E4E2" stroke="#F0F0F0" stroke-width="0.5"/>
<path d="M-0.454001 840.993L-0.454014 768.545L63.8798 805.397L-0.454001 840.993Z" fill="#B7DCDA" stroke="#F0F0F0" stroke-width="0.5"/>
<path d="M64.3053 804.568L0.224492 767.624L64.3053 731.687L64.3053 804.568Z" fill="#DCEEED" stroke="#F0F0F0" stroke-width="0.5"/>
<path d="M-66.2992 805.141L-1.70257 768.797L-1.70257 840.571L-66.2992 805.141Z" fill="#99C2DF" stroke="#F0F0F0" stroke-width="0.5"/>
<path d="M132.745 693.611L133.186 767.119L66.5717 730.33L132.745 693.611Z" fill="#78CCBA" stroke="#F0F0F0" stroke-width="0.5"/>
<path d="M198.676 730.783L133.924 766.87L133.487 694.027L198.676 730.783Z" fill="#40B79E" stroke="#F0F0F0" stroke-width="0.5"/>
<path d="M66.642 731.405L132.512 767.619L67.0228 804.297L66.642 731.405Z" fill="#AADFD4" stroke="#F0F0F0" stroke-width="0.5"/>
<path d="M134.03 840.993L134.03 768.545L198.364 805.397L134.03 840.993Z" fill="#40B79E" stroke="#F0F0F0" stroke-width="0.5"/>
<path d="M198.789 804.568L134.708 767.624L198.789 731.687L198.789 804.568Z" fill="#78CCBA" stroke="#F0F0F0" stroke-width="0.5"/>
<path d="M68.1847 805.141L132.781 768.797L132.781 840.571L68.1847 805.141Z" fill="#008066" stroke="#F0F0F0" stroke-width="0.5"/>
<path d="M268.146 693.611L268.587 767.119L201.973 730.33L268.146 693.611Z" fill="#F7CF7D" stroke="#F0F0F0" stroke-width="0.5"/>
<path d="M334.078 730.783L269.326 766.87L268.888 694.027L334.078 730.783Z" fill="#DF9611" stroke="#F0F0F0" stroke-width="0.5"/>
<path d="M202.043 731.405L267.913 767.619L202.424 804.297L202.043 731.405Z" fill="#FCECCB" stroke="#F0F0F0" stroke-width="0.5"/>
<path d="M269.431 840.993L269.431 768.545L333.765 805.397L269.431 840.993Z" fill="#F4B12E" stroke="#F0F0F0" stroke-width="0.5"/>
<path d="M334.191 804.568L270.11 767.624L334.191 731.687L334.191 804.568Z" fill="#F7CF7D" stroke="#F0F0F0" stroke-width="0.5"/>
<path d="M203.586 805.141L268.183 768.797L268.183 840.571L203.586 805.141Z" fill="#DF9611" stroke="#F0F0F0" stroke-width="0.5"/>
<path d="M674.489 693.611L674.931 767.119L608.316 730.33L674.489 693.611Z" fill="#CFE8E6" stroke="#F0F0F0" stroke-width="0.5"/>
<path d="M740.421 730.783L675.669 766.87L675.231 694.027L740.421 730.783Z" fill="#C7E4E2" stroke="#F0F0F0" stroke-width="0.5"/>
<path d="M608.387 731.405L674.257 767.619L608.767 804.297L608.387 731.405Z" fill="#E7F3F2" stroke="#F0F0F0" stroke-width="0.5"/>
<path d="M675.775 840.993L675.775 768.545L740.108 805.397L675.775 840.993Z" fill="#B7DCDA" stroke="#F0F0F0" stroke-width="0.5"/>
<path d="M740.534 804.568L676.453 767.624L740.534 731.687L740.534 804.568Z" fill="#DCEEED" stroke="#F0F0F0" stroke-width="0.5"/>
<path d="M609.929 805.141L674.526 768.797L674.526 840.571L609.929 805.141Z" fill="#99C2DF" stroke="#F0F0F0" stroke-width="0.5"/>
<path d="M945.157 693.611L945.598 767.119L878.984 730.33L945.157 693.611Z" fill="#E8AFAC" stroke="#F0F0F0" stroke-width="0.5"/>
<path d="M1011.09 730.783L946.336 766.87L945.899 694.027L1011.09 730.783Z" fill="#C34833" stroke="#F0F0F0" stroke-width="0.5"/>
<path d="M879.054 731.405L944.924 767.619L879.435 804.297L879.054 731.405Z" fill="#F1CCCB" stroke="#F0F0F0" stroke-width="0.5"/>
<path d="M946.442 840.993L946.442 768.545L1010.78 805.397L946.442 840.993Z" fill="#D36D63" stroke="#F0F0F0" stroke-width="0.5"/>
<path d="M1011.2 804.568L947.12 767.624L1011.2 731.687L1011.2 804.568Z" fill="#DF908B" stroke="#F0F0F0" stroke-width="0.5"/>
<path d="M880.597 805.141L945.193 768.797L945.193 840.571L880.597 805.141Z" fill="#AC3619" stroke="#F0F0F0" stroke-width="0.5"/>
<path d="M1889.85 693.611L1890.29 767.119L1823.68 730.33L1889.85 693.611Z" fill="#E8AFAC" stroke="#F0F0F0" stroke-width="0.5"/>
<path d="M1955.78 730.783L1891.03 766.87L1890.59 694.027L1955.78 730.783Z" fill="#C34833" stroke="#F0F0F0" stroke-width="0.5"/>
<path d="M1823.75 731.405L1889.62 767.619L1824.13 804.297L1823.75 731.405Z" fill="#F1CCCB" stroke="#F0F0F0" stroke-width="0.5"/>
<path d="M1891.14 840.993L1891.14 768.545L1955.47 805.397L1891.14 840.993Z" fill="#D36D63" stroke="#F0F0F0" stroke-width="0.5"/>
<path d="M1955.9 804.568L1891.82 767.624L1955.9 731.687L1955.9 804.568Z" fill="#DF908B" stroke="#F0F0F0" stroke-width="0.5"/>
<path d="M1825.29 805.141L1889.89 768.797L1889.89 840.571L1825.29 805.141Z" fill="#AC3619" stroke="#F0F0F0" stroke-width="0.5"/>
<path d="M1619.26 693.611L1619.71 767.119L1553.09 730.33L1619.26 693.611Z" fill="#F7CF7D" stroke="#F0F0F0" stroke-width="0.5"/>
<path d="M1685.2 730.783L1620.44 766.87L1620.01 694.027L1685.2 730.783Z" fill="#DF9611" stroke="#F0F0F0" stroke-width="0.5"/>
<path d="M1553.16 731.405L1619.03 767.619L1553.54 804.297L1553.16 731.405Z" fill="#FCECCB" stroke="#F0F0F0" stroke-width="0.5"/>
<path d="M1620.55 840.993L1620.55 768.545L1684.88 805.397L1620.55 840.993Z" fill="#F4B12E" stroke="#F0F0F0" stroke-width="0.5"/>
<path d="M1685.31 804.568L1621.23 767.624L1685.31 731.687L1685.31 804.568Z" fill="#F7CF7D" stroke="#F0F0F0" stroke-width="0.5"/>
<path d="M1554.7 805.141L1619.3 768.797L1619.3 840.571L1554.7 805.141Z" fill="#DF9611" stroke="#F0F0F0" stroke-width="0.5"/>
<path d="M1754.49 693.611L1754.93 767.119L1688.32 730.33L1754.49 693.611Z" fill="#CFE8E6" stroke="#F0F0F0" stroke-width="0.5"/>
<path d="M1820.42 730.783L1755.67 766.87L1755.23 694.027L1820.42 730.783Z" fill="#C7E4E2" stroke="#F0F0F0" stroke-width="0.5"/>
<path d="M1688.39 731.405L1754.26 767.619L1688.77 804.297L1688.39 731.405Z" fill="#E7F3F2" stroke="#F0F0F0" stroke-width="0.5"/>
<path d="M1755.77 840.993L1755.77 768.545L1820.11 805.397L1755.77 840.993Z" fill="#B7DCDA" stroke="#F0F0F0" stroke-width="0.5"/>
<path d="M1820.53 804.568L1756.45 767.624L1820.53 731.687L1820.53 804.568Z" fill="#DCEEED" stroke="#F0F0F0" stroke-width="0.5"/>
<path d="M1689.93 805.141L1754.53 768.797L1754.53 840.571L1689.93 805.141Z" fill="#99C2DF" stroke="#F0F0F0" stroke-width="0.5"/>
<path d="M2426.96 693.611L2427.4 767.119L2360.79 730.33L2426.96 693.611Z" fill="#78CCBA" stroke="#F0F0F0" stroke-width="0.5"/>
<path d="M2492.89 730.783L2428.14 766.87L2427.7 694.027L2492.89 730.783Z" fill="#40B79E" stroke="#F0F0F0" stroke-width="0.5"/>
<path d="M2360.86 731.405L2426.73 767.619L2361.24 804.297L2360.86 731.405Z" fill="#AADFD4" stroke="#F0F0F0" stroke-width="0.5"/>
<path d="M2428.25 840.993L2428.25 768.545L2492.58 805.397L2428.25 840.993Z" fill="#40B79E" stroke="#F0F0F0" stroke-width="0.5"/>
<path d="M2493.01 804.568L2428.93 767.624L2493.01 731.687L2493.01 804.568Z" fill="#78CCBA" stroke="#F0F0F0" stroke-width="0.5"/>
<path d="M2362.4 805.141L2427 768.797L2427 840.571L2362.4 805.141Z" fill="#008066" stroke="#F0F0F0" stroke-width="0.5"/>
<path d="M2562.19 693.611L2562.63 767.119L2496.02 730.33L2562.19 693.611Z" fill="#CFE8E6" stroke="#F0F0F0" stroke-width="0.5"/>
<path d="M2628.12 730.783L2563.37 766.87L2562.93 694.027L2628.12 730.783Z" fill="#C7E4E2" stroke="#F0F0F0" stroke-width="0.5"/>
<path d="M2496.09 731.405L2561.96 767.619L2496.47 804.297L2496.09 731.405Z" fill="#E7F3F2" stroke="#F0F0F0" stroke-width="0.5"/>
<path d="M2563.47 840.993L2563.47 768.545L2627.81 805.397L2563.47 840.993Z" fill="#B7DCDA" stroke="#F0F0F0" stroke-width="0.5"/>
<path d="M2497.63 805.141L2562.22 768.797L2562.22 840.571L2497.63 805.141Z" fill="#99C2DF" stroke="#F0F0F0" stroke-width="0.5"/>
<path d="M66.2915 580.422L66.733 653.93L0.118594 617.141L66.2915 580.422Z" fill="#E8AFAC" stroke="#F0F0F0" stroke-width="0.5"/>
<path d="M132.223 617.594L67.4711 653.681L67.0335 580.838L132.223 617.594Z" fill="#C34833" stroke="#F0F0F0" stroke-width="0.5"/>
<path d="M0.188835 618.216L66.059 654.431L0.56963 691.108L0.188835 618.216Z" fill="#F1CCCB" stroke="#F0F0F0" stroke-width="0.5"/>
<path d="M67.5768 727.804L67.5767 655.356L131.911 692.208L67.5768 727.804Z" fill="#D36D63" stroke="#F0F0F0" stroke-width="0.5"/>
<path d="M132.336 691.379L68.2553 654.435L132.336 618.498L132.336 691.379Z" fill="#DF908B" stroke="#F0F0F0" stroke-width="0.5"/>
<path d="M1.73158 691.952L66.3282 655.608L66.3282 727.382L1.73158 691.952Z" fill="#AC3619" stroke="#F0F0F0" stroke-width="0.5"/>
<path d="M200.951 580.404L201.393 653.912L134.778 617.123L200.951 580.404Z" fill="#CFE8E6" stroke="#F0F0F0" stroke-width="0.5"/>
<path d="M266.883 617.577L202.131 653.663L201.693 580.82L266.883 617.577Z" fill="#C7E4E2" stroke="#F0F0F0" stroke-width="0.5"/>
<path d="M134.849 618.198L200.719 654.413L135.229 691.09L134.849 618.198Z" fill="#E7F3F2" stroke="#F0F0F0" stroke-width="0.5"/>
<path d="M202.236 727.786L202.236 655.338L266.57 692.19L202.236 727.786Z" fill="#B7DCDA" stroke="#F0F0F0" stroke-width="0.5"/>
<path d="M266.996 691.361L202.915 654.417L266.996 618.48L266.996 691.361Z" fill="#DCEEED" stroke="#F0F0F0" stroke-width="0.5"/>
<path d="M136.391 691.934L200.988 655.59L200.988 727.364L136.391 691.934Z" fill="#99C2DF" stroke="#F0F0F0" stroke-width="0.5"/>
<path d="M743.844 580.404L744.285 653.912L677.671 617.123L743.844 580.404Z" fill="#CFE8E6" stroke="#F0F0F0" stroke-width="0.5"/>
<path d="M809.776 617.577L745.023 653.663L744.586 580.82L809.776 617.577Z" fill="#C7E4E2" stroke="#F0F0F0" stroke-width="0.5"/>
<path d="M677.741 618.198L743.611 654.413L678.122 691.09L677.741 618.198Z" fill="#E7F3F2" stroke="#F0F0F0" stroke-width="0.5"/>
<path d="M745.129 727.786L745.129 655.338L809.463 692.19L745.129 727.786Z" fill="#B7DCDA" stroke="#F0F0F0" stroke-width="0.5"/>
<path d="M809.888 691.361L745.807 654.417L809.888 618.48L809.888 691.361Z" fill="#DCEEED" stroke="#F0F0F0" stroke-width="0.5"/>
<path d="M679.284 691.934L743.88 655.59L743.88 727.364L679.284 691.934Z" fill="#99C2DF" stroke="#F0F0F0" stroke-width="0.5"/>
<path d="M1687.26 580.987L1687.71 654.496L1621.09 617.706L1687.26 580.987Z" fill="#78CCBA" stroke="#F0F0F0" stroke-width="0.5"/>
<path d="M1753.2 618.16L1688.44 654.247L1688.01 581.403L1753.2 618.16Z" fill="#40B79E" stroke="#F0F0F0" stroke-width="0.5"/>
<path d="M1621.16 618.782L1687.03 654.996L1621.54 691.674L1621.16 618.782Z" fill="#AADFD4" stroke="#F0F0F0" stroke-width="0.5"/>
<path d="M1688.55 728.37L1688.55 655.922L1752.88 692.774L1688.55 728.37Z" fill="#40B79E" stroke="#F0F0F0" stroke-width="0.5"/>
<path d="M1753.31 691.945L1689.23 655.001L1753.31 619.063L1753.31 691.945Z" fill="#78CCBA" stroke="#F0F0F0" stroke-width="0.5"/>
<path d="M1622.7 692.518L1687.3 656.173L1687.3 727.947L1622.7 692.518Z" fill="#008066" stroke="#F0F0F0" stroke-width="0.5"/>
<path d="M2494.99 580.41L2495.43 653.918L2428.82 617.129L2494.99 580.41Z" fill="#CFE8E6" stroke="#F0F0F0" stroke-width="0.5"/>
<path d="M2560.92 617.582L2496.17 653.669L2495.73 580.825L2560.92 617.582Z" fill="#C7E4E2" stroke="#F0F0F0" stroke-width="0.5"/>
<path d="M2428.89 618.204L2494.76 654.419L2429.27 691.096L2428.89 618.204Z" fill="#E7F3F2" stroke="#F0F0F0" stroke-width="0.5"/>
<path d="M2496.28 727.792L2496.28 655.344L2560.61 692.196L2496.28 727.792Z" fill="#B7DCDA" stroke="#F0F0F0" stroke-width="0.5"/>
<path d="M2561.04 691.367L2496.96 654.423L2561.04 618.486L2561.04 691.367Z" fill="#DCEEED" stroke="#F0F0F0" stroke-width="0.5"/>
<path d="M2430.43 691.94L2495.03 655.595L2495.03 727.369L2430.43 691.94Z" fill="#99C2DF" stroke="#F0F0F0" stroke-width="0.5"/>
<path d="M-2.73587 467.841L-2.29436 541.35L-68.9088 504.56L-2.73587 467.841Z" fill="#CFE8E6" stroke="#F0F0F0" stroke-width="0.5"/>
<path d="M63.1959 505.014L-1.55626 541.101L-1.9938 468.257L63.1959 505.014Z" fill="#C7E4E2" stroke="#F0F0F0" stroke-width="0.5"/>
<path d="M-1.45058 615.223L-1.4506 542.775L62.8832 579.628L-1.45058 615.223Z" fill="#B7DCDA" stroke="#F0F0F0" stroke-width="0.5"/>
<path d="M63.3088 578.799L-0.77209 541.855L63.3088 505.917L63.3088 578.799Z" fill="#DCEEED" stroke="#F0F0F0" stroke-width="0.5"/>
<path d="M-67.2958 579.372L-2.69915 543.027L-2.69915 614.801L-67.2958 579.372Z" fill="#99C2DF" stroke="#F0F0F0" stroke-width="0.5"/>
<path d="M404.264 448.633L404.706 522.141L338.091 485.352L404.264 448.633Z" fill="#78CCBA" stroke="#F0F0F0" stroke-width="0.5"/>
<path d="M470.196 485.805L405.444 521.892L405.006 449.049L470.196 485.805Z" fill="#40B79E" stroke="#F0F0F0" stroke-width="0.5"/>
<path d="M338.161 486.427L404.032 522.642L338.542 559.319L338.161 486.427Z" fill="#AADFD4" stroke="#F0F0F0" stroke-width="0.5"/>
<path d="M405.549 596.015L405.549 523.567L469.883 560.419L405.549 596.015Z" fill="#40B79E" stroke="#F0F0F0" stroke-width="0.5"/>
<path d="M470.309 559.59L406.228 522.646L470.309 486.709L470.309 559.59Z" fill="#78CCBA" stroke="#F0F0F0" stroke-width="0.5"/>
<path d="M339.704 560.163L404.301 523.819L404.301 595.593L339.704 560.163Z" fill="#008066" stroke="#F0F0F0" stroke-width="0.5"/>
<path d="M132.339 467.841L132.781 541.35L66.1664 504.56L132.339 467.841Z" fill="#CFE8E6" stroke="#F0F0F0" stroke-width="0.5"/>
<path d="M198.271 505.014L133.519 541.101L133.081 468.257L198.271 505.014Z" fill="#C7E4E2" stroke="#F0F0F0" stroke-width="0.5"/>
<path d="M66.2367 505.636L132.107 541.85L66.6175 578.527L66.2367 505.636Z" fill="#E7F3F2" stroke="#F0F0F0" stroke-width="0.5"/>
<path d="M133.625 615.223L133.625 542.775L197.958 579.628L133.625 615.223Z" fill="#B7DCDA" stroke="#F0F0F0" stroke-width="0.5"/>
<path d="M198.384 578.799L134.303 541.855L198.384 505.917L198.384 578.799Z" fill="#DCEEED" stroke="#F0F0F0" stroke-width="0.5"/>
<path d="M67.7794 579.372L132.376 543.027L132.376 614.801L67.7794 579.372Z" fill="#99C2DF" stroke="#F0F0F0" stroke-width="0.5"/>
<path d="M2561.19 467.833L2561.63 541.342L2495.02 504.552L2561.19 467.833Z" fill="#CFE8E6" stroke="#F0F0F0" stroke-width="0.5"/>
<path d="M2627.12 505.006L2562.37 541.093L2561.93 468.249L2627.12 505.006Z" fill="#C7E4E2" stroke="#F0F0F0" stroke-width="0.5"/>
<path d="M2495.09 505.628L2560.96 541.842L2495.47 578.52L2495.09 505.628Z" fill="#E7F3F2" stroke="#F0F0F0" stroke-width="0.5"/>
<path d="M2562.48 615.216L2562.48 542.768L2626.81 579.62L2562.48 615.216Z" fill="#B7DCDA" stroke="#F0F0F0" stroke-width="0.5"/>
<path d="M2496.63 579.364L2561.23 543.019L2561.23 614.793L2496.63 579.364Z" fill="#99C2DF" stroke="#F0F0F0" stroke-width="0.5"/>
<path d="M2428.26 467.833L2428.71 541.342L2362.09 504.552L2428.26 467.833Z" fill="#CFE8E6" stroke="#F0F0F0" stroke-width="0.5"/>
<path d="M2494.2 505.006L2429.44 541.093L2429.01 468.249L2494.2 505.006Z" fill="#C7E4E2" stroke="#F0F0F0" stroke-width="0.5"/>
<path d="M2362.16 505.628L2428.03 541.842L2362.54 578.52L2362.16 505.628Z" fill="#E7F3F2" stroke="#F0F0F0" stroke-width="0.5"/>
<path d="M2429.55 615.216L2429.55 542.768L2493.88 579.62L2429.55 615.216Z" fill="#B7DCDA" stroke="#F0F0F0" stroke-width="0.5"/>
<path d="M2494.31 578.791L2430.23 541.847L2494.31 505.909L2494.31 578.791Z" fill="#DCEEED" stroke="#F0F0F0" stroke-width="0.5"/>
<path d="M2363.7 579.364L2428.3 543.019L2428.3 614.793L2363.7 579.364Z" fill="#99C2DF" stroke="#F0F0F0" stroke-width="0.5"/>
<path d="M2157.26 467.833L2157.71 541.342L2091.09 504.552L2157.26 467.833Z" fill="#F7CF7D" stroke="#F0F0F0" stroke-width="0.5"/>
<path d="M2223.2 505.006L2158.44 541.093L2158.01 468.249L2223.2 505.006Z" fill="#DF9611" stroke="#F0F0F0" stroke-width="0.5"/>
<path d="M2091.16 505.628L2157.03 541.842L2091.54 578.52L2091.16 505.628Z" fill="#FCECCB" stroke="#F0F0F0" stroke-width="0.5"/>
<path d="M2158.55 615.216L2158.55 542.768L2222.88 579.62L2158.55 615.216Z" fill="#F4B12E" stroke="#F0F0F0" stroke-width="0.5"/>
<path d="M2223.31 578.791L2159.23 541.847L2223.31 505.909L2223.31 578.791Z" fill="#F7CF7D" stroke="#F0F0F0" stroke-width="0.5"/>
<path d="M2092.7 579.364L2157.3 543.019L2157.3 614.793L2092.7 579.364Z" fill="#DF9611" stroke="#F0F0F0" stroke-width="0.5"/>
<path d="M61.4199 355.247L61.8614 428.755L-4.75299 391.966L61.4199 355.247Z" fill="#CFE8E6" stroke="#F0F0F0" stroke-width="0.5"/>
<path d="M127.352 392.419L62.5995 428.506L62.162 355.663L127.352 392.419Z" fill="#C7E4E2" stroke="#F0F0F0" stroke-width="0.5"/>
<path d="M-4.68275 393.041L61.1874 429.256L-4.30195 465.933L-4.68275 393.041Z" fill="#E7F3F2" stroke="#F0F0F0" stroke-width="0.5"/>
<path d="M62.7052 502.629L62.7052 430.181L127.039 467.033L62.7052 502.629Z" fill="#B7DCDA" stroke="#F0F0F0" stroke-width="0.5"/>
<path d="M127.465 466.204L63.3837 429.26L127.465 393.323L127.465 466.204Z" fill="#DCEEED" stroke="#F0F0F0" stroke-width="0.5"/>
<path d="M-3.14 466.777L61.4566 430.433L61.4566 502.207L-3.14 466.777Z" fill="#99C2DF" stroke="#F0F0F0" stroke-width="0.5"/>
<path d="M2291.26 242.611L2291.71 316.119L2225.09 279.33L2291.26 242.611Z" fill="#CFE8E6" stroke="#F0F0F0" stroke-width="0.5"/>
<path d="M2357.2 279.783L2292.44 315.87L2292.01 243.027L2357.2 279.783Z" fill="#C7E4E2" stroke="#F0F0F0" stroke-width="0.5"/>
<path d="M2225.16 280.405L2291.03 316.62L2225.54 353.297L2225.16 280.405Z" fill="#E7F3F2" stroke="#F0F0F0" stroke-width="0.5"/>
<path d="M2292.55 389.993L2292.55 317.545L2356.88 354.397L2292.55 389.993Z" fill="#B7DCDA" stroke="#F0F0F0" stroke-width="0.5"/>
<path d="M2357.31 353.568L2293.23 316.624L2357.31 280.687L2357.31 353.568Z" fill="#DCEEED" stroke="#F0F0F0" stroke-width="0.5"/>
<path d="M2226.7 354.141L2291.3 317.797L2291.3 389.571L2226.7 354.141Z" fill="#99C2DF" stroke="#F0F0F0" stroke-width="0.5"/>
<path d="M198.106 355.239L198.547 428.747L131.933 391.958L198.106 355.239Z" fill="#CFE8E6" stroke="#F0F0F0" stroke-width="0.5"/>
<path d="M264.038 392.412L199.286 428.498L198.848 355.655L264.038 392.412Z" fill="#C7E4E2" stroke="#F0F0F0" stroke-width="0.5"/>
<path d="M132.003 393.033L197.873 429.248L132.384 465.925L132.003 393.033Z" fill="#E7F3F2" stroke="#F0F0F0" stroke-width="0.5"/>
<path d="M199.391 502.621L199.391 430.173L263.725 467.025L199.391 502.621Z" fill="#B7DCDA" stroke="#F0F0F0" stroke-width="0.5"/>
<path d="M264.151 466.196L200.07 429.252L264.151 393.315L264.151 466.196Z" fill="#DCEEED" stroke="#F0F0F0" stroke-width="0.5"/>
<path d="M133.546 466.769L198.143 430.425L198.143 502.199L133.546 466.769Z" fill="#99C2DF" stroke="#F0F0F0" stroke-width="0.5"/>
<path d="M2491.26 355.239L2491.71 428.747L2425.09 391.958L2491.26 355.239Z" fill="#CFE8E6" stroke="#F0F0F0" stroke-width="0.5"/>
<path d="M2557.2 392.412L2492.44 428.498L2492.01 355.655L2557.2 392.412Z" fill="#C7E4E2" stroke="#F0F0F0" stroke-width="0.5"/>
<path d="M2425.16 393.033L2491.03 429.248L2425.54 465.925L2425.16 393.033Z" fill="#E7F3F2" stroke="#F0F0F0" stroke-width="0.5"/>
<path d="M2492.55 502.621L2492.55 430.173L2556.88 467.025L2492.55 502.621Z" fill="#B7DCDA" stroke="#F0F0F0" stroke-width="0.5"/>
<path d="M2557.31 466.196L2493.23 429.252L2557.31 393.315L2557.31 466.196Z" fill="#DCEEED" stroke="#F0F0F0" stroke-width="0.5"/>
<path d="M2426.7 466.769L2491.3 430.425L2491.3 502.199L2426.7 466.769Z" fill="#99C2DF" stroke="#F0F0F0" stroke-width="0.5"/>
<path d="M-0.601633 242.343L-0.156434 316.466L-67.3277 279.369L-0.601633 242.343Z" fill="#62718F" stroke="#F0F0F0" stroke-width="0.25"/>
<path d="M65.9871 279.745L0.0970015 316.466L-0.348208 242.342L65.9871 279.745Z" fill="#394C71" stroke="#F0F0F0" stroke-width="0.25"/>
<path d="M0.0981425 391.092L0.0981276 316.892L65.9879 354.635L0.0981425 391.092Z" fill="#62718F" stroke="#F0F0F0" stroke-width="0.25"/>
<path d="M66.116 354.422L0.225787 316.679L66.116 279.963L66.116 354.422Z" fill="#9CA5B8" stroke="#F0F0F0" stroke-width="0.25"/>
<path d="M-66.9379 354.464L-0.155168 316.89L-0.155166 391.093L-66.9379 354.464Z" fill="#25385C" stroke="#F0F0F0" stroke-width="0.25"/>
<path d="M-0.770046 17.6107L-0.328538 91.1191L-66.9429 54.3298L-0.770046 17.6107Z" fill="#F7CF7D" stroke="#F0F0F0" stroke-width="0.5"/>
<path d="M65.1617 54.7834L0.409558 90.8701L-0.027978 18.0267L65.1617 54.7834Z" fill="#DF9611" stroke="#F0F0F0" stroke-width="0.5"/>
<path d="M0.515237 164.993L0.515224 92.5449L64.8491 129.397L0.515237 164.993Z" fill="#F4B12E" stroke="#F0F0F0" stroke-width="0.5"/>
<path d="M65.2746 128.568L1.19373 91.6243L65.2746 55.6868L65.2746 128.568Z" fill="#F7CF7D" stroke="#F0F0F0" stroke-width="0.5"/>
<path d="M-65.3299 129.141L-0.733331 92.7966L-0.733327 164.571L-65.3299 129.141Z" fill="#DF9611" stroke="#F0F0F0" stroke-width="0.5"/>
<path d="M2559.1 242.334L2559.54 316.457L2492.37 279.36L2559.1 242.334Z" fill="#62718F" stroke="#F0F0F0" stroke-width="0.25"/>
<path d="M2625.68 279.737L2559.79 316.457L2559.35 242.334L2625.68 279.737Z" fill="#394C71" stroke="#F0F0F0" stroke-width="0.25"/>
<path d="M2492.24 279.572L2559.41 316.669L2492.63 354.241L2492.24 279.572Z" fill="#B6BDCB" stroke="#F0F0F0" stroke-width="0.25"/>
<path d="M2559.79 391.083L2559.79 316.883L2625.68 354.627L2559.79 391.083Z" fill="#62718F" stroke="#F0F0F0" stroke-width="0.25"/>
<path d="M2625.81 354.414L2559.92 316.67L2625.81 279.955L2625.81 354.414Z" fill="#9CA5B8" stroke="#F0F0F0" stroke-width="0.25"/>
<path d="M2492.76 354.455L2559.54 316.881L2559.54 391.084L2492.76 354.455Z" fill="#25385C" stroke="#F0F0F0" stroke-width="0.25"/>
<path d="M2291.43 693.279L2291.88 767.402L2224.71 730.305L2291.43 693.279Z" fill="#62718F" stroke="#F0F0F0" stroke-width="0.25"/>
<path d="M2358.02 730.682L2292.13 767.402L2291.69 693.279L2358.02 730.682Z" fill="#394C71" stroke="#F0F0F0" stroke-width="0.25"/>
<path d="M2224.58 730.517L2291.75 767.614L2224.96 805.186L2224.58 730.517Z" fill="#B6BDCB" stroke="#F0F0F0" stroke-width="0.25"/>
<path d="M2292.13 842.028L2292.13 767.828L2358.02 805.571L2292.13 842.028Z" fill="#62718F" stroke="#F0F0F0" stroke-width="0.25"/>
<path d="M2358.15 805.359L2292.26 767.615L2358.15 730.899L2358.15 805.359Z" fill="#9CA5B8" stroke="#F0F0F0" stroke-width="0.25"/>
<path d="M2225.1 805.4L2291.88 767.826L2291.88 842.029L2225.1 805.4Z" fill="#25385C" stroke="#F0F0F0" stroke-width="0.25"/>
<path d="M2491.6 130.243L2492.04 203.752L2425.42 166.963L2491.6 130.243Z" fill="#E8AFAC" stroke="#F0F0F0" stroke-width="0.5"/>
<path d="M2557.53 167.416L2492.78 203.503L2492.34 130.659L2557.53 167.416Z" fill="#C34833" stroke="#F0F0F0" stroke-width="0.5"/>
<path d="M2425.49 168.038L2491.36 204.253L2425.87 240.93L2425.49 168.038Z" fill="#F1CCCB" stroke="#F0F0F0" stroke-width="0.5"/>
<path d="M2492.88 277.626L2492.88 205.178L2557.22 242.03L2492.88 277.626Z" fill="#D36D63" stroke="#F0F0F0" stroke-width="0.5"/>
<path d="M2557.64 241.201L2493.56 204.257L2557.64 168.32L2557.64 241.201Z" fill="#DF908B" stroke="#F0F0F0" stroke-width="0.5"/>
<path d="M2427.04 241.774L2491.63 205.429L2491.63 277.203L2427.04 241.774Z" fill="#AC3619" stroke="#F0F0F0" stroke-width="0.5"/>
<path d="M2558.93 16.8555L2559.37 90.3639L2492.75 53.5746L2558.93 16.8555Z" fill="#CFE8E6" stroke="#F0F0F0" stroke-width="0.5"/>
<path d="M2624.86 54.0283L2560.11 90.1149L2559.67 17.2715L2624.86 54.0283Z" fill="#C7E4E2" stroke="#F0F0F0" stroke-width="0.5"/>
<path d="M2492.82 54.65L2558.69 90.8646L2493.2 127.542L2492.82 54.65Z" fill="#E7F3F2" stroke="#F0F0F0" stroke-width="0.5"/>
<path d="M2560.21 164.238L2560.21 91.7898L2624.55 128.642L2560.21 164.238Z" fill="#B7DCDA" stroke="#F0F0F0" stroke-width="0.5"/>
<path d="M2494.37 128.386L2558.96 92.0415L2558.96 163.816L2494.37 128.386Z" fill="#99C2DF" stroke="#F0F0F0" stroke-width="0.5"/>
<path d="M200.951 111.611L201.393 185.119L134.778 148.33L200.951 111.611Z" fill="#CFE8E6" stroke="#F0F0F0" stroke-width="0.5"/>
<path d="M266.883 148.783L202.131 184.87L201.693 112.027L266.883 148.783Z" fill="#C7E4E2" stroke="#F0F0F0" stroke-width="0.5"/>
<path d="M134.849 149.405L200.719 185.62L135.229 222.297L134.849 149.405Z" fill="#E7F3F2" stroke="#F0F0F0" stroke-width="0.5"/>
<path d="M202.236 258.993L202.236 186.545L266.57 223.397L202.236 258.993Z" fill="#B7DCDA" stroke="#F0F0F0" stroke-width="0.5"/>
<path d="M266.996 222.568L202.915 185.624L266.996 149.687L266.996 222.568Z" fill="#DCEEED" stroke="#F0F0F0" stroke-width="0.5"/>
<path d="M136.391 223.141L200.988 186.797L200.988 258.571L136.391 223.141Z" fill="#99C2DF" stroke="#F0F0F0" stroke-width="0.5"/>
</g>
<defs>
<filter id="filter0_d_1037_5587" x="-78" y="0.244873" width="2716" height="842.84" filterUnits="userSpaceOnUse" color-interpolation-filters="sRGB">
<feFlood flood-opacity="0" result="BackgroundImageFix"/>
<feColorMatrix in="SourceAlpha" type="matrix" values="0 0 0 0 0 0 0 0 0 0 0 0 0 0 0 0 0 0 127 0" result="hardAlpha"/>
<feOffset dy="-8"/>
<feGaussianBlur stdDeviation="4"/>
<feComposite in2="hardAlpha" operator="out"/>
<feColorMatrix type="matrix" values="0 0 0 0 0 0 0 0 0 0 0 0 0 0 0 0 0 0 0.3 0"/>
<feBlend mode="normal" in2="BackgroundImageFix" result="effect1_dropShadow_1037_5587"/>
<feBlend mode="normal" in="SourceGraphic" in2="effect1_dropShadow_1037_5587" result="shape"/>
</filter>
</defs>
</svg>
