<svg width="575" height="222" viewBox="0 0 575 222" fill="none" xmlns="http://www.w3.org/2000/svg">
<g clip-path="url(#clip0_865_617)">
<g filter="url(#filter0_d_865_617)">
<path d="M20.7352 -24.5801L20.8794 -0.572356L-0.876758 -12.5877L20.7352 -24.5801Z" fill="#62718F" stroke="#F0F0F0" stroke-width="0.25"/>
<path d="M42.4725 -12.4646L21.1329 -0.571908L20.9887 -24.5781L42.4725 -12.4646Z" fill="#394C71" stroke="#F0F0F0" stroke-width="0.25"/>
<path d="M-1.00681 -12.376L20.7507 -0.359917L-0.881034 11.8097L-1.00681 -12.376Z" fill="#B6BDCB" stroke="#F0F0F0" stroke-width="0.25"/>
<path d="M21.1342 23.8843L21.1342 -0.146316L42.4734 12.0774L21.1342 23.8843Z" fill="#62718F" stroke="#F0F0F0" stroke-width="0.25"/>
<path d="M42.6013 11.8646L21.2615 -0.359425L42.6013 -12.2504L42.6013 11.8646Z" fill="#9CA5B8" stroke="#F0F0F0" stroke-width="0.25"/>
<path d="M-0.74947 12.0217L20.8807 -0.148245L20.8807 23.8853L-0.74947 12.0217Z" fill="#25385C" stroke="#F0F0F0" stroke-width="0.25"/>
<path d="M20.967 49.5465L21.1083 73.0679L-0.207121 61.296L20.967 49.5465Z" fill="#CFE8E6" stroke="#F0F0F0" stroke-width="0.5"/>
<path d="M42.4027 61.4441L21.6909 72.9868L21.551 49.6871L42.4027 61.4441Z" fill="#C7E4E2" stroke="#F0F0F0" stroke-width="0.5"/>
<path d="M-0.359026 61.9324L20.7131 73.5176L-0.23721 85.2507L-0.359026 61.9324Z" fill="#E7F3F2" stroke="#F0F0F0" stroke-width="0.5"/>
<path d="M21.7274 97.2771L21.7274 74.108L42.3015 85.8934L21.7274 97.2771Z" fill="#B7DCDA" stroke="#F0F0F0" stroke-width="0.5"/>
<path d="M42.6128 85.3347L22.1192 73.5197L42.6128 62.0266L42.6128 85.3347Z" fill="#DCEEED" stroke="#F0F0F0" stroke-width="0.5"/>
<path d="M0.32049 85.8102L20.9773 74.1879L20.9773 97.1399L0.32049 85.8102Z" fill="#99C2DF" stroke="#F0F0F0" stroke-width="0.5"/>
<path d="M21.7096 123.422L21.8509 146.943L0.535425 135.171L21.7096 123.422Z" fill="#F7CF7D" stroke="#F0F0F0" stroke-width="0.5"/>
<path d="M43.1452 135.319L22.4335 146.862L22.2935 123.562L43.1452 135.319Z" fill="#DF9611" stroke="#F0F0F0" stroke-width="0.5"/>
<path d="M0.38352 135.807L21.4556 147.393L0.505336 159.126L0.38352 135.807Z" fill="#FCECCB" stroke="#F0F0F0" stroke-width="0.5"/>
<path d="M22.4699 171.152L22.4699 147.983L43.044 159.768L22.4699 171.152Z" fill="#F4B12E" stroke="#F0F0F0" stroke-width="0.5"/>
<path d="M43.3553 159.21L22.8618 147.395L43.3553 135.902L43.3553 159.21Z" fill="#F7CF7D" stroke="#F0F0F0" stroke-width="0.5"/>
<path d="M1.06304 159.685L21.7198 148.063L21.7198 171.015L1.06304 159.685Z" fill="#DF9611" stroke="#F0F0F0" stroke-width="0.5"/>
<path d="M109.876 123.422L110.018 146.943L88.7021 135.171L109.876 123.422Z" fill="#CFE8E6" stroke="#F0F0F0" stroke-width="0.5"/>
<path d="M131.312 135.319L110.6 146.862L110.46 123.562L131.312 135.319Z" fill="#C7E4E2" stroke="#F0F0F0" stroke-width="0.5"/>
<path d="M88.5502 135.807L109.622 147.393L88.672 159.126L88.5502 135.807Z" fill="#E7F3F2" stroke="#F0F0F0" stroke-width="0.5"/>
<path d="M110.637 171.152L110.637 147.983L131.211 159.768L110.637 171.152Z" fill="#B7DCDA" stroke="#F0F0F0" stroke-width="0.5"/>
<path d="M131.522 159.21L111.028 147.395L131.522 135.902L131.522 159.21Z" fill="#DCEEED" stroke="#F0F0F0" stroke-width="0.5"/>
<path d="M89.2297 159.685L109.886 148.063L109.886 171.015L89.2297 159.685Z" fill="#99C2DF" stroke="#F0F0F0" stroke-width="0.5"/>
<path d="M463.876 123.422L464.018 146.943L442.702 135.171L463.876 123.422Z" fill="#CFE8E6" stroke="#F0F0F0" stroke-width="0.5"/>
<path d="M485.312 135.319L464.6 146.862L464.46 123.562L485.312 135.319Z" fill="#C7E4E2" stroke="#F0F0F0" stroke-width="0.5"/>
<path d="M442.55 135.807L463.622 147.393L442.672 159.126L442.55 135.807Z" fill="#E7F3F2" stroke="#F0F0F0" stroke-width="0.5"/>
<path d="M464.637 171.152L464.637 147.983L485.211 159.768L464.637 171.152Z" fill="#B7DCDA" stroke="#F0F0F0" stroke-width="0.5"/>
<path d="M485.522 159.21L465.028 147.395L485.522 135.902L485.522 159.21Z" fill="#DCEEED" stroke="#F0F0F0" stroke-width="0.5"/>
<path d="M443.23 159.685L463.886 148.063L463.886 171.015L443.23 159.685Z" fill="#99C2DF" stroke="#F0F0F0" stroke-width="0.5"/>
<path d="M375.302 -24.5801L375.446 -0.572356L353.69 -12.5877L375.302 -24.5801Z" fill="#62718F" stroke="#F0F0F0" stroke-width="0.25"/>
<path d="M397.039 -12.4646L375.699 -0.571908L375.555 -24.5781L397.039 -12.4646Z" fill="#394C71" stroke="#F0F0F0" stroke-width="0.25"/>
<path d="M353.56 -12.376L375.317 -0.359917L353.685 11.8097L353.56 -12.376Z" fill="#B6BDCB" stroke="#F0F0F0" stroke-width="0.25"/>
<path d="M375.701 23.8843L375.701 -0.146316L397.04 12.0774L375.701 23.8843Z" fill="#62718F" stroke="#F0F0F0" stroke-width="0.25"/>
<path d="M397.168 11.8646L375.828 -0.359425L397.168 -12.2504L397.168 11.8646Z" fill="#9CA5B8" stroke="#F0F0F0" stroke-width="0.25"/>
<path d="M353.817 12.0217L375.447 -0.148245L375.447 23.8853L353.817 12.0217Z" fill="#25385C" stroke="#F0F0F0" stroke-width="0.25"/>
<path d="M109.887 49.5465L110.028 73.0679L88.7129 61.296L109.887 49.5465Z" fill="#CFE8E6" stroke="#F0F0F0" stroke-width="0.5"/>
<path d="M131.323 61.4441L110.611 72.9868L110.471 49.6871L131.323 61.4441Z" fill="#C7E4E2" stroke="#F0F0F0" stroke-width="0.5"/>
<path d="M88.561 61.9324L109.633 73.5176L88.6828 85.2507L88.561 61.9324Z" fill="#E7F3F2" stroke="#F0F0F0" stroke-width="0.5"/>
<path d="M110.647 97.2771L110.647 74.108L131.221 85.8934L110.647 97.2771Z" fill="#B7DCDA" stroke="#F0F0F0" stroke-width="0.5"/>
<path d="M131.533 85.3347L111.039 73.5197L131.533 62.0266L131.533 85.3347Z" fill="#DCEEED" stroke="#F0F0F0" stroke-width="0.5"/>
<path d="M89.2405 85.8102L109.897 74.1879L109.897 97.1399L89.2405 85.8102Z" fill="#99C2DF" stroke="#F0F0F0" stroke-width="0.5"/>
<path d="M109.145 -24.3285L109.286 -0.807148L87.9704 -12.5791L109.145 -24.3285Z" fill="#CFE8E6" stroke="#F0F0F0" stroke-width="0.5"/>
<path d="M130.58 -12.4309L109.868 -0.88821L109.728 -24.188L130.58 -12.4309Z" fill="#C7E4E2" stroke="#F0F0F0" stroke-width="0.5"/>
<path d="M87.8185 -11.9427L108.891 -0.357496L87.9403 11.3757L87.8185 -11.9427Z" fill="#E7F3F2" stroke="#F0F0F0" stroke-width="0.5"/>
<path d="M109.905 23.402L109.905 0.232987L130.479 12.0184L109.905 23.402Z" fill="#B7DCDA" stroke="#F0F0F0" stroke-width="0.5"/>
<path d="M130.79 11.4596L110.297 -0.355337L130.79 -11.8484L130.79 11.4596Z" fill="#DCEEED" stroke="#F0F0F0" stroke-width="0.5"/>
<path d="M88.498 11.9351L109.155 0.312872L109.155 23.2648L88.498 11.9351Z" fill="#99C2DF" stroke="#F0F0F0" stroke-width="0.5"/>
<path d="M552.445 49.5465L552.587 73.0679L531.271 61.296L552.445 49.5465Z" fill="#F7CF7D" stroke="#F0F0F0" stroke-width="0.5"/>
<path d="M573.881 61.4441L553.169 72.9868L553.029 49.6871L573.881 61.4441Z" fill="#DF9611" stroke="#F0F0F0" stroke-width="0.5"/>
<path d="M531.119 61.9324L552.191 73.5176L531.241 85.2507L531.119 61.9324Z" fill="#FCECCB" stroke="#F0F0F0" stroke-width="0.5"/>
<path d="M553.206 97.2771L553.206 74.108L573.78 85.8934L553.206 97.2771Z" fill="#F4B12E" stroke="#F0F0F0" stroke-width="0.5"/>
<path d="M574.091 85.3347L553.598 73.5197L574.091 62.0266L574.091 85.3347Z" fill="#F7CF7D" stroke="#F0F0F0" stroke-width="0.5"/>
<path d="M531.799 85.8102L552.456 74.1879L552.456 97.1399L531.799 85.8102Z" fill="#DF9611" stroke="#F0F0F0" stroke-width="0.5"/>
<path d="M65.3342 49.5465L65.4755 73.0679L44.1601 61.296L65.3342 49.5465Z" fill="#78CCBA" stroke="#F0F0F0" stroke-width="0.5"/>
<path d="M86.7699 61.4441L66.0581 72.9868L65.9182 49.6871L86.7699 61.4441Z" fill="#40B79E" stroke="#F0F0F0" stroke-width="0.5"/>
<path d="M44.0082 61.9324L65.0803 73.5176L44.13 85.2507L44.0082 61.9324Z" fill="#AADFD4" stroke="#F0F0F0" stroke-width="0.5"/>
<path d="M66.0946 97.2771L66.0946 74.108L86.6687 85.8934L66.0946 97.2771Z" fill="#40B79E" stroke="#F0F0F0" stroke-width="0.5"/>
<path d="M86.98 85.3347L66.4864 73.5197L86.98 62.0266L86.98 85.3347Z" fill="#78CCBA" stroke="#F0F0F0" stroke-width="0.5"/>
<path d="M44.6877 85.8102L65.3445 74.1879L65.3445 97.1399L44.6877 85.8102Z" fill="#008066" stroke="#F0F0F0" stroke-width="0.5"/>
<path d="M286.428 -24.3285L286.569 -0.807148L265.254 -12.5791L286.428 -24.3285Z" fill="#CFE8E6" stroke="#F0F0F0" stroke-width="0.5"/>
<path d="M307.863 -12.4309L287.152 -0.88821L287.012 -24.188L307.863 -12.4309Z" fill="#C7E4E2" stroke="#F0F0F0" stroke-width="0.5"/>
<path d="M265.102 -11.9427L286.174 -0.357496L265.223 11.3757L265.102 -11.9427Z" fill="#E7F3F2" stroke="#F0F0F0" stroke-width="0.5"/>
<path d="M287.188 23.402L287.188 0.232987L307.762 12.0184L287.188 23.402Z" fill="#B7DCDA" stroke="#F0F0F0" stroke-width="0.5"/>
<path d="M308.073 11.4596L287.58 -0.355337L308.073 -11.8484L308.073 11.4596Z" fill="#DCEEED" stroke="#F0F0F0" stroke-width="0.5"/>
<path d="M265.781 11.9351L286.438 0.312872L286.438 23.2648L265.781 11.9351Z" fill="#99C2DF" stroke="#F0F0F0" stroke-width="0.5"/>
<path d="M463.711 -24.3285L463.852 -0.807148L442.537 -12.5791L463.711 -24.3285Z" fill="#CFE8E6" stroke="#F0F0F0" stroke-width="0.5"/>
<path d="M485.147 -12.4309L464.435 -0.88821L464.295 -24.188L485.147 -12.4309Z" fill="#C7E4E2" stroke="#F0F0F0" stroke-width="0.5"/>
<path d="M442.385 -11.9427L463.457 -0.357496L442.507 11.3757L442.385 -11.9427Z" fill="#E7F3F2" stroke="#F0F0F0" stroke-width="0.5"/>
<path d="M464.471 23.402L464.471 0.232987L485.045 12.0184L464.471 23.402Z" fill="#B7DCDA" stroke="#F0F0F0" stroke-width="0.5"/>
<path d="M485.357 11.4596L464.863 -0.355337L485.357 -11.8484L485.357 11.4596Z" fill="#DCEEED" stroke="#F0F0F0" stroke-width="0.5"/>
<path d="M443.064 11.9351L463.721 0.312872L463.721 23.2648L443.064 11.9351Z" fill="#99C2DF" stroke="#F0F0F0" stroke-width="0.5"/>
<path d="M154.254 49.5465L154.396 73.0679L133.08 61.296L154.254 49.5465Z" fill="#CFE8E6" stroke="#F0F0F0" stroke-width="0.5"/>
<path d="M175.69 61.4441L154.978 72.9868L154.838 49.6871L175.69 61.4441Z" fill="#C7E4E2" stroke="#F0F0F0" stroke-width="0.5"/>
<path d="M132.928 61.9324L154 73.5176L133.05 85.2507L132.928 61.9324Z" fill="#E7F3F2" stroke="#F0F0F0" stroke-width="0.5"/>
<path d="M155.015 97.2771L155.015 74.108L175.589 85.8934L155.015 97.2771Z" fill="#B7DCDA" stroke="#F0F0F0" stroke-width="0.5"/>
<path d="M175.9 85.3347L155.406 73.5197L175.9 62.0266L175.9 85.3347Z" fill="#DCEEED" stroke="#F0F0F0" stroke-width="0.5"/>
<path d="M133.608 85.8102L154.265 74.1879L154.265 97.1399L133.608 85.8102Z" fill="#99C2DF" stroke="#F0F0F0" stroke-width="0.5"/>
<path d="M331.537 49.5465L331.679 73.0679L310.363 61.296L331.537 49.5465Z" fill="#CFE8E6" stroke="#F0F0F0" stroke-width="0.5"/>
<path d="M352.973 61.4441L332.261 72.9868L332.121 49.6871L352.973 61.4441Z" fill="#C7E4E2" stroke="#F0F0F0" stroke-width="0.5"/>
<path d="M310.211 61.9324L331.283 73.5176L310.333 85.2507L310.211 61.9324Z" fill="#E7F3F2" stroke="#F0F0F0" stroke-width="0.5"/>
<path d="M332.298 97.2771L332.298 74.108L352.872 85.8934L332.298 97.2771Z" fill="#B7DCDA" stroke="#F0F0F0" stroke-width="0.5"/>
<path d="M353.183 85.3347L332.69 73.5197L353.183 62.0266L353.183 85.3347Z" fill="#DCEEED" stroke="#F0F0F0" stroke-width="0.5"/>
<path d="M310.891 85.8102L331.548 74.1879L331.548 97.1399L310.891 85.8102Z" fill="#99C2DF" stroke="#F0F0F0" stroke-width="0.5"/>
<path d="M551.703 -24.3285L551.844 -0.807148L530.529 -12.5791L551.703 -24.3285Z" fill="#CFE8E6" stroke="#F0F0F0" stroke-width="0.5"/>
<path d="M573.138 -12.4309L552.427 -0.88821L552.287 -24.188L573.138 -12.4309Z" fill="#C7E4E2" stroke="#F0F0F0" stroke-width="0.5"/>
<path d="M530.377 -11.9427L551.449 -0.357496L530.499 11.3757L530.377 -11.9427Z" fill="#E7F3F2" stroke="#F0F0F0" stroke-width="0.5"/>
<path d="M552.463 23.402L552.463 0.232987L573.037 12.0184L552.463 23.402Z" fill="#B7DCDA" stroke="#F0F0F0" stroke-width="0.5"/>
<path d="M573.349 11.4596L552.855 -0.355337L573.349 -11.8484L573.349 11.4596Z" fill="#DCEEED" stroke="#F0F0F0" stroke-width="0.5"/>
<path d="M531.056 11.9351L551.713 0.312872L551.713 23.2648L531.056 11.9351Z" fill="#99C2DF" stroke="#F0F0F0" stroke-width="0.5"/>
<path d="M64.963 -24.3285L65.1042 -0.807148L43.7888 -12.5791L64.963 -24.3285Z" fill="#CFE8E6" stroke="#F0F0F0" stroke-width="0.5"/>
<path d="M86.3986 -12.4309L65.6869 -0.88821L65.5469 -24.188L86.3986 -12.4309Z" fill="#C7E4E2" stroke="#F0F0F0" stroke-width="0.5"/>
<path d="M43.6369 -11.9427L64.709 -0.357496L43.7587 11.3757L43.6369 -11.9427Z" fill="#E7F3F2" stroke="#F0F0F0" stroke-width="0.5"/>
<path d="M65.7233 23.402L65.7233 0.232987L86.2974 12.0184L65.7233 23.402Z" fill="#B7DCDA" stroke="#F0F0F0" stroke-width="0.5"/>
<path d="M86.6087 11.4596L66.1152 -0.355337L86.6087 -11.8484L86.6087 11.4596Z" fill="#DCEEED" stroke="#F0F0F0" stroke-width="0.5"/>
<path d="M44.3164 11.9351L64.9732 0.312872L64.9732 23.2648L44.3164 11.9351Z" fill="#99C2DF" stroke="#F0F0F0" stroke-width="0.5"/>
<path d="M242.246 -24.3285L242.387 -0.807148L221.072 -12.5791L242.246 -24.3285Z" fill="#CFE8E6" stroke="#F0F0F0" stroke-width="0.5"/>
<path d="M263.682 -12.4309L242.97 -0.88821L242.83 -24.188L263.682 -12.4309Z" fill="#C7E4E2" stroke="#F0F0F0" stroke-width="0.5"/>
<path d="M220.92 -11.9427L241.992 -0.357496L221.042 11.3757L220.92 -11.9427Z" fill="#E7F3F2" stroke="#F0F0F0" stroke-width="0.5"/>
<path d="M243.006 23.402L243.006 0.232987L263.581 12.0184L243.006 23.402Z" fill="#B7DCDA" stroke="#F0F0F0" stroke-width="0.5"/>
<path d="M263.892 11.4596L243.398 -0.355337L263.892 -11.8484L263.892 11.4596Z" fill="#DCEEED" stroke="#F0F0F0" stroke-width="0.5"/>
<path d="M221.6 11.9351L242.256 0.312872L242.256 23.2648L221.6 11.9351Z" fill="#99C2DF" stroke="#F0F0F0" stroke-width="0.5"/>
<path d="M197.693 -24.5141L197.835 -0.992763L176.519 -12.7647L197.693 -24.5141Z" fill="#E8AFAC" stroke="#F0F0F0" stroke-width="0.5"/>
<path d="M219.129 -12.6166L198.417 -1.07383L198.277 -24.3736L219.129 -12.6166Z" fill="#C34833" stroke="#F0F0F0" stroke-width="0.5"/>
<path d="M176.367 -12.1283L197.439 -0.543112L176.489 11.1901L176.367 -12.1283Z" fill="#F1CCCB" stroke="#F0F0F0" stroke-width="0.5"/>
<path d="M198.454 23.2164L198.454 0.0473713L219.028 11.8328L198.454 23.2164Z" fill="#D36D63" stroke="#F0F0F0" stroke-width="0.5"/>
<path d="M219.339 11.274L198.846 -0.540953L219.339 -12.034L219.339 11.274Z" fill="#DF908B" stroke="#F0F0F0" stroke-width="0.5"/>
<path d="M177.047 11.7495L197.704 0.127257L197.704 23.0792L177.047 11.7495Z" fill="#AC3619" stroke="#F0F0F0" stroke-width="0.5"/>
<path d="M419.529 -24.3285L419.671 -0.807148L398.355 -12.5791L419.529 -24.3285Z" fill="#CFE8E6" stroke="#F0F0F0" stroke-width="0.5"/>
<path d="M440.965 -12.4309L420.253 -0.88821L420.113 -24.188L440.965 -12.4309Z" fill="#C7E4E2" stroke="#F0F0F0" stroke-width="0.5"/>
<path d="M398.203 -11.9427L419.275 -0.357496L398.325 11.3757L398.203 -11.9427Z" fill="#E7F3F2" stroke="#F0F0F0" stroke-width="0.5"/>
<path d="M420.29 23.402L420.29 0.232987L440.864 12.0184L420.29 23.402Z" fill="#B7DCDA" stroke="#F0F0F0" stroke-width="0.5"/>
<path d="M441.175 11.4596L420.682 -0.355337L441.175 -11.8484L441.175 11.4596Z" fill="#DCEEED" stroke="#F0F0F0" stroke-width="0.5"/>
<path d="M398.883 11.9351L419.54 0.312872L419.54 23.2648L398.883 11.9351Z" fill="#99C2DF" stroke="#F0F0F0" stroke-width="0.5"/>
<path d="M153.512 -24.3285L153.653 -0.807148L132.338 -12.5791L153.512 -24.3285Z" fill="#CFE8E6" stroke="#F0F0F0" stroke-width="0.5"/>
<path d="M174.947 -12.4309L154.236 -0.88821L154.096 -24.188L174.947 -12.4309Z" fill="#C7E4E2" stroke="#F0F0F0" stroke-width="0.5"/>
<path d="M132.186 -11.9427L153.258 -0.357496L132.308 11.3757L132.186 -11.9427Z" fill="#E7F3F2" stroke="#F0F0F0" stroke-width="0.5"/>
<path d="M154.272 23.402L154.272 0.232987L174.846 12.0184L154.272 23.402Z" fill="#B7DCDA" stroke="#F0F0F0" stroke-width="0.5"/>
<path d="M175.158 11.4596L154.664 -0.355337L175.158 -11.8484L175.158 11.4596Z" fill="#DCEEED" stroke="#F0F0F0" stroke-width="0.5"/>
<path d="M132.865 11.9351L153.522 0.312872L153.522 23.2648L132.865 11.9351Z" fill="#99C2DF" stroke="#F0F0F0" stroke-width="0.5"/>
<path d="M330.795 -24.3285L330.936 -0.807148L309.621 -12.5791L330.795 -24.3285Z" fill="#78CCBA" stroke="#F0F0F0" stroke-width="0.5"/>
<path d="M352.231 -12.4309L331.519 -0.88821L331.379 -24.188L352.231 -12.4309Z" fill="#40B79E" stroke="#F0F0F0" stroke-width="0.5"/>
<path d="M309.469 -11.9427L330.541 -0.357496L309.591 11.3757L309.469 -11.9427Z" fill="#AADFD4" stroke="#F0F0F0" stroke-width="0.5"/>
<path d="M331.555 23.402L331.555 0.232987L352.129 12.0184L331.555 23.402Z" fill="#40B79E" stroke="#F0F0F0" stroke-width="0.5"/>
<path d="M352.441 11.4596L331.947 -0.355337L352.441 -11.8484L352.441 11.4596Z" fill="#78CCBA" stroke="#F0F0F0" stroke-width="0.5"/>
<path d="M310.148 11.9351L330.805 0.312872L330.805 23.2648L310.148 11.9351Z" fill="#008066" stroke="#F0F0F0" stroke-width="0.5"/>
<path d="M508.078 -24.3285L508.219 -0.807148L486.904 -12.5791L508.078 -24.3285Z" fill="#CFE8E6" stroke="#F0F0F0" stroke-width="0.5"/>
<path d="M529.514 -12.4309L508.802 -0.88821L508.662 -24.188L529.514 -12.4309Z" fill="#C7E4E2" stroke="#F0F0F0" stroke-width="0.5"/>
<path d="M486.752 -11.9427L507.824 -0.357496L486.874 11.3757L486.752 -11.9427Z" fill="#E7F3F2" stroke="#F0F0F0" stroke-width="0.5"/>
<path d="M508.839 23.402L508.839 0.232987L529.413 12.0184L508.839 23.402Z" fill="#B7DCDA" stroke="#F0F0F0" stroke-width="0.5"/>
<path d="M529.724 11.4596L509.23 -0.355337L529.724 -11.8484L529.724 11.4596Z" fill="#DCEEED" stroke="#F0F0F0" stroke-width="0.5"/>
<path d="M487.432 11.9351L508.088 0.312872L508.088 23.2648L487.432 11.9351Z" fill="#99C2DF" stroke="#F0F0F0" stroke-width="0.5"/>
<path d="M-1.12376 12.609L-0.982479 36.1304L-22.2979 24.3584L-1.12376 12.609Z" fill="#CFE8E6" stroke="#F0F0F0" stroke-width="0.5"/>
<path d="M20.3119 24.5066L-0.399851 36.0493L-0.539799 12.7495L20.3119 24.5066Z" fill="#C7E4E2" stroke="#F0F0F0" stroke-width="0.5"/>
<path d="M-0.363421 60.3395L-0.363423 37.1705L20.2107 48.9559L-0.363421 60.3395Z" fill="#B7DCDA" stroke="#F0F0F0" stroke-width="0.5"/>
<path d="M20.522 48.3971L0.0284439 36.5822L20.522 25.0891L20.522 48.3971Z" fill="#DCEEED" stroke="#F0F0F0" stroke-width="0.5"/>
<path d="M-21.7703 48.8726L-1.11353 37.2504L-1.11353 60.2023L-21.7703 48.8726Z" fill="#99C2DF" stroke="#F0F0F0" stroke-width="0.5"/>
<path d="M-1.12376 160.486L-0.982479 184.007L-22.2979 172.235L-1.12376 160.486Z" fill="#CFE8E6" stroke="#F0F0F0" stroke-width="0.5"/>
<path d="M20.3119 172.383L-0.399851 183.926L-0.539799 160.626L20.3119 172.383Z" fill="#C7E4E2" stroke="#F0F0F0" stroke-width="0.5"/>
<path d="M-0.363421 208.216L-0.363423 185.047L20.2107 196.833L-0.363421 208.216Z" fill="#B7DCDA" stroke="#F0F0F0" stroke-width="0.5"/>
<path d="M20.522 196.274L0.0284439 184.459L20.522 172.966L20.522 196.274Z" fill="#DCEEED" stroke="#F0F0F0" stroke-width="0.5"/>
<path d="M-21.7703 196.75L-1.11353 185.127L-1.11353 208.079L-21.7703 196.75Z" fill="#99C2DF" stroke="#F0F0F0" stroke-width="0.5"/>
<path d="M486.876 160.486L487.018 184.007L465.702 172.235L486.876 160.486Z" fill="#CFE8E6" stroke="#F0F0F0" stroke-width="0.5"/>
<path d="M508.312 172.383L487.6 183.926L487.46 160.626L508.312 172.383Z" fill="#C7E4E2" stroke="#F0F0F0" stroke-width="0.5"/>
<path d="M465.55 172.872L486.622 184.457L465.672 196.19L465.55 172.872Z" fill="#E7F3F2" stroke="#F0F0F0" stroke-width="0.5"/>
<path d="M487.637 208.216L487.637 185.047L508.211 196.833L487.637 208.216Z" fill="#B7DCDA" stroke="#F0F0F0" stroke-width="0.5"/>
<path d="M508.522 196.274L488.028 184.459L508.522 172.966L508.522 196.274Z" fill="#DCEEED" stroke="#F0F0F0" stroke-width="0.5"/>
<path d="M466.23 196.75L486.886 185.127L486.886 208.079L466.23 196.75Z" fill="#99C2DF" stroke="#F0F0F0" stroke-width="0.5"/>
<path d="M-0.381207 86.484L-0.239931 110.005L-21.5554 98.2335L-0.381207 86.484Z" fill="#E8AFAC" stroke="#F0F0F0" stroke-width="0.5"/>
<path d="M21.0544 98.3816L0.342697 109.924L0.202749 86.6246L21.0544 98.3816Z" fill="#C34833" stroke="#F0F0F0" stroke-width="0.5"/>
<path d="M0.379127 134.215L0.379125 111.046L20.9532 122.831L0.379127 134.215Z" fill="#D36D63" stroke="#F0F0F0" stroke-width="0.5"/>
<path d="M21.2645 122.272L0.770992 110.457L21.2645 98.9641L21.2645 122.272Z" fill="#DF908B" stroke="#F0F0F0" stroke-width="0.5"/>
<path d="M-21.0277 122.748L-0.370978 111.125L-0.370977 134.077L-21.0277 122.748Z" fill="#AC3619" stroke="#F0F0F0" stroke-width="0.5"/>
<path d="M176.159 12.609L176.301 36.1304L154.985 24.3584L176.159 12.609Z" fill="#CFE8E6" stroke="#F0F0F0" stroke-width="0.5"/>
<path d="M197.595 24.5066L176.883 36.0493L176.743 12.7495L197.595 24.5066Z" fill="#C7E4E2" stroke="#F0F0F0" stroke-width="0.5"/>
<path d="M154.833 24.9949L175.905 36.58L154.955 48.3132L154.833 24.9949Z" fill="#E7F3F2" stroke="#F0F0F0" stroke-width="0.5"/>
<path d="M176.92 60.3395L176.92 37.1705L197.494 48.9559L176.92 60.3395Z" fill="#B7DCDA" stroke="#F0F0F0" stroke-width="0.5"/>
<path d="M197.805 48.3971L177.312 36.5822L197.805 25.0891L197.805 48.3971Z" fill="#DCEEED" stroke="#F0F0F0" stroke-width="0.5"/>
<path d="M155.513 48.8726L176.17 37.2504L176.17 60.2023L155.513 48.8726Z" fill="#99C2DF" stroke="#F0F0F0" stroke-width="0.5"/>
<path d="M87.425 12.609L87.5663 36.1304L66.2509 24.3584L87.425 12.609Z" fill="#CFE8E6" stroke="#F0F0F0" stroke-width="0.5"/>
<path d="M108.861 24.5066L88.1489 36.0493L88.009 12.7495L108.861 24.5066Z" fill="#C7E4E2" stroke="#F0F0F0" stroke-width="0.5"/>
<path d="M66.099 24.9949L87.171 36.58L66.2208 48.3132L66.099 24.9949Z" fill="#E7F3F2" stroke="#F0F0F0" stroke-width="0.5"/>
<path d="M88.1853 60.3395L88.1853 37.1705L108.759 48.9559L88.1853 60.3395Z" fill="#B7DCDA" stroke="#F0F0F0" stroke-width="0.5"/>
<path d="M109.071 48.3971L88.5772 36.5822L109.071 25.0891L109.071 48.3971Z" fill="#DCEEED" stroke="#F0F0F0" stroke-width="0.5"/>
<path d="M66.7785 48.8726L87.4352 37.2504L87.4352 60.2023L66.7785 48.8726Z" fill="#99C2DF" stroke="#F0F0F0" stroke-width="0.5"/>
<path d="M264.708 12.609L264.849 36.1304L243.534 24.3584L264.708 12.609Z" fill="#CFE8E6" stroke="#F0F0F0" stroke-width="0.5"/>
<path d="M286.144 24.5066L265.432 36.0493L265.292 12.7495L286.144 24.5066Z" fill="#C7E4E2" stroke="#F0F0F0" stroke-width="0.5"/>
<path d="M243.382 24.9949L264.454 36.58L243.504 48.3132L243.382 24.9949Z" fill="#E7F3F2" stroke="#F0F0F0" stroke-width="0.5"/>
<path d="M265.469 60.3395L265.469 37.1705L286.043 48.9559L265.469 60.3395Z" fill="#B7DCDA" stroke="#F0F0F0" stroke-width="0.5"/>
<path d="M286.354 48.3971L265.86 36.5822L286.354 25.0891L286.354 48.3971Z" fill="#DCEEED" stroke="#F0F0F0" stroke-width="0.5"/>
<path d="M244.062 48.8726L264.718 37.2504L264.718 60.2023L244.062 48.8726Z" fill="#99C2DF" stroke="#F0F0F0" stroke-width="0.5"/>
<path d="M441.991 12.609L442.133 36.1304L420.817 24.3584L441.991 12.609Z" fill="#E8AFAC" stroke="#F0F0F0" stroke-width="0.5"/>
<path d="M463.427 24.5066L442.715 36.0493L442.575 12.7495L463.427 24.5066Z" fill="#C34833" stroke="#F0F0F0" stroke-width="0.5"/>
<path d="M420.665 24.9949L441.737 36.58L420.787 48.3132L420.665 24.9949Z" fill="#F1CCCB" stroke="#F0F0F0" stroke-width="0.5"/>
<path d="M442.752 60.3395L442.752 37.1705L463.326 48.9559L442.752 60.3395Z" fill="#D36D63" stroke="#F0F0F0" stroke-width="0.5"/>
<path d="M463.637 48.3971L443.144 36.5822L463.637 25.0891L463.637 48.3971Z" fill="#DF908B" stroke="#F0F0F0" stroke-width="0.5"/>
<path d="M421.345 48.8726L442.002 37.2504L442.002 60.2023L421.345 48.8726Z" fill="#AC3619" stroke="#F0F0F0" stroke-width="0.5"/>
<path d="M529.983 12.609L530.125 36.1304L508.809 24.3584L529.983 12.609Z" fill="#CFE8E6" stroke="#F0F0F0" stroke-width="0.5"/>
<path d="M551.419 24.5066L530.707 36.0493L530.567 12.7495L551.419 24.5066Z" fill="#C7E4E2" stroke="#F0F0F0" stroke-width="0.5"/>
<path d="M508.657 24.9949L529.729 36.58L508.779 48.3132L508.657 24.9949Z" fill="#E7F3F2" stroke="#F0F0F0" stroke-width="0.5"/>
<path d="M530.744 60.3395L530.744 37.1705L551.318 48.9559L530.744 60.3395Z" fill="#B7DCDA" stroke="#F0F0F0" stroke-width="0.5"/>
<path d="M551.629 48.3971L531.136 36.5822L551.629 25.0891L551.629 48.3971Z" fill="#DCEEED" stroke="#F0F0F0" stroke-width="0.5"/>
<path d="M509.337 48.8726L529.994 37.2504L529.994 60.2023L509.337 48.8726Z" fill="#99C2DF" stroke="#F0F0F0" stroke-width="0.5"/>
<path d="M486.916 86.2984L487.057 109.82L465.741 98.0479L486.916 86.2984Z" fill="#78CCBA" stroke="#F0F0F0" stroke-width="0.5"/>
<path d="M508.351 98.196L487.639 109.739L487.499 86.439L508.351 98.196Z" fill="#40B79E" stroke="#F0F0F0" stroke-width="0.5"/>
<path d="M465.589 98.6843L486.662 110.269L465.711 122.003L465.589 98.6843Z" fill="#AADFD4" stroke="#F0F0F0" stroke-width="0.5"/>
<path d="M487.676 134.029L487.676 110.86L508.25 122.645L487.676 134.029Z" fill="#40B79E" stroke="#F0F0F0" stroke-width="0.5"/>
<path d="M508.561 122.087L488.068 110.272L508.561 98.7785L508.561 122.087Z" fill="#78CCBA" stroke="#F0F0F0" stroke-width="0.5"/>
<path d="M466.269 122.562L486.926 110.94L486.926 133.892L466.269 122.562Z" fill="#008066" stroke="#F0F0F0" stroke-width="0.5"/>
<path d="M43.2435 12.609L43.3847 36.1304L22.0693 24.3584L43.2435 12.609Z" fill="#CFE8E6" stroke="#F0F0F0" stroke-width="0.5"/>
<path d="M64.6791 24.5066L43.9674 36.0493L43.8274 12.7495L64.6791 24.5066Z" fill="#C7E4E2" stroke="#F0F0F0" stroke-width="0.5"/>
<path d="M21.9174 24.9949L42.9895 36.58L22.0392 48.3132L21.9174 24.9949Z" fill="#E7F3F2" stroke="#F0F0F0" stroke-width="0.5"/>
<path d="M44.0038 60.3395L44.0038 37.1705L64.5779 48.9559L44.0038 60.3395Z" fill="#B7DCDA" stroke="#F0F0F0" stroke-width="0.5"/>
<path d="M64.8892 48.3971L44.3957 36.5822L64.8892 25.0891L64.8892 48.3971Z" fill="#DCEEED" stroke="#F0F0F0" stroke-width="0.5"/>
<path d="M22.5969 48.8726L43.2537 37.2504L43.2537 60.2023L22.5969 48.8726Z" fill="#99C2DF" stroke="#F0F0F0" stroke-width="0.5"/>
<path d="M43.6147 86.484L43.756 110.005L22.4406 98.2335L43.6147 86.484Z" fill="#CFE8E6" stroke="#F0F0F0" stroke-width="0.5"/>
<path d="M65.0504 98.3816L44.3386 109.924L44.1987 86.6246L65.0504 98.3816Z" fill="#C7E4E2" stroke="#F0F0F0" stroke-width="0.5"/>
<path d="M22.2887 98.8699L43.3608 110.455L22.4105 122.188L22.2887 98.8699Z" fill="#E7F3F2" stroke="#F0F0F0" stroke-width="0.5"/>
<path d="M44.3751 134.215L44.3751 111.046L64.9492 122.831L44.3751 134.215Z" fill="#B7DCDA" stroke="#F0F0F0" stroke-width="0.5"/>
<path d="M65.2605 122.272L44.7669 110.457L65.2605 98.9641L65.2605 122.272Z" fill="#DCEEED" stroke="#F0F0F0" stroke-width="0.5"/>
<path d="M22.9682 122.748L43.625 111.125L43.625 134.077L22.9682 122.748Z" fill="#99C2DF" stroke="#F0F0F0" stroke-width="0.5"/>
<path d="M397.81 12.609L397.951 36.1304L376.636 24.3584L397.81 12.609Z" fill="#CFE8E6" stroke="#F0F0F0" stroke-width="0.5"/>
<path d="M419.245 24.5066L398.534 36.0493L398.394 12.7495L419.245 24.5066Z" fill="#C7E4E2" stroke="#F0F0F0" stroke-width="0.5"/>
<path d="M376.484 24.9949L397.556 36.58L376.606 48.3132L376.484 24.9949Z" fill="#E7F3F2" stroke="#F0F0F0" stroke-width="0.5"/>
<path d="M398.57 60.3395L398.57 37.1705L419.144 48.9559L398.57 60.3395Z" fill="#B7DCDA" stroke="#F0F0F0" stroke-width="0.5"/>
<path d="M419.456 48.3971L398.962 36.5822L419.456 25.0891L419.456 48.3971Z" fill="#DCEEED" stroke="#F0F0F0" stroke-width="0.5"/>
<path d="M377.163 48.8726L397.82 37.2504L397.82 60.2023L377.163 48.8726Z" fill="#99C2DF" stroke="#F0F0F0" stroke-width="0.5"/>
<path d="M131.792 12.609L131.934 36.1304L110.618 24.3584L131.792 12.609Z" fill="#F7CF7D" stroke="#F0F0F0" stroke-width="0.5"/>
<path d="M153.228 24.5066L132.516 36.0493L132.376 12.7495L153.228 24.5066Z" fill="#DF9611" stroke="#F0F0F0" stroke-width="0.5"/>
<path d="M110.466 24.9949L131.538 36.58L110.588 48.3132L110.466 24.9949Z" fill="#FCECCB" stroke="#F0F0F0" stroke-width="0.5"/>
<path d="M132.553 60.3395L132.553 37.1705L153.127 48.9559L132.553 60.3395Z" fill="#F4B12E" stroke="#F0F0F0" stroke-width="0.5"/>
<path d="M153.438 48.3971L132.944 36.5822L153.438 25.0891L153.438 48.3971Z" fill="#F7CF7D" stroke="#F0F0F0" stroke-width="0.5"/>
<path d="M111.146 48.8726L131.802 37.2504L131.802 60.2023L111.146 48.8726Z" fill="#DF9611" stroke="#F0F0F0" stroke-width="0.5"/>
<path d="M309.075 12.609L309.217 36.1304L287.901 24.3584L309.075 12.609Z" fill="#CFE8E6" stroke="#F0F0F0" stroke-width="0.5"/>
<path d="M330.511 24.5066L309.799 36.0493L309.659 12.7495L330.511 24.5066Z" fill="#C7E4E2" stroke="#F0F0F0" stroke-width="0.5"/>
<path d="M287.749 24.9949L308.821 36.58L287.871 48.3132L287.749 24.9949Z" fill="#E7F3F2" stroke="#F0F0F0" stroke-width="0.5"/>
<path d="M309.836 60.3395L309.836 37.1705L330.41 48.9559L309.836 60.3395Z" fill="#B7DCDA" stroke="#F0F0F0" stroke-width="0.5"/>
<path d="M330.721 48.3971L310.228 36.5822L330.721 25.0891L330.721 48.3971Z" fill="#DCEEED" stroke="#F0F0F0" stroke-width="0.5"/>
<path d="M288.429 48.8726L309.086 37.2504L309.086 60.2023L288.429 48.8726Z" fill="#99C2DF" stroke="#F0F0F0" stroke-width="0.5"/>
<path d="M486.359 12.609L486.5 36.1304L465.184 24.3584L486.359 12.609Z" fill="#CFE8E6" stroke="#F0F0F0" stroke-width="0.5"/>
<path d="M507.794 24.5066L487.083 36.0493L486.943 12.7495L507.794 24.5066Z" fill="#C7E4E2" stroke="#F0F0F0" stroke-width="0.5"/>
<path d="M465.033 24.9949L486.105 36.58L465.154 48.3132L465.033 24.9949Z" fill="#E7F3F2" stroke="#F0F0F0" stroke-width="0.5"/>
<path d="M487.119 60.3395L487.119 37.1705L507.693 48.9559L487.119 60.3395Z" fill="#B7DCDA" stroke="#F0F0F0" stroke-width="0.5"/>
<path d="M508.004 48.3971L487.511 36.5822L508.004 25.0891L508.004 48.3971Z" fill="#DCEEED" stroke="#F0F0F0" stroke-width="0.5"/>
<path d="M465.712 48.8726L486.369 37.2504L486.369 60.2023L465.712 48.8726Z" fill="#99C2DF" stroke="#F0F0F0" stroke-width="0.5"/>
<path d="M574.49 12.3574L574.634 36.3652L552.878 24.3498L574.49 12.3574Z" fill="#62718F" stroke="#F0F0F0" stroke-width="0.25"/>
<path d="M596.227 24.4729L574.888 36.3656L574.743 12.3595L596.227 24.4729Z" fill="#394C71" stroke="#F0F0F0" stroke-width="0.25"/>
<path d="M552.748 24.5615L574.505 36.5776L552.874 48.7472L552.748 24.5615Z" fill="#B6BDCB" stroke="#F0F0F0" stroke-width="0.25"/>
<path d="M574.889 60.8219L574.889 36.7912L596.228 49.0149L574.889 60.8219Z" fill="#62718F" stroke="#F0F0F0" stroke-width="0.25"/>
<path d="M596.356 48.8021L575.016 36.5781L596.356 24.6871L596.356 48.8021Z" fill="#9CA5B8" stroke="#F0F0F0" stroke-width="0.25"/>
<path d="M553.005 48.9592L574.635 36.7893L574.635 60.8228L553.005 48.9592Z" fill="#25385C" stroke="#F0F0F0" stroke-width="0.25"/>
<path d="M574.722 86.484L574.863 110.005L553.548 98.2335L574.722 86.484Z" fill="#E8AFAC" stroke="#F0F0F0" stroke-width="0.5"/>
<path d="M596.157 98.3816L575.446 109.924L575.306 86.6246L596.157 98.3816Z" fill="#C34833" stroke="#F0F0F0" stroke-width="0.5"/>
<path d="M553.396 98.8699L574.468 110.455L553.518 122.188L553.396 98.8699Z" fill="#F1CCCB" stroke="#F0F0F0" stroke-width="0.5"/>
<path d="M575.482 134.215L575.482 111.046L596.056 122.831L575.482 134.215Z" fill="#D36D63" stroke="#F0F0F0" stroke-width="0.5"/>
<path d="M554.075 122.748L574.732 111.125L574.732 134.077L554.075 122.748Z" fill="#AC3619" stroke="#F0F0F0" stroke-width="0.5"/>
<path d="M574.722 160.298L574.863 183.819L553.548 172.047L574.722 160.298Z" fill="#CFE8E6" stroke="#F0F0F0" stroke-width="0.5"/>
<path d="M596.157 172.195L575.446 183.738L575.306 160.438L596.157 172.195Z" fill="#C7E4E2" stroke="#F0F0F0" stroke-width="0.5"/>
<path d="M553.396 172.684L574.468 184.269L553.518 196.002L553.396 172.684Z" fill="#E7F3F2" stroke="#F0F0F0" stroke-width="0.5"/>
<path d="M575.482 208.028L575.482 184.859L596.056 196.645L575.482 208.028Z" fill="#B7DCDA" stroke="#F0F0F0" stroke-width="0.5"/>
<path d="M554.075 196.561L574.732 184.939L574.732 207.891L554.075 196.561Z" fill="#99C2DF" stroke="#F0F0F0" stroke-width="0.5"/>
</g>
</g>
<defs>
<filter id="filter0_d_865_617" x="-25" y="-25" width="624.115" height="238.188" filterUnits="userSpaceOnUse" color-interpolation-filters="sRGB">
<feFlood flood-opacity="0" result="BackgroundImageFix"/>
<feColorMatrix in="SourceAlpha" type="matrix" values="0 0 0 0 0 0 0 0 0 0 0 0 0 0 0 0 0 0 127 0" result="hardAlpha"/>
<feOffset dy="2"/>
<feGaussianBlur stdDeviation="1"/>
<feComposite in2="hardAlpha" operator="out"/>
<feColorMatrix type="matrix" values="0 0 0 0 0 0 0 0 0 0 0 0 0 0 0 0 0 0 0.3 0"/>
<feBlend mode="normal" in2="BackgroundImageFix" result="effect1_dropShadow_865_617"/>
<feBlend mode="normal" in="SourceGraphic" in2="effect1_dropShadow_865_617" result="shape"/>
</filter>
<clipPath id="clip0_865_617">
<rect width="575" height="222" fill="white"/>
</clipPath>
</defs>
</svg>
