<svg width="1440" height="449" viewBox="0 0 1440 449" fill="none" xmlns="http://www.w3.org/2000/svg">
<g filter="url(#filter0_d_887_3039)">
<path d="M1380.91 -59.2687L1381.27 1.47765L1326.23 -28.9245L1380.91 -59.2687Z" fill="#CFE8E6" stroke="#F0F0F0" stroke-width="0.25"/>
<path d="M1435.53 -28.6157L1381.53 1.47809L1381.16 -59.2683L1435.53 -28.6157Z" fill="#C7E4E2" stroke="#F0F0F0" stroke-width="0.25"/>
<path d="M1326.1 -28.7129L1381.15 1.69008L1326.41 32.4814L1326.1 -28.7129Z" fill="#E7F3F2" stroke="#F0F0F0" stroke-width="0.25"/>
<path d="M1381.53 62.7128L1381.53 1.90368L1435.53 32.8355L1381.53 62.7128Z" fill="#B7DCDA" stroke="#F0F0F0" stroke-width="0.25"/>
<path d="M1435.66 32.6227L1381.66 1.69058L1435.66 -28.3988L1435.66 32.6227Z" fill="#DCEEED" stroke="#F0F0F0" stroke-width="0.25"/>
<path d="M1326.55 32.6953L1381.28 1.90175L1381.28 62.7138L1326.55 32.6953Z" fill="#99C2DF" stroke="#F0F0F0" stroke-width="0.25"/>
<path d="M1271.81 -59.2687L1272.17 1.47765L1217.12 -28.9245L1271.81 -59.2687Z" fill="#CFE8E6" stroke="#F0F0F0" stroke-width="0.25"/>
<path d="M1326.42 -28.6157L1272.42 1.47809L1272.06 -59.2683L1326.42 -28.6157Z" fill="#C7E4E2" stroke="#F0F0F0" stroke-width="0.25"/>
<path d="M1216.99 -28.7129L1272.04 1.69008L1217.31 32.4814L1216.99 -28.7129Z" fill="#E7F3F2" stroke="#F0F0F0" stroke-width="0.25"/>
<path d="M1272.43 62.7128L1272.43 1.90368L1326.42 32.8355L1272.43 62.7128Z" fill="#B7DCDA" stroke="#F0F0F0" stroke-width="0.25"/>
<path d="M1326.55 32.6227L1272.55 1.69058L1326.55 -28.3988L1326.55 32.6227Z" fill="#DCEEED" stroke="#F0F0F0" stroke-width="0.25"/>
<path d="M1217.44 32.6953L1272.17 1.90175L1272.17 62.7138L1217.44 32.6953Z" fill="#99C2DF" stroke="#F0F0F0" stroke-width="0.25"/>
<path d="M1160.85 -59.2687L1161.21 1.47765L1106.16 -28.9245L1160.85 -59.2687Z" fill="#CFE8E6" stroke="#F0F0F0" stroke-width="0.25"/>
<path d="M1215.46 -28.6157L1161.46 1.47809L1161.1 -59.2683L1215.46 -28.6157Z" fill="#C7E4E2" stroke="#F0F0F0" stroke-width="0.25"/>
<path d="M1106.03 -28.7129L1161.08 1.69008L1106.35 32.4814L1106.03 -28.7129Z" fill="#E7F3F2" stroke="#F0F0F0" stroke-width="0.25"/>
<path d="M1161.47 62.7128L1161.47 1.90368L1215.46 32.8355L1161.47 62.7128Z" fill="#B7DCDA" stroke="#F0F0F0" stroke-width="0.25"/>
<path d="M1215.59 32.6227L1161.59 1.69058L1215.59 -28.3988L1215.59 32.6227Z" fill="#DCEEED" stroke="#F0F0F0" stroke-width="0.25"/>
<path d="M1106.48 32.6953L1161.21 1.90175L1161.21 62.7138L1106.48 32.6953Z" fill="#99C2DF" stroke="#F0F0F0" stroke-width="0.25"/>
<path d="M1050.35 -59.2687L1050.71 1.47765L995.664 -28.9245L1050.35 -59.2687Z" fill="#CFE8E6" stroke="#F0F0F0" stroke-width="0.25"/>
<path d="M1104.97 -28.6157L1050.97 1.47809L1050.6 -59.2683L1104.97 -28.6157Z" fill="#C7E4E2" stroke="#F0F0F0" stroke-width="0.25"/>
<path d="M995.534 -28.7129L1050.59 1.69008L995.853 32.4814L995.534 -28.7129Z" fill="#E7F3F2" stroke="#F0F0F0" stroke-width="0.25"/>
<path d="M1050.97 62.7128L1050.97 1.90368L1104.97 32.8355L1050.97 62.7128Z" fill="#B7DCDA" stroke="#F0F0F0" stroke-width="0.25"/>
<path d="M1105.09 32.6227L1051.1 1.69058L1105.09 -28.3988L1105.09 32.6227Z" fill="#DCEEED" stroke="#F0F0F0" stroke-width="0.25"/>
<path d="M995.984 32.6953L1050.71 1.90175L1050.71 62.7138L995.984 32.6953Z" fill="#99C2DF" stroke="#F0F0F0" stroke-width="0.25"/>
<path d="M939.388 -59.2687L939.753 1.47765L884.703 -28.9245L939.388 -59.2687Z" fill="#62718F" stroke="#F0F0F0" stroke-width="0.25"/>
<path d="M994.005 -28.6157L940.006 1.47809L939.641 -59.2683L994.005 -28.6157Z" fill="#394C71" stroke="#F0F0F0" stroke-width="0.25"/>
<path d="M884.573 -28.7129L939.624 1.69008L884.892 32.4814L884.573 -28.7129Z" fill="#B6BDCB" stroke="#F0F0F0" stroke-width="0.25"/>
<path d="M940.008 62.7128L940.008 1.90368L994.006 32.8355L940.008 62.7128Z" fill="#62718F" stroke="#F0F0F0" stroke-width="0.25"/>
<path d="M994.134 32.6227L940.135 1.69058L994.134 -28.3988L994.134 32.6227Z" fill="#9CA5B8" stroke="#F0F0F0" stroke-width="0.25"/>
<path d="M885.023 32.6953L939.754 1.90175L939.754 62.7138L885.023 32.6953Z" fill="#25385C" stroke="#F0F0F0" stroke-width="0.25"/>
<path d="M828.427 -59.2687L828.792 1.47765L773.743 -28.9245L828.427 -59.2687Z" fill="#78CCBA" stroke="#F0F0F0" stroke-width="0.25"/>
<path d="M883.044 -28.6157L829.045 1.47809L828.681 -59.2683L883.044 -28.6157Z" fill="#40B79E" stroke="#F0F0F0" stroke-width="0.25"/>
<path d="M773.613 -28.7129L828.663 1.69008L773.931 32.4814L773.613 -28.7129Z" fill="#AADFD4" stroke="#F0F0F0" stroke-width="0.25"/>
<path d="M829.047 62.7128L829.047 1.90368L883.045 32.8355L829.047 62.7128Z" fill="#40B79E" stroke="#F0F0F0" stroke-width="0.25"/>
<path d="M883.173 32.6227L829.174 1.69058L883.173 -28.3988L883.173 32.6227Z" fill="#78CCBA" stroke="#F0F0F0" stroke-width="0.25"/>
<path d="M774.062 32.6953L828.793 1.90175L828.793 62.7138L774.062 32.6953Z" fill="#008066" stroke="#F0F0F0" stroke-width="0.25"/>
<path d="M717.466 -59.2687L717.831 1.47765L662.782 -28.9245L717.466 -59.2687Z" fill="#CFE8E6" stroke="#F0F0F0" stroke-width="0.25"/>
<path d="M772.084 -28.6157L718.085 1.47809L717.72 -59.2683L772.084 -28.6157Z" fill="#C7E4E2" stroke="#F0F0F0" stroke-width="0.25"/>
<path d="M662.652 -28.7129L717.702 1.69008L662.97 32.4814L662.652 -28.7129Z" fill="#E7F3F2" stroke="#F0F0F0" stroke-width="0.25"/>
<path d="M718.086 62.7128L718.086 1.90368L772.084 32.8355L718.086 62.7128Z" fill="#B7DCDA" stroke="#F0F0F0" stroke-width="0.25"/>
<path d="M772.212 32.6227L718.213 1.69058L772.212 -28.3988L772.212 32.6227Z" fill="#DCEEED" stroke="#F0F0F0" stroke-width="0.25"/>
<path d="M663.102 32.6953L717.832 1.90175L717.832 62.7138L663.102 32.6953Z" fill="#99C2DF" stroke="#F0F0F0" stroke-width="0.25"/>
<path d="M606.97 -59.2687L607.335 1.47765L552.285 -28.9245L606.97 -59.2687Z" fill="#CFE8E6" stroke="#F0F0F0" stroke-width="0.25"/>
<path d="M661.587 -28.6157L607.588 1.47809L607.223 -59.2683L661.587 -28.6157Z" fill="#C7E4E2" stroke="#F0F0F0" stroke-width="0.25"/>
<path d="M552.155 -28.7129L607.206 1.69008L552.473 32.4814L552.155 -28.7129Z" fill="#E7F3F2" stroke="#F0F0F0" stroke-width="0.25"/>
<path d="M607.589 62.7128L607.589 1.90368L661.588 32.8355L607.589 62.7128Z" fill="#B7DCDA" stroke="#F0F0F0" stroke-width="0.25"/>
<path d="M661.716 32.6227L607.717 1.69058L661.716 -28.3988L661.716 32.6227Z" fill="#DCEEED" stroke="#F0F0F0" stroke-width="0.25"/>
<path d="M552.605 32.6953L607.336 1.90175L607.336 62.7138L552.605 32.6953Z" fill="#99C2DF" stroke="#F0F0F0" stroke-width="0.25"/>
<path d="M495.545 -59.733L495.909 1.01343L440.86 -29.3888L495.545 -59.733Z" fill="#E8AFAC" stroke="#F0F0F0" stroke-width="0.25"/>
<path d="M550.162 -29.08L496.163 1.01387L495.798 -59.7326L550.162 -29.08Z" fill="#C34833" stroke="#F0F0F0" stroke-width="0.25"/>
<path d="M440.73 -29.1771L495.781 1.22586L441.048 32.0172L440.73 -29.1771Z" fill="#F1CCCB" stroke="#F0F0F0" stroke-width="0.25"/>
<path d="M496.164 62.2486L496.164 1.43946L550.163 32.3713L496.164 62.2486Z" fill="#D36D63" stroke="#F0F0F0" stroke-width="0.25"/>
<path d="M550.291 32.1585L496.292 1.22636L550.291 -28.8631L550.291 32.1585Z" fill="#DF908B" stroke="#F0F0F0" stroke-width="0.25"/>
<path d="M441.18 32.2311L495.911 1.43753L495.911 62.2495L441.18 32.2311Z" fill="#AC3619" stroke="#F0F0F0" stroke-width="0.25"/>
<path d="M385.048 -59.2687L385.413 1.47765L330.364 -28.9245L385.048 -59.2687Z" fill="#CFE8E6" stroke="#F0F0F0" stroke-width="0.25"/>
<path d="M439.665 -28.6157L385.666 1.47809L385.302 -59.2683L439.665 -28.6157Z" fill="#C7E4E2" stroke="#F0F0F0" stroke-width="0.25"/>
<path d="M330.234 -28.7129L385.284 1.69008L330.552 32.4814L330.234 -28.7129Z" fill="#E7F3F2" stroke="#F0F0F0" stroke-width="0.25"/>
<path d="M385.668 62.7128L385.668 1.90368L439.666 32.8355L385.668 62.7128Z" fill="#B7DCDA" stroke="#F0F0F0" stroke-width="0.25"/>
<path d="M439.794 32.6227L385.795 1.69058L439.794 -28.3988L439.794 32.6227Z" fill="#DCEEED" stroke="#F0F0F0" stroke-width="0.25"/>
<path d="M330.683 32.6953L385.414 1.90175L385.414 62.7138L330.683 32.6953Z" fill="#99C2DF" stroke="#F0F0F0" stroke-width="0.25"/>
<path d="M274.087 -59.2687L274.452 1.47765L219.403 -28.9245L274.087 -59.2687Z" fill="#CFE8E6" stroke="#F0F0F0" stroke-width="0.25"/>
<path d="M328.704 -28.6157L274.705 1.47809L274.341 -59.2683L328.704 -28.6157Z" fill="#C7E4E2" stroke="#F0F0F0" stroke-width="0.25"/>
<path d="M219.273 -28.7129L274.323 1.69008L219.591 32.4814L219.273 -28.7129Z" fill="#E7F3F2" stroke="#F0F0F0" stroke-width="0.25"/>
<path d="M274.707 62.7128L274.707 1.90368L328.705 32.8355L274.707 62.7128Z" fill="#B7DCDA" stroke="#F0F0F0" stroke-width="0.25"/>
<path d="M328.833 32.6227L274.834 1.69058L328.833 -28.3988L328.833 32.6227Z" fill="#DCEEED" stroke="#F0F0F0" stroke-width="0.25"/>
<path d="M219.722 32.6953L274.453 1.90175L274.453 62.7138L219.722 32.6953Z" fill="#99C2DF" stroke="#F0F0F0" stroke-width="0.25"/>
<path d="M163.591 -59.2687L163.955 1.47765L108.906 -28.9245L163.591 -59.2687Z" fill="#CFE8E6" stroke="#F0F0F0" stroke-width="0.25"/>
<path d="M218.208 -28.6157L164.209 1.47809L163.844 -59.2683L218.208 -28.6157Z" fill="#C7E4E2" stroke="#F0F0F0" stroke-width="0.25"/>
<path d="M108.776 -28.7129L163.827 1.69008L109.094 32.4814L108.776 -28.7129Z" fill="#E7F3F2" stroke="#F0F0F0" stroke-width="0.25"/>
<path d="M164.21 62.7128L164.21 1.90368L218.209 32.8355L164.21 62.7128Z" fill="#B7DCDA" stroke="#F0F0F0" stroke-width="0.25"/>
<path d="M218.337 32.6227L164.337 1.69058L218.337 -28.3988L218.337 32.6227Z" fill="#DCEEED" stroke="#F0F0F0" stroke-width="0.25"/>
<path d="M109.226 32.6953L163.957 1.90175L163.957 62.7138L109.226 32.6953Z" fill="#99C2DF" stroke="#F0F0F0" stroke-width="0.25"/>
<path d="M52.6297 -59.2687L52.9946 1.47765L-2.0547 -28.9245L52.6297 -59.2687Z" fill="#62718F" stroke="#F0F0F0" stroke-width="0.25"/>
<path d="M107.247 -28.6157L53.2481 1.47809L52.8832 -59.2683L107.247 -28.6157Z" fill="#394C71" stroke="#F0F0F0" stroke-width="0.25"/>
<path d="M-2.18478 -28.7129L52.8658 1.69008L-1.86653 32.4814L-2.18478 -28.7129Z" fill="#B6BDCB" stroke="#F0F0F0" stroke-width="0.25"/>
<path d="M53.2494 62.7128L53.2494 1.90368L107.248 32.8355L53.2494 62.7128Z" fill="#62718F" stroke="#F0F0F0" stroke-width="0.25"/>
<path d="M107.376 32.6227L53.3767 1.69058L107.376 -28.3988L107.376 32.6227Z" fill="#9CA5B8" stroke="#F0F0F0" stroke-width="0.25"/>
<path d="M-1.73491 32.6953L52.9959 1.90175L52.9959 62.7138L-1.73491 32.6953Z" fill="#25385C" stroke="#F0F0F0" stroke-width="0.25"/>
<path d="M1437.55 33.1107L1437.92 93.8571L1382.87 63.4549L1437.55 33.1107Z" fill="#62718F" stroke="#F0F0F0" stroke-width="0.25"/>
<path d="M1492.17 63.7637L1438.17 93.8576L1437.8 33.1111L1492.17 63.7637Z" fill="#394C71" stroke="#F0F0F0" stroke-width="0.25"/>
<path d="M1382.74 63.6666L1437.79 94.0695L1383.06 124.861L1382.74 63.6666Z" fill="#B6BDCB" stroke="#F0F0F0" stroke-width="0.25"/>
<path d="M1438.17 155.092L1438.17 94.2831L1492.17 125.215L1438.17 155.092Z" fill="#62718F" stroke="#F0F0F0" stroke-width="0.25"/>
<path d="M1492.3 125.002L1438.3 94.07L1492.3 63.9806L1492.3 125.002Z" fill="#9CA5B8" stroke="#F0F0F0" stroke-width="0.25"/>
<path d="M1383.19 125.075L1437.92 94.2812L1437.92 155.093L1383.19 125.075Z" fill="#25385C" stroke="#F0F0F0" stroke-width="0.25"/>
<path d="M1326.59 33.1107L1326.96 93.8571L1271.91 63.4549L1326.59 33.1107Z" fill="#CFE8E6" stroke="#F0F0F0" stroke-width="0.25"/>
<path d="M1381.21 63.7637L1327.21 93.8576L1326.84 33.1111L1381.21 63.7637Z" fill="#C7E4E2" stroke="#F0F0F0" stroke-width="0.25"/>
<path d="M1271.78 63.6666L1326.83 94.0695L1272.09 124.861L1271.78 63.6666Z" fill="#E7F3F2" stroke="#F0F0F0" stroke-width="0.25"/>
<path d="M1327.21 155.092L1327.21 94.2831L1381.21 125.215L1327.21 155.092Z" fill="#B7DCDA" stroke="#F0F0F0" stroke-width="0.25"/>
<path d="M1381.34 125.002L1327.34 94.07L1381.34 63.9806L1381.34 125.002Z" fill="#DCEEED" stroke="#F0F0F0" stroke-width="0.25"/>
<path d="M1272.23 125.075L1326.96 94.2812L1326.96 155.093L1272.23 125.075Z" fill="#99C2DF" stroke="#F0F0F0" stroke-width="0.25"/>
<path d="M1217.49 33.1107L1217.85 93.8571L1162.8 63.4549L1217.49 33.1107Z" fill="#CFE8E6" stroke="#F0F0F0" stroke-width="0.25"/>
<path d="M1272.1 63.7637L1218.1 93.8576L1217.74 33.1111L1272.1 63.7637Z" fill="#C7E4E2" stroke="#F0F0F0" stroke-width="0.25"/>
<path d="M1162.67 63.6666L1217.72 94.0695L1162.99 124.861L1162.67 63.6666Z" fill="#E7F3F2" stroke="#F0F0F0" stroke-width="0.25"/>
<path d="M1218.11 155.092L1218.11 94.2831L1272.1 125.215L1218.11 155.092Z" fill="#B7DCDA" stroke="#F0F0F0" stroke-width="0.25"/>
<path d="M1272.23 125.002L1218.23 94.07L1272.23 63.9806L1272.23 125.002Z" fill="#DCEEED" stroke="#F0F0F0" stroke-width="0.25"/>
<path d="M1163.12 125.075L1217.85 94.2812L1217.85 155.093L1163.12 125.075Z" fill="#99C2DF" stroke="#F0F0F0" stroke-width="0.25"/>
<path d="M1106.53 33.1107L1106.89 93.8571L1051.84 63.4549L1106.53 33.1107Z" fill="#E8AFAC" stroke="#F0F0F0" stroke-width="0.25"/>
<path d="M1161.14 63.7637L1107.14 93.8576L1106.78 33.1111L1161.14 63.7637Z" fill="#C34833" stroke="#F0F0F0" stroke-width="0.25"/>
<path d="M1051.71 63.6666L1106.76 94.0695L1052.03 124.861L1051.71 63.6666Z" fill="#F1CCCB" stroke="#F0F0F0" stroke-width="0.25"/>
<path d="M1107.15 155.092L1107.15 94.2831L1161.14 125.215L1107.15 155.092Z" fill="#D36D63" stroke="#F0F0F0" stroke-width="0.25"/>
<path d="M1161.27 125.002L1107.27 94.07L1161.27 63.9806L1161.27 125.002Z" fill="#DF908B" stroke="#F0F0F0" stroke-width="0.25"/>
<path d="M1052.16 125.075L1106.89 94.2812L1106.89 155.093L1052.16 125.075Z" fill="#AC3619" stroke="#F0F0F0" stroke-width="0.25"/>
<path d="M996.029 33.1107L996.394 93.8571L941.345 63.4549L996.029 33.1107Z" fill="#CFE8E6" stroke="#F0F0F0" stroke-width="0.25"/>
<path d="M1050.65 63.7637L996.647 93.8576L996.283 33.1111L1050.65 63.7637Z" fill="#C7E4E2" stroke="#F0F0F0" stroke-width="0.25"/>
<path d="M941.215 63.6666L996.265 94.0695L941.533 124.861L941.215 63.6666Z" fill="#E7F3F2" stroke="#F0F0F0" stroke-width="0.25"/>
<path d="M996.649 155.092L996.649 94.2831L1050.65 125.215L996.649 155.092Z" fill="#B7DCDA" stroke="#F0F0F0" stroke-width="0.25"/>
<path d="M1050.77 125.002L996.776 94.07L1050.77 63.9806L1050.77 125.002Z" fill="#DCEEED" stroke="#F0F0F0" stroke-width="0.25"/>
<path d="M941.664 125.075L996.395 94.2812L996.395 155.093L941.664 125.075Z" fill="#99C2DF" stroke="#F0F0F0" stroke-width="0.25"/>
<path d="M885.068 33.1107L885.433 93.8571L830.384 63.4549L885.068 33.1107Z" fill="#CFE8E6" stroke="#F0F0F0" stroke-width="0.25"/>
<path d="M939.685 63.7637L885.686 93.8576L885.322 33.1111L939.685 63.7637Z" fill="#C7E4E2" stroke="#F0F0F0" stroke-width="0.25"/>
<path d="M830.254 63.6666L885.304 94.0695L830.572 124.861L830.254 63.6666Z" fill="#E7F3F2" stroke="#F0F0F0" stroke-width="0.25"/>
<path d="M885.688 155.092L885.688 94.2831L939.686 125.215L885.688 155.092Z" fill="#B7DCDA" stroke="#F0F0F0" stroke-width="0.25"/>
<path d="M939.814 125.002L885.815 94.07L939.814 63.9806L939.814 125.002Z" fill="#DCEEED" stroke="#F0F0F0" stroke-width="0.25"/>
<path d="M830.703 125.075L885.434 94.2812L885.434 155.093L830.703 125.075Z" fill="#99C2DF" stroke="#F0F0F0" stroke-width="0.25"/>
<path d="M774.107 33.1107L774.472 93.8571L719.423 63.4549L774.107 33.1107Z" fill="#CFE8E6" stroke="#F0F0F0" stroke-width="0.25"/>
<path d="M828.725 63.7637L774.726 93.8576L774.361 33.1111L828.725 63.7637Z" fill="#C7E4E2" stroke="#F0F0F0" stroke-width="0.25"/>
<path d="M719.293 63.6666L774.343 94.0695L719.611 124.861L719.293 63.6666Z" fill="#E7F3F2" stroke="#F0F0F0" stroke-width="0.25"/>
<path d="M774.727 155.092L774.727 94.2831L828.726 125.215L774.727 155.092Z" fill="#B7DCDA" stroke="#F0F0F0" stroke-width="0.25"/>
<path d="M828.853 125.002L774.854 94.07L828.853 63.9806L828.853 125.002Z" fill="#DCEEED" stroke="#F0F0F0" stroke-width="0.25"/>
<path d="M719.743 125.075L774.474 94.2812L774.474 155.093L719.743 125.075Z" fill="#99C2DF" stroke="#F0F0F0" stroke-width="0.25"/>
<path d="M663.147 33.1107L663.511 93.8571L608.462 63.4549L663.147 33.1107Z" fill="#CFE8E6" stroke="#F0F0F0" stroke-width="0.25"/>
<path d="M717.764 63.7637L663.765 93.8576L663.4 33.1111L717.764 63.7637Z" fill="#C7E4E2" stroke="#F0F0F0" stroke-width="0.25"/>
<path d="M608.332 63.6666L663.383 94.0695L608.65 124.861L608.332 63.6666Z" fill="#E7F3F2" stroke="#F0F0F0" stroke-width="0.25"/>
<path d="M663.766 155.092L663.766 94.2831L717.765 125.215L663.766 155.092Z" fill="#B7DCDA" stroke="#F0F0F0" stroke-width="0.25"/>
<path d="M717.893 125.002L663.894 94.07L717.893 63.9806L717.893 125.002Z" fill="#DCEEED" stroke="#F0F0F0" stroke-width="0.25"/>
<path d="M608.782 125.075L663.513 94.2812L663.513 155.093L608.782 125.075Z" fill="#99C2DF" stroke="#F0F0F0" stroke-width="0.25"/>
<path d="M441.689 33.1107L442.054 93.8571L387.005 63.4549L441.689 33.1107Z" fill="#CFE8E6" stroke="#F0F0F0" stroke-width="0.25"/>
<path d="M496.306 63.7637L442.308 93.8576L441.943 33.1111L496.306 63.7637Z" fill="#C7E4E2" stroke="#F0F0F0" stroke-width="0.25"/>
<path d="M386.875 63.6666L441.925 94.0695L387.193 124.861L386.875 63.6666Z" fill="#E7F3F2" stroke="#F0F0F0" stroke-width="0.25"/>
<path d="M442.309 155.092L442.309 94.2831L496.307 125.215L442.309 155.092Z" fill="#B7DCDA" stroke="#F0F0F0" stroke-width="0.25"/>
<path d="M496.435 125.002L442.436 94.07L496.435 63.9806L496.435 125.002Z" fill="#DCEEED" stroke="#F0F0F0" stroke-width="0.25"/>
<path d="M387.325 125.075L442.055 94.2812L442.055 155.093L387.325 125.075Z" fill="#99C2DF" stroke="#F0F0F0" stroke-width="0.25"/>
<path d="M330.728 33.1107L331.093 93.8571L276.044 63.4549L330.728 33.1107Z" fill="#F7CF7D" stroke="#F0F0F0" stroke-width="0.25"/>
<path d="M385.346 63.7637L331.347 93.8576L330.982 33.1111L385.346 63.7637Z" fill="#DF9611" stroke="#F0F0F0" stroke-width="0.25"/>
<path d="M275.914 63.6666L330.964 94.0695L276.232 124.861L275.914 63.6666Z" fill="#FCECCB" stroke="#F0F0F0" stroke-width="0.25"/>
<path d="M331.348 155.092L331.348 94.2831L385.347 125.215L331.348 155.092Z" fill="#F4B12E" stroke="#F0F0F0" stroke-width="0.25"/>
<path d="M385.474 125.002L331.475 94.07L385.474 63.9806L385.474 125.002Z" fill="#F7CF7D" stroke="#F0F0F0" stroke-width="0.25"/>
<path d="M276.364 125.075L331.095 94.2812L331.095 155.093L276.364 125.075Z" fill="#DF9611" stroke="#F0F0F0" stroke-width="0.25"/>
<path d="M219.767 33.1107L220.132 93.8571L165.083 63.4549L219.767 33.1107Z" fill="#CFE8E6" stroke="#F0F0F0" stroke-width="0.25"/>
<path d="M274.385 63.7637L220.386 93.8576L220.021 33.1111L274.385 63.7637Z" fill="#C7E4E2" stroke="#F0F0F0" stroke-width="0.25"/>
<path d="M164.953 63.6666L220.004 94.0695L165.271 124.861L164.953 63.6666Z" fill="#E7F3F2" stroke="#F0F0F0" stroke-width="0.25"/>
<path d="M220.387 155.092L220.387 94.2831L274.386 125.215L220.387 155.092Z" fill="#B7DCDA" stroke="#F0F0F0" stroke-width="0.25"/>
<path d="M274.513 125.002L220.514 94.07L274.513 63.9806L274.513 125.002Z" fill="#DCEEED" stroke="#F0F0F0" stroke-width="0.25"/>
<path d="M165.403 125.075L220.134 94.2812L220.134 155.093L165.403 125.075Z" fill="#99C2DF" stroke="#F0F0F0" stroke-width="0.25"/>
<path d="M109.271 33.1107L109.636 93.8571L54.5864 63.4549L109.271 33.1107Z" fill="#CFE8E6" stroke="#F0F0F0" stroke-width="0.25"/>
<path d="M163.888 63.7637L109.889 93.8576L109.524 33.1111L163.888 63.7637Z" fill="#C7E4E2" stroke="#F0F0F0" stroke-width="0.25"/>
<path d="M54.4563 63.6666L109.507 94.0695L54.7746 124.861L54.4563 63.6666Z" fill="#E7F3F2" stroke="#F0F0F0" stroke-width="0.25"/>
<path d="M109.89 155.092L109.89 94.2831L163.889 125.215L109.89 155.092Z" fill="#B7DCDA" stroke="#F0F0F0" stroke-width="0.25"/>
<path d="M164.017 125.002L110.018 94.07L164.017 63.9806L164.017 125.002Z" fill="#DCEEED" stroke="#F0F0F0" stroke-width="0.25"/>
<path d="M54.9062 125.075L109.637 94.2812L109.637 155.093L54.9062 125.075Z" fill="#99C2DF" stroke="#F0F0F0" stroke-width="0.25"/>
<path d="M-1.68998 33.1107L-1.32512 93.8571L-56.3744 63.4549L-1.68998 33.1107Z" fill="#CFE8E6" stroke="#F0F0F0" stroke-width="0.25"/>
<path d="M52.9273 63.7637L-1.07162 93.8576L-1.43648 33.1111L52.9273 63.7637Z" fill="#C7E4E2" stroke="#F0F0F0" stroke-width="0.25"/>
<path d="M-1.07034 155.092L-1.07035 94.2831L52.9282 125.215L-1.07034 155.092Z" fill="#B7DCDA" stroke="#F0F0F0" stroke-width="0.25"/>
<path d="M53.056 125.002L-0.943038 94.07L53.056 63.9806L53.056 125.002Z" fill="#DCEEED" stroke="#F0F0F0" stroke-width="0.25"/>
<path d="M-56.0546 125.075L-1.32382 94.2812L-1.32382 155.093L-56.0546 125.075Z" fill="#99C2DF" stroke="#F0F0F0" stroke-width="0.25"/>
<path d="M1382.77 125.49L1383.13 186.237L1328.08 155.834L1382.77 125.49Z" fill="#F7CF7D" stroke="#F0F0F0" stroke-width="0.25"/>
<path d="M1437.38 156.143L1383.39 186.237L1383.02 125.491L1437.38 156.143Z" fill="#DF9611" stroke="#F0F0F0" stroke-width="0.25"/>
<path d="M1327.95 156.046L1383 186.449L1328.27 217.24L1327.95 156.046Z" fill="#FCECCB" stroke="#F0F0F0" stroke-width="0.25"/>
<path d="M1383.39 247.472L1383.39 186.663L1437.39 217.594L1383.39 247.472Z" fill="#F4B12E" stroke="#F0F0F0" stroke-width="0.25"/>
<path d="M1437.51 217.382L1383.51 186.45L1437.51 156.36L1437.51 217.382Z" fill="#F7CF7D" stroke="#F0F0F0" stroke-width="0.25"/>
<path d="M1328.4 217.454L1383.13 186.661L1383.13 247.473L1328.4 217.454Z" fill="#DF9611" stroke="#F0F0F0" stroke-width="0.25"/>
<path d="M1051.28 125.49L1051.64 186.237L996.593 155.834L1051.28 125.49Z" fill="#CFE8E6" stroke="#F0F0F0" stroke-width="0.25"/>
<path d="M1105.89 156.143L1051.9 186.237L1051.53 125.491L1105.89 156.143Z" fill="#C7E4E2" stroke="#F0F0F0" stroke-width="0.25"/>
<path d="M996.463 156.046L1051.51 186.449L996.781 217.24L996.463 156.046Z" fill="#E7F3F2" stroke="#F0F0F0" stroke-width="0.25"/>
<path d="M1051.9 247.472L1051.9 186.663L1105.9 217.594L1051.9 247.472Z" fill="#B7DCDA" stroke="#F0F0F0" stroke-width="0.25"/>
<path d="M1106.02 217.382L1052.02 186.45L1106.02 156.36L1106.02 217.382Z" fill="#DCEEED" stroke="#F0F0F0" stroke-width="0.25"/>
<path d="M996.913 217.454L1051.64 186.661L1051.64 247.473L996.913 217.454Z" fill="#99C2DF" stroke="#F0F0F0" stroke-width="0.25"/>
<path d="M830.284 125.49L830.649 186.237L775.6 155.834L830.284 125.49Z" fill="#CFE8E6" stroke="#F0F0F0" stroke-width="0.25"/>
<path d="M884.901 156.143L830.903 186.237L830.538 125.491L884.901 156.143Z" fill="#C7E4E2" stroke="#F0F0F0" stroke-width="0.25"/>
<path d="M775.47 156.046L830.52 186.449L775.788 217.24L775.47 156.046Z" fill="#E7F3F2" stroke="#F0F0F0" stroke-width="0.25"/>
<path d="M830.904 247.472L830.904 186.663L884.902 217.594L830.904 247.472Z" fill="#B7DCDA" stroke="#F0F0F0" stroke-width="0.25"/>
<path d="M885.03 217.382L831.031 186.45L885.03 156.36L885.03 217.382Z" fill="#DCEEED" stroke="#F0F0F0" stroke-width="0.25"/>
<path d="M775.92 217.454L830.65 186.661L830.65 247.473L775.92 217.454Z" fill="#99C2DF" stroke="#F0F0F0" stroke-width="0.25"/>
<path d="M386.905 125.49L387.27 186.237L332.221 155.834L386.905 125.49Z" fill="#CFE8E6" stroke="#F0F0F0" stroke-width="0.25"/>
<path d="M441.522 156.143L387.523 186.237L387.159 125.491L441.522 156.143Z" fill="#C7E4E2" stroke="#F0F0F0" stroke-width="0.25"/>
<path d="M332.091 156.046L387.141 186.449L332.409 217.24L332.091 156.046Z" fill="#E7F3F2" stroke="#F0F0F0" stroke-width="0.25"/>
<path d="M387.525 247.472L387.525 186.663L441.523 217.594L387.525 247.472Z" fill="#B7DCDA" stroke="#F0F0F0" stroke-width="0.25"/>
<path d="M441.651 217.382L387.652 186.45L441.651 156.36L441.651 217.382Z" fill="#DCEEED" stroke="#F0F0F0" stroke-width="0.25"/>
<path d="M332.54 217.454L387.271 186.661L387.271 247.473L332.54 217.454Z" fill="#99C2DF" stroke="#F0F0F0" stroke-width="0.25"/>
<path d="M275.944 125.49L276.309 186.237L221.26 155.834L275.944 125.49Z" fill="#CFE8E6" stroke="#F0F0F0" stroke-width="0.25"/>
<path d="M330.562 156.143L276.563 186.237L276.198 125.491L330.562 156.143Z" fill="#C7E4E2" stroke="#F0F0F0" stroke-width="0.25"/>
<path d="M221.13 156.046L276.18 186.449L221.448 217.24L221.13 156.046Z" fill="#E7F3F2" stroke="#F0F0F0" stroke-width="0.25"/>
<path d="M276.564 247.472L276.564 186.663L330.562 217.594L276.564 247.472Z" fill="#B7DCDA" stroke="#F0F0F0" stroke-width="0.25"/>
<path d="M330.69 217.382L276.691 186.45L330.69 156.36L330.69 217.382Z" fill="#DCEEED" stroke="#F0F0F0" stroke-width="0.25"/>
<path d="M221.58 217.454L276.31 186.661L276.31 247.473L221.58 217.454Z" fill="#99C2DF" stroke="#F0F0F0" stroke-width="0.25"/>
<path d="M164.519 125.49L164.884 186.237L109.835 155.834L164.519 125.49Z" fill="#78CCBA" stroke="#F0F0F0" stroke-width="0.25"/>
<path d="M219.136 156.143L165.137 186.237L164.773 125.491L219.136 156.143Z" fill="#40B79E" stroke="#F0F0F0" stroke-width="0.25"/>
<path d="M109.705 156.046L164.755 186.449L110.023 217.24L109.705 156.046Z" fill="#AADFD4" stroke="#F0F0F0" stroke-width="0.25"/>
<path d="M165.139 247.472L165.139 186.663L219.137 217.594L165.139 247.472Z" fill="#40B79E" stroke="#F0F0F0" stroke-width="0.25"/>
<path d="M219.265 217.382L165.266 186.45L219.265 156.36L219.265 217.382Z" fill="#78CCBA" stroke="#F0F0F0" stroke-width="0.25"/>
<path d="M110.154 217.454L164.885 186.661L164.885 247.473L110.154 217.454Z" fill="#008066" stroke="#F0F0F0" stroke-width="0.25"/>
<path d="M53.5583 125.49L53.9232 186.237L-1.12611 155.834L53.5583 125.49Z" fill="#CFE8E6" stroke="#F0F0F0" stroke-width="0.25"/>
<path d="M108.176 156.143L54.1767 186.237L53.8118 125.491L108.176 156.143Z" fill="#C7E4E2" stroke="#F0F0F0" stroke-width="0.25"/>
<path d="M-1.25619 156.046L53.7944 186.449L-0.937945 217.24L-1.25619 156.046Z" fill="#E7F3F2" stroke="#F0F0F0" stroke-width="0.25"/>
<path d="M54.178 247.472L54.1779 186.663L108.176 217.594L54.178 247.472Z" fill="#B7DCDA" stroke="#F0F0F0" stroke-width="0.25"/>
<path d="M108.304 217.382L54.3053 186.45L108.304 156.36L108.304 217.382Z" fill="#DCEEED" stroke="#F0F0F0" stroke-width="0.25"/>
<path d="M-0.806325 217.454L53.9245 186.661L53.9245 247.473L-0.806325 217.454Z" fill="#99C2DF" stroke="#F0F0F0" stroke-width="0.25"/>
<path d="M1438.6 217.87L1438.97 278.616L1383.92 248.214L1438.6 217.87Z" fill="#E8AFAC" stroke="#F0F0F0" stroke-width="0.25"/>
<path d="M1493.22 248.523L1439.22 278.616L1438.86 217.87L1493.22 248.523Z" fill="#C34833" stroke="#F0F0F0" stroke-width="0.25"/>
<path d="M1383.79 248.426L1438.84 278.828L1384.11 309.62L1383.79 248.426Z" fill="#F1CCCB" stroke="#F0F0F0" stroke-width="0.25"/>
<path d="M1439.22 339.851L1439.22 279.042L1493.22 309.974L1439.22 339.851Z" fill="#D36D63" stroke="#F0F0F0" stroke-width="0.25"/>
<path d="M1493.35 309.761L1439.35 278.829L1493.35 248.74L1493.35 309.761Z" fill="#DF908B" stroke="#F0F0F0" stroke-width="0.25"/>
<path d="M1384.24 309.834L1438.97 279.04L1438.97 339.852L1384.24 309.834Z" fill="#AC3619" stroke="#F0F0F0" stroke-width="0.25"/>
<path d="M1218.88 217.405L1219.24 278.152L1164.19 247.75L1218.88 217.405Z" fill="#78CCBA" stroke="#F0F0F0" stroke-width="0.25"/>
<path d="M1273.5 248.058L1219.5 278.152L1219.13 217.406L1273.5 248.058Z" fill="#40B79E" stroke="#F0F0F0" stroke-width="0.25"/>
<path d="M1164.06 247.961L1219.12 278.364L1164.38 309.156L1164.06 247.961Z" fill="#AADFD4" stroke="#F0F0F0" stroke-width="0.25"/>
<path d="M1219.5 339.387L1219.5 278.578L1273.5 309.51L1219.5 339.387Z" fill="#40B79E" stroke="#F0F0F0" stroke-width="0.25"/>
<path d="M1273.63 309.297L1219.63 278.365L1273.63 248.275L1273.63 309.297Z" fill="#78CCBA" stroke="#F0F0F0" stroke-width="0.25"/>
<path d="M1164.51 309.369L1219.25 278.576L1219.25 339.388L1164.51 309.369Z" fill="#008066" stroke="#F0F0F0" stroke-width="0.25"/>
<path d="M1107.92 218.334L1108.28 279.08L1053.23 248.678L1107.92 218.334Z" fill="#CFE8E6" stroke="#F0F0F0" stroke-width="0.25"/>
<path d="M1162.54 248.987L1108.54 279.081L1108.17 218.334L1162.54 248.987Z" fill="#C7E4E2" stroke="#F0F0F0" stroke-width="0.25"/>
<path d="M1053.1 248.89L1108.15 279.293L1053.42 310.084L1053.1 248.89Z" fill="#E7F3F2" stroke="#F0F0F0" stroke-width="0.25"/>
<path d="M1108.54 340.315L1108.54 279.506L1162.54 310.438L1108.54 340.315Z" fill="#B7DCDA" stroke="#F0F0F0" stroke-width="0.25"/>
<path d="M1162.66 310.225L1108.67 279.293L1162.66 249.204L1162.66 310.225Z" fill="#DCEEED" stroke="#F0F0F0" stroke-width="0.25"/>
<path d="M1053.55 310.298L1108.28 279.504L1108.28 340.316L1053.55 310.298Z" fill="#99C2DF" stroke="#F0F0F0" stroke-width="0.25"/>
<path d="M110.199 217.87L110.564 278.616L55.515 248.214L110.199 217.87Z" fill="#CFE8E6" stroke="#F0F0F0" stroke-width="0.25"/>
<path d="M164.817 248.523L110.818 278.616L110.453 217.87L164.817 248.523Z" fill="#C7E4E2" stroke="#F0F0F0" stroke-width="0.25"/>
<path d="M55.3849 248.426L110.436 278.828L55.7032 309.62L55.3849 248.426Z" fill="#E7F3F2" stroke="#F0F0F0" stroke-width="0.25"/>
<path d="M110.819 339.851L110.819 279.042L164.818 309.974L110.819 339.851Z" fill="#B7DCDA" stroke="#F0F0F0" stroke-width="0.25"/>
<path d="M164.945 309.761L110.946 278.829L164.945 248.74L164.945 309.761Z" fill="#DCEEED" stroke="#F0F0F0" stroke-width="0.25"/>
<path d="M55.8348 309.834L110.566 279.04L110.566 339.852L55.8348 309.834Z" fill="#99C2DF" stroke="#F0F0F0" stroke-width="0.25"/>
<path d="M0.167197 217.87L0.532053 278.616L-54.5172 248.214L0.167197 217.87Z" fill="#E8AFAC" stroke="#F0F0F0" stroke-width="0.25"/>
<path d="M54.7845 248.523L0.78556 278.616L0.420698 217.87L54.7845 248.523Z" fill="#C34833" stroke="#F0F0F0" stroke-width="0.25"/>
<path d="M-54.6473 248.426L0.4033 278.828L-54.3291 309.62L-54.6473 248.426Z" fill="#F1CCCB" stroke="#F0F0F0" stroke-width="0.25"/>
<path d="M0.786837 339.851L0.786829 279.042L54.7853 309.974L0.786837 339.851Z" fill="#D36D63" stroke="#F0F0F0" stroke-width="0.25"/>
<path d="M54.9132 309.761L0.91414 278.829L54.9132 248.74L54.9132 309.761Z" fill="#DF908B" stroke="#F0F0F0" stroke-width="0.25"/>
<path d="M-54.1974 309.834L0.533355 279.04L0.533358 339.852L-54.1974 309.834Z" fill="#AC3619" stroke="#F0F0F0" stroke-width="0.25"/>
<path d="M55.4154 310.113L55.7802 370.86L0.730941 340.457L55.4154 310.113Z" fill="#F7CF7D" stroke="#F0F0F0" stroke-width="0.25"/>
<path d="M110.033 340.766L56.0337 370.86L55.6689 310.114L110.033 340.766Z" fill="#DF9611" stroke="#F0F0F0" stroke-width="0.25"/>
<path d="M0.600868 340.669L55.6515 371.072L0.91911 401.863L0.600868 340.669Z" fill="#FCECCB" stroke="#F0F0F0" stroke-width="0.25"/>
<path d="M56.035 432.095L56.035 371.286L110.034 402.217L56.035 432.095Z" fill="#F4B12E" stroke="#F0F0F0" stroke-width="0.25"/>
<path d="M110.161 402.005L56.1623 371.072L110.161 340.983L110.161 402.005Z" fill="#F7CF7D" stroke="#F0F0F0" stroke-width="0.25"/>
<path d="M1.05073 402.077L55.7815 371.284L55.7815 432.096L1.05073 402.077Z" fill="#DF9611" stroke="#F0F0F0" stroke-width="0.25"/>
</g>
<defs>
<filter id="filter0_d_887_3039" x="-65" y="-60" width="1567.13" height="509" filterUnits="userSpaceOnUse" color-interpolation-filters="sRGB">
<feFlood flood-opacity="0" result="BackgroundImageFix"/>
<feColorMatrix in="SourceAlpha" type="matrix" values="0 0 0 0 0 0 0 0 0 0 0 0 0 0 0 0 0 0 127 0" result="hardAlpha"/>
<feOffset dy="8"/>
<feGaussianBlur stdDeviation="4"/>
<feComposite in2="hardAlpha" operator="out"/>
<feColorMatrix type="matrix" values="0 0 0 0 0 0 0 0 0 0 0 0 0 0 0 0 0 0 0.3 0"/>
<feBlend mode="normal" in2="BackgroundImageFix" result="effect1_dropShadow_887_3039"/>
<feBlend mode="normal" in="SourceGraphic" in2="effect1_dropShadow_887_3039" result="shape"/>
</filter>
</defs>
</svg>
