<svg width="2560" height="1031" viewBox="0 0 2560 1031" fill="none" xmlns="http://www.w3.org/2000/svg">
<g filter="url(#filter0_d_1027_4102)">
<g class="hex hex-77">
<path d="M2156.08 -74.3892L2156.52 -0.880854L2089.91 -37.6701L2156.08 -74.3892Z" fill="#F7CF7D" stroke="#F0F0F0" stroke-width="0.5"/>
<path d="M2222.01 -37.2167L2157.26 -1.13003L2156.82 -73.9734L2222.01 -37.2167Z" fill="#DF9611" stroke="#F0F0F0" stroke-width="0.5"/>
<path d="M2089.98 -36.5949L2155.85 -0.380405L2090.36 36.2968L2089.98 -36.5949Z" fill="#FCECCB" stroke="#F0F0F0" stroke-width="0.5"/>
<path d="M2157.37 72.993L2157.37 0.544976L2221.7 37.3971L2157.37 72.993Z" fill="#F4B12E" stroke="#F0F0F0" stroke-width="0.5"/>
<path d="M2222.13 36.5682L2158.04 -0.375824L2222.13 -36.3133L2222.13 36.5682Z" fill="#F7CF7D" stroke="#F0F0F0" stroke-width="0.5"/>
<path d="M2091.52 37.1411L2156.12 0.796644L2156.12 72.5707L2091.52 37.1411Z" fill="#DF9611" stroke="#F0F0F0" stroke-width="0.5"/>
</g>
<g class="hex hex-76">
<path d="M1885.63 -74.3892L1886.07 -0.880854L1819.46 -37.6701L1885.63 -74.3892Z" fill="#CFE8E6" stroke="#F0F0F0" stroke-width="0.5"/>
<path d="M1951.56 -37.2167L1886.81 -1.13003L1886.37 -73.9734L1951.56 -37.2167Z" fill="#C7E4E2" stroke="#F0F0F0" stroke-width="0.5"/>
<path d="M1819.53 -36.5949L1885.4 -0.380405L1819.91 36.2968L1819.53 -36.5949Z" fill="#E7F3F2" stroke="#F0F0F0" stroke-width="0.5"/>
<path d="M1886.92 72.993L1886.92 0.544976L1951.25 37.3971L1886.92 72.993Z" fill="#B7DCDA" stroke="#F0F0F0" stroke-width="0.5"/>
<path d="M1951.67 36.5682L1887.59 -0.375824L1951.67 -36.3133L1951.67 36.5682Z" fill="#DCEEED" stroke="#F0F0F0" stroke-width="0.5"/>
<path d="M1821.07 37.1411L1885.67 0.796644L1885.67 72.5707L1821.07 37.1411Z" fill="#99C2DF" stroke="#F0F0F0" stroke-width="0.5"/>
</g>
<g class="hex hex-75">
<path d="M2561.19 -74.3892L2561.63 -0.880854L2495.02 -37.6701L2561.19 -74.3892Z" fill="#CFE8E6" stroke="#F0F0F0" stroke-width="0.5"/>
<path d="M2627.12 -37.2167L2562.37 -1.13003L2561.93 -73.9734L2627.12 -37.2167Z" fill="#C7E4E2" stroke="#F0F0F0" stroke-width="0.5"/>
<path d="M2495.09 -36.5949L2560.96 -0.380405L2495.47 36.2968L2495.09 -36.5949Z" fill="#E7F3F2" stroke="#F0F0F0" stroke-width="0.5"/>
<path d="M2562.48 72.993L2562.48 0.544976L2626.81 37.3971L2562.48 72.993Z" fill="#B7DCDA" stroke="#F0F0F0" stroke-width="0.5"/>
<path d="M2496.63 37.1411L2561.23 0.796644L2561.23 72.5707L2496.63 37.1411Z" fill="#99C2DF" stroke="#F0F0F0" stroke-width="0.5"/>
</g>
<g class="hex hex-74">
<path d="M2426.71 -74.3892L2427.15 -0.880854L2360.53 -37.6701L2426.71 -74.3892Z" fill="#CFE8E6" stroke="#F0F0F0" stroke-width="0.5"/>
<path d="M2492.64 -37.2167L2427.89 -1.13003L2427.45 -73.9734L2492.64 -37.2167Z" fill="#C7E4E2" stroke="#F0F0F0" stroke-width="0.5"/>
<path d="M2360.6 -36.5949L2426.47 -0.380405L2360.99 36.2968L2360.6 -36.5949Z" fill="#E7F3F2" stroke="#F0F0F0" stroke-width="0.5"/>
<path d="M2427.99 72.993L2427.99 0.544976L2492.33 37.3971L2427.99 72.993Z" fill="#B7DCDA" stroke="#F0F0F0" stroke-width="0.5"/>
<path d="M2492.75 36.5682L2428.67 -0.375824L2492.75 -36.3133L2492.75 36.5682Z" fill="#DCEEED" stroke="#F0F0F0" stroke-width="0.5"/>
<path d="M2362.15 37.1411L2426.74 0.796644L2426.74 72.5707L2362.15 37.1411Z" fill="#99C2DF" stroke="#F0F0F0" stroke-width="0.5"/>
</g>
<g class="hex hex-73">
<path d="M2291.31 -74.3892L2291.75 -0.880854L2225.13 -37.6701L2291.31 -74.3892Z" fill="#CFE8E6" stroke="#F0F0F0" stroke-width="0.5"/>
<path d="M2357.24 -37.2167L2292.49 -1.13003L2292.05 -73.9734L2357.24 -37.2167Z" fill="#C7E4E2" stroke="#F0F0F0" stroke-width="0.5"/>
<path d="M2225.2 -36.5949L2291.07 -0.380405L2225.58 36.2968L2225.2 -36.5949Z" fill="#E7F3F2" stroke="#F0F0F0" stroke-width="0.5"/>
<path d="M2292.59 72.993L2292.59 0.544976L2356.93 37.3971L2292.59 72.993Z" fill="#B7DCDA" stroke="#F0F0F0" stroke-width="0.5"/>
<path d="M2357.35 36.5682L2293.27 -0.375824L2357.35 -36.3133L2357.35 36.5682Z" fill="#DCEEED" stroke="#F0F0F0" stroke-width="0.5"/>
<path d="M2226.75 37.1411L2291.34 0.796644L2291.34 72.5707L2226.75 37.1411Z" fill="#99C2DF" stroke="#F0F0F0" stroke-width="0.5"/>
</g>
<g class="hex hex-72">
<path d="M2020.86 -74.3892L2021.3 -0.880854L1954.68 -37.6701L2020.86 -74.3892Z" fill="#CFE8E6" stroke="#F0F0F0" stroke-width="0.5"/>
<path d="M2086.79 -37.2167L2022.04 -1.13003L2021.6 -73.9734L2086.79 -37.2167Z" fill="#C7E4E2" stroke="#F0F0F0" stroke-width="0.5"/>
<path d="M1954.75 -36.5949L2020.62 -0.380405L1955.13 36.2968L1954.75 -36.5949Z" fill="#E7F3F2" stroke="#F0F0F0" stroke-width="0.5"/>
<path d="M2022.14 72.993L2022.14 0.544976L2086.47 37.3971L2022.14 72.993Z" fill="#B7DCDA" stroke="#F0F0F0" stroke-width="0.5"/>
<path d="M2086.9 36.5682L2022.82 -0.375824L2086.9 -36.3133L2086.9 36.5682Z" fill="#DCEEED" stroke="#F0F0F0" stroke-width="0.5"/>
<path d="M1956.3 37.1411L2020.89 0.796644L2020.89 72.5707L1956.3 37.1411Z" fill="#99C2DF" stroke="#F0F0F0" stroke-width="0.5"/>
</g>
<g class="hex hex-71">
<path d="M1751.23 -74.3892L1751.67 -0.880854L1685.06 -37.6701L1751.23 -74.3892Z" fill="#CFE8E6" stroke="#F0F0F0" stroke-width="0.5"/>
<path d="M1817.16 -37.2167L1752.41 -1.13003L1751.97 -73.9734L1817.16 -37.2167Z" fill="#C7E4E2" stroke="#F0F0F0" stroke-width="0.5"/>
<path d="M1685.13 -36.5949L1751 -0.380405L1685.51 36.2968L1685.13 -36.5949Z" fill="#E7F3F2" stroke="#F0F0F0" stroke-width="0.5"/>
<path d="M1752.52 72.993L1752.52 0.544976L1816.85 37.3971L1752.52 72.993Z" fill="#B7DCDA" stroke="#F0F0F0" stroke-width="0.5"/>
<path d="M1817.28 36.5682L1753.2 -0.375824L1817.28 -36.3133L1817.28 36.5682Z" fill="#DCEEED" stroke="#F0F0F0" stroke-width="0.5"/>
<path d="M1686.67 37.1411L1751.27 0.796644L1751.27 72.5707L1686.67 37.1411Z" fill="#99C2DF" stroke="#F0F0F0" stroke-width="0.5"/>
</g>
<g class="hex hex-70">
<path d="M1616.18 -74.721L1616.62 -0.598146L1549.45 -37.695L1616.18 -74.721Z" fill="#62718F" stroke="#F0F0F0" stroke-width="0.25"/>
<path d="M1682.76 -37.3186L1616.87 -0.5977L1616.43 -74.7212L1682.76 -37.3186Z" fill="#394C71" stroke="#F0F0F0" stroke-width="0.25"/>
<path d="M1549.32 -37.4833L1616.49 -0.385723L1549.71 37.1858L1549.32 -37.4833Z" fill="#B6BDCB" stroke="#F0F0F0" stroke-width="0.25"/>
<path d="M1616.88 74.028L1616.88 -0.172122L1682.77 37.5713L1616.88 74.028Z" fill="#62718F" stroke="#F0F0F0" stroke-width="0.25"/>
<path d="M1682.89 37.3585L1617 -0.385231L1682.89 -37.1007L1682.89 37.3585Z" fill="#9CA5B8" stroke="#F0F0F0" stroke-width="0.25"/>
<path d="M1549.84 37.4003L1616.62 -0.174053L1616.62 74.029L1549.84 37.4003Z" fill="#25385C" stroke="#F0F0F0" stroke-width="0.25"/>
</g>
<g class="hex hex-69">
<path d="M1483.05 -74.3892L1483.49 -0.880854L1416.87 -37.6701L1483.05 -74.3892Z" fill="#78CCBA" stroke="#F0F0F0" stroke-width="0.5"/>
<path d="M1548.98 -37.2167L1484.22 -1.13003L1483.79 -73.9734L1548.98 -37.2167Z" fill="#40B79E" stroke="#F0F0F0" stroke-width="0.5"/>
<path d="M1416.94 -36.5949L1482.81 -0.380405L1417.32 36.2968L1416.94 -36.5949Z" fill="#AADFD4" stroke="#F0F0F0" stroke-width="0.5"/>
<path d="M1484.33 72.993L1484.33 0.544976L1548.66 37.3971L1484.33 72.993Z" fill="#40B79E" stroke="#F0F0F0" stroke-width="0.5"/>
<path d="M1549.09 36.5682L1485.01 -0.375824L1549.09 -36.3133L1549.09 36.5682Z" fill="#78CCBA" stroke="#F0F0F0" stroke-width="0.5"/>
<path d="M1418.49 37.1411L1483.08 0.796644L1483.08 72.5707L1418.49 37.1411Z" fill="#008066" stroke="#F0F0F0" stroke-width="0.5"/>
</g>
<g class="hex hex-68">
<path d="M1347.82 -74.3892L1348.26 -0.880854L1281.65 -37.6701L1347.82 -74.3892Z" fill="#CFE8E6" stroke="#F0F0F0" stroke-width="0.5"/>
<path d="M1413.75 -37.2167L1349 -1.13003L1348.56 -73.9734L1413.75 -37.2167Z" fill="#C7E4E2" stroke="#F0F0F0" stroke-width="0.5"/>
<path d="M1281.72 -36.5949L1347.59 -0.380405L1282.1 36.2968L1281.72 -36.5949Z" fill="#E7F3F2" stroke="#F0F0F0" stroke-width="0.5"/>
<path d="M1349.11 72.993L1349.11 0.544976L1413.44 37.3971L1349.11 72.993Z" fill="#B7DCDA" stroke="#F0F0F0" stroke-width="0.5"/>
<path d="M1413.86 36.5682L1349.78 -0.375824L1413.86 -36.3133L1413.86 36.5682Z" fill="#DCEEED" stroke="#F0F0F0" stroke-width="0.5"/>
<path d="M1283.26 37.1411L1347.86 0.796644L1347.86 72.5707L1283.26 37.1411Z" fill="#99C2DF" stroke="#F0F0F0" stroke-width="0.5"/>
</g>
<g class="hex hex-67">
<path d="M1213.16 -74.3892L1213.6 -0.880854L1146.99 -37.6701L1213.16 -74.3892Z" fill="#F7CF7D" stroke="#F0F0F0" stroke-width="0.5"/>
<path d="M1279.09 -37.2167L1214.34 -1.13003L1213.9 -73.9734L1279.09 -37.2167Z" fill="#DF9611" stroke="#F0F0F0" stroke-width="0.5"/>
<path d="M1147.06 -36.5949L1212.93 -0.380405L1147.44 36.2968L1147.06 -36.5949Z" fill="#FCECCB" stroke="#F0F0F0" stroke-width="0.5"/>
<path d="M1214.45 72.993L1214.45 0.544976L1278.78 37.3971L1214.45 72.993Z" fill="#F4B12E" stroke="#F0F0F0" stroke-width="0.5"/>
<path d="M1279.21 36.5682L1215.12 -0.375824L1279.21 -36.3133L1279.21 36.5682Z" fill="#F7CF7D" stroke="#F0F0F0" stroke-width="0.5"/>
<path d="M1148.6 37.1411L1213.2 0.796644L1213.2 72.5707L1148.6 37.1411Z" fill="#DF9611" stroke="#F0F0F0" stroke-width="0.5"/>
</g>
<g class="hex hex-66">
<path d="M1078.1 -74.721L1078.55 -0.598146L1011.38 -37.695L1078.1 -74.721Z" fill="#62718F" stroke="#F0F0F0" stroke-width="0.25"/>
<path d="M1144.69 -37.3186L1078.8 -0.5977L1078.36 -74.7212L1144.69 -37.3186Z" fill="#394C71" stroke="#F0F0F0" stroke-width="0.25"/>
<path d="M1011.25 -37.4833L1078.42 -0.385723L1011.64 37.1858L1011.25 -37.4833Z" fill="#B6BDCB" stroke="#F0F0F0" stroke-width="0.25"/>
<path d="M1078.8 74.028L1078.8 -0.172122L1144.69 37.5713L1078.8 74.028Z" fill="#62718F" stroke="#F0F0F0" stroke-width="0.25"/>
<path d="M1144.82 37.3585L1078.93 -0.385231L1144.82 -37.1007L1144.82 37.3585Z" fill="#9CA5B8" stroke="#F0F0F0" stroke-width="0.25"/>
<path d="M1011.77 37.4003L1078.55 -0.174053L1078.55 74.029L1011.77 37.4003Z" fill="#25385C" stroke="#F0F0F0" stroke-width="0.25"/>
</g>
<g class="hex hex-65">
<path d="M942.71 -74.3892L943.151 -0.880854L876.537 -37.6701L942.71 -74.3892Z" fill="#CFE8E6" stroke="#F0F0F0" stroke-width="0.5"/>
<path d="M1008.64 -37.2167L943.89 -1.13003L943.452 -73.9734L1008.64 -37.2167Z" fill="#C7E4E2" stroke="#F0F0F0" stroke-width="0.5"/>
<path d="M876.607 -36.5949L942.477 -0.380405L876.988 36.2968L876.607 -36.5949Z" fill="#E7F3F2" stroke="#F0F0F0" stroke-width="0.5"/>
<path d="M943.995 72.993L943.995 0.544976L1008.33 37.3971L943.995 72.993Z" fill="#B7DCDA" stroke="#F0F0F0" stroke-width="0.5"/>
<path d="M1008.75 36.5682L944.674 -0.375824L1008.75 -36.3133L1008.75 36.5682Z" fill="#DCEEED" stroke="#F0F0F0" stroke-width="0.5"/>
<path d="M878.15 37.1411L942.747 0.796644L942.747 72.5707L878.15 37.1411Z" fill="#99C2DF" stroke="#F0F0F0" stroke-width="0.5"/>
</g>
<g class="hex hex-64">
<path d="M807.485 -74.3892L807.926 -0.880854L741.312 -37.6701L807.485 -74.3892Z" fill="#CFE8E6" stroke="#F0F0F0" stroke-width="0.5"/>
<path d="M873.417 -37.2167L808.664 -1.13003L808.227 -73.9734L873.417 -37.2167Z" fill="#C7E4E2" stroke="#F0F0F0" stroke-width="0.5"/>
<path d="M741.382 -36.5949L807.252 -0.380405L741.763 36.2968L741.382 -36.5949Z" fill="#E7F3F2" stroke="#F0F0F0" stroke-width="0.5"/>
<path d="M808.77 72.993L808.77 0.544976L873.104 37.3971L808.77 72.993Z" fill="#B7DCDA" stroke="#F0F0F0" stroke-width="0.5"/>
<path d="M873.529 36.5682L809.449 -0.375824L873.529 -36.3133L873.529 36.5682Z" fill="#DCEEED" stroke="#F0F0F0" stroke-width="0.5"/>
<path d="M742.925 37.1411L807.522 0.796644L807.522 72.5707L742.925 37.1411Z" fill="#99C2DF" stroke="#F0F0F0" stroke-width="0.5"/>
</g>
<g class="hex hex-63">
<path d="M673.001 -74.3892L673.442 -0.880854L606.828 -37.6701L673.001 -74.3892Z" fill="#CFE8E6" stroke="#F0F0F0" stroke-width="0.5"/>
<path d="M738.933 -37.2167L674.181 -1.13003L673.743 -73.9734L738.933 -37.2167Z" fill="#C7E4E2" stroke="#F0F0F0" stroke-width="0.5"/>
<path d="M606.898 -36.5949L672.768 -0.380405L607.279 36.2968L606.898 -36.5949Z" fill="#E7F3F2" stroke="#F0F0F0" stroke-width="0.5"/>
<path d="M674.286 72.993L674.286 0.544976L738.62 37.3971L674.286 72.993Z" fill="#B7DCDA" stroke="#F0F0F0" stroke-width="0.5"/>
<path d="M739.046 36.5682L674.965 -0.375824L739.046 -36.3133L739.046 36.5682Z" fill="#DCEEED" stroke="#F0F0F0" stroke-width="0.5"/>
<path d="M608.441 37.1411L673.038 0.796644L673.038 72.5707L608.441 37.1411Z" fill="#99C2DF" stroke="#F0F0F0" stroke-width="0.5"/>
</g>
<g class="hex hex-62">
<path d="M537.6 -74.3892L538.042 -0.880854L471.427 -37.6701L537.6 -74.3892Z" fill="#CFE8E6" stroke="#F0F0F0" stroke-width="0.5"/>
<path d="M603.532 -37.2167L538.78 -1.13003L538.342 -73.9734L603.532 -37.2167Z" fill="#C7E4E2" stroke="#F0F0F0" stroke-width="0.5"/>
<path d="M471.497 -36.5949L537.368 -0.380405L471.878 36.2968L471.497 -36.5949Z" fill="#E7F3F2" stroke="#F0F0F0" stroke-width="0.5"/>
<path d="M538.885 72.993L538.885 0.544976L603.219 37.3971L538.885 72.993Z" fill="#B7DCDA" stroke="#F0F0F0" stroke-width="0.5"/>
<path d="M603.645 36.5682L539.564 -0.375824L603.645 -36.3133L603.645 36.5682Z" fill="#DCEEED" stroke="#F0F0F0" stroke-width="0.5"/>
<path d="M473.04 37.1411L537.637 0.796644L537.637 72.5707L473.04 37.1411Z" fill="#99C2DF" stroke="#F0F0F0" stroke-width="0.5"/>
</g>
<g class="hex hex-61">v
<path d="M402.374 -74.3892L402.816 -0.880854L336.202 -37.6701L402.374 -74.3892Z" fill="#F7CF7D" stroke="#F0F0F0" stroke-width="0.5"/>
<path d="M468.306 -37.2167L403.554 -1.13003L403.117 -73.9734L468.306 -37.2167Z" fill="#DF9611" stroke="#F0F0F0" stroke-width="0.5"/>
<path d="M336.272 -36.5949L402.142 -0.380405L336.653 36.2968L336.272 -36.5949Z" fill="#FCECCB" stroke="#F0F0F0" stroke-width="0.5"/>
<path d="M403.66 72.993L403.66 0.544976L467.994 37.3971L403.66 72.993Z" fill="#F4B12E" stroke="#F0F0F0" stroke-width="0.5"/>
<path d="M468.419 36.5682L404.338 -0.375824L468.419 -36.3133L468.419 36.5682Z" fill="#F7CF7D" stroke="#F0F0F0" stroke-width="0.5"/>
<path d="M337.815 37.1411L402.411 0.796644L402.411 72.5707L337.815 37.1411Z" fill="#DF9611" stroke="#F0F0F0" stroke-width="0.5"/>
</g>
<g class="hex hex-60">
<path d="M267.149 -74.3892L267.591 -0.880854L200.977 -37.6701L267.149 -74.3892Z" fill="#CFE8E6" stroke="#F0F0F0" stroke-width="0.5"/>
<path d="M333.081 -37.2167L268.329 -1.13003L267.891 -73.9734L333.081 -37.2167Z" fill="#C7E4E2" stroke="#F0F0F0" stroke-width="0.5"/>
<path d="M201.047 -36.5949L266.917 -0.380405L201.428 36.2968L201.047 -36.5949Z" fill="#E7F3F2" stroke="#F0F0F0" stroke-width="0.5"/>
<path d="M268.435 72.993L268.435 0.544976L332.768 37.3971L268.435 72.993Z" fill="#B7DCDA" stroke="#F0F0F0" stroke-width="0.5"/>
<path d="M333.194 36.5682L269.113 -0.375824L333.194 -36.3133L333.194 36.5682Z" fill="#DCEEED" stroke="#F0F0F0" stroke-width="0.5"/>
<path d="M202.589 37.1411L267.186 0.796644L267.186 72.5707L202.589 37.1411Z" fill="#99C2DF" stroke="#F0F0F0" stroke-width="0.5"/>
</g>
<g class="hex hex-59">
<path d="M132.658 -74.721L133.103 -0.598146L65.9316 -37.695L132.658 -74.721Z" fill="#62718F" stroke="#F0F0F0" stroke-width="0.25"/>
<path d="M199.246 -37.3186L133.356 -0.5977L132.911 -74.7212L199.246 -37.3186Z" fill="#394C71" stroke="#F0F0F0" stroke-width="0.25"/>
<path d="M65.8016 -37.4833L132.974 -0.385723L66.19 37.1858L65.8016 -37.4833Z" fill="#B6BDCB" stroke="#F0F0F0" stroke-width="0.25"/>
<path d="M133.357 74.028L133.357 -0.172122L199.247 37.5713L133.357 74.028Z" fill="#62718F" stroke="#F0F0F0" stroke-width="0.25"/>
<path d="M199.375 37.3585L133.485 -0.385231L199.375 -37.1007L199.375 37.3585Z" fill="#9CA5B8" stroke="#F0F0F0" stroke-width="0.25"/>
<path d="M66.3214 37.4003L133.104 -0.174053L133.104 74.029L66.3214 37.4003Z" fill="#25385C" stroke="#F0F0F0" stroke-width="0.25"/>
</g>
<g class="hex hex-58">
<path d="M-2.73587 -74.3892L-2.29436 -0.880854L-68.9088 -37.6701L-2.73587 -74.3892Z" fill="#CFE8E6" stroke="#F0F0F0" stroke-width="0.5"/>
<path d="M63.1959 -37.2167L-1.55626 -1.13003L-1.9938 -73.9734L63.1959 -37.2167Z" fill="#C7E4E2" stroke="#F0F0F0" stroke-width="0.5"/>
<path d="M-1.45058 72.993L-1.4506 0.544976L62.8832 37.3971L-1.45058 72.993Z" fill="#B7DCDA" stroke="#F0F0F0" stroke-width="0.5"/>
<path d="M63.3088 36.5682L-0.77209 -0.375824L63.3088 -36.3133L63.3088 36.5682Z" fill="#DCEEED" stroke="#F0F0F0" stroke-width="0.5"/>
<path d="M-67.2958 37.1411L-2.69915 0.796644L-2.69915 72.5707L-67.2958 37.1411Z" fill="#99C2DF" stroke="#F0F0F0" stroke-width="0.5"/>
</g>
<g class="hex hex-57">
<path d="M2493.16 38.7993L2493.6 112.308L2426.99 75.5184L2493.16 38.7993Z" fill="#CFE8E6" stroke="#F0F0F0" stroke-width="0.5"/>
<path d="M2559.09 75.9718L2494.34 112.058L2493.9 39.2151L2559.09 75.9718Z" fill="#C7E4E2" stroke="#F0F0F0" stroke-width="0.5"/>
<path d="M2427.06 76.5936L2492.93 112.808L2427.44 149.485L2427.06 76.5936Z" fill="#E7F3F2" stroke="#F0F0F0" stroke-width="0.5"/>
<path d="M2494.45 186.182L2494.45 113.734L2558.78 150.586L2494.45 186.182Z" fill="#B7DCDA" stroke="#F0F0F0" stroke-width="0.5"/>
<path d="M2559.21 149.757L2495.12 112.813L2559.21 76.8752L2559.21 149.757Z" fill="#DCEEED" stroke="#F0F0F0" stroke-width="0.5"/>
<path d="M2428.6 150.33L2493.2 113.985L2493.2 185.759L2428.6 150.33Z" fill="#99C2DF" stroke="#F0F0F0" stroke-width="0.5"/>
</g>
<g class="hex hex-56">
<path d="M2358.5 38.7993L2358.94 112.308L2292.33 75.5184L2358.5 38.7993Z" fill="#CFE8E6" stroke="#F0F0F0" stroke-width="0.5"/>
<path d="M2424.43 75.9718L2359.68 112.058L2359.24 39.2151L2424.43 75.9718Z" fill="#C7E4E2" stroke="#F0F0F0" stroke-width="0.5"/>
<path d="M2292.4 76.5936L2358.27 112.808L2292.78 149.485L2292.4 76.5936Z" fill="#E7F3F2" stroke="#F0F0F0" stroke-width="0.5"/>
<path d="M2359.79 186.182L2359.79 113.734L2424.12 150.586L2359.79 186.182Z" fill="#B7DCDA" stroke="#F0F0F0" stroke-width="0.5"/>
<path d="M2424.55 149.757L2360.46 112.813L2424.55 76.8752L2424.55 149.757Z" fill="#DCEEED" stroke="#F0F0F0" stroke-width="0.5"/>
<path d="M2293.94 150.33L2358.54 113.985L2358.54 185.759L2293.94 150.33Z" fill="#99C2DF" stroke="#F0F0F0" stroke-width="0.5"/>
</g>
<g class="hex hex-55">
<path d="M2223.28 38.7993L2223.72 112.308L2157.1 75.5184L2223.28 38.7993Z" fill="#E8AFAC" stroke="#F0F0F0" stroke-width="0.5"/>
<path d="M2289.21 75.9718L2224.46 112.058L2224.02 39.2151L2289.21 75.9718Z" fill="#C34833" stroke="#F0F0F0" stroke-width="0.5"/>
<path d="M2157.17 76.5936L2223.04 112.808L2157.55 149.485L2157.17 76.5936Z" fill="#F1CCCB" stroke="#F0F0F0" stroke-width="0.5"/>
<path d="M2224.56 186.182L2224.56 113.734L2288.9 150.586L2224.56 186.182Z" fill="#D36D63" stroke="#F0F0F0" stroke-width="0.5"/>
<path d="M2289.32 149.757L2225.24 112.813L2289.32 76.8752L2289.32 149.757Z" fill="#DF908B" stroke="#F0F0F0" stroke-width="0.5"/>
<path d="M2158.72 150.33L2223.31 113.985L2223.31 185.759L2158.72 150.33Z" fill="#AC3619" stroke="#F0F0F0" stroke-width="0.5"/>
</g>
<g class="hex hex-54">
<path d="M2088.05 38.7993L2088.49 112.308L2021.88 75.5184L2088.05 38.7993Z" fill="#78CCBA" stroke="#F0F0F0" stroke-width="0.5"/>
<path d="M2153.98 75.9718L2089.23 112.058L2088.79 39.2151L2153.98 75.9718Z" fill="#40B79E" stroke="#F0F0F0" stroke-width="0.5"/>
<path d="M2021.95 76.5936L2087.82 112.808L2022.33 149.485L2021.95 76.5936Z" fill="#AADFD4" stroke="#F0F0F0" stroke-width="0.5"/>
<path d="M2089.34 186.182L2089.34 113.734L2153.67 150.586L2089.34 186.182Z" fill="#40B79E" stroke="#F0F0F0" stroke-width="0.5"/>
<path d="M2154.09 149.757L2090.01 112.813L2154.09 76.8752L2154.09 149.757Z" fill="#78CCBA" stroke="#F0F0F0" stroke-width="0.5"/>
<path d="M2023.49 150.33L2088.09 113.985L2088.09 185.759L2023.49 150.33Z" fill="#008066" stroke="#F0F0F0" stroke-width="0.5"/>
</g>
<g class="hex hex-53">
<path d="M1952.82 38.7993L1953.27 112.308L1886.65 75.5184L1952.82 38.7993Z" fill="#CFE8E6" stroke="#F0F0F0" stroke-width="0.5"/>
<path d="M2018.76 75.9718L1954 112.058L1953.57 39.2151L2018.76 75.9718Z" fill="#C7E4E2" stroke="#F0F0F0" stroke-width="0.5"/>
<path d="M1886.72 76.5936L1952.59 112.808L1887.1 149.485L1886.72 76.5936Z" fill="#E7F3F2" stroke="#F0F0F0" stroke-width="0.5"/>
<path d="M1954.11 186.182L1954.11 113.734L2018.44 150.586L1954.11 186.182Z" fill="#B7DCDA" stroke="#F0F0F0" stroke-width="0.5"/>
<path d="M2018.87 149.757L1954.79 112.813L2018.87 76.8752L2018.87 149.757Z" fill="#DCEEED" stroke="#F0F0F0" stroke-width="0.5"/>
<path d="M1888.26 150.33L1952.86 113.985L1952.86 185.759L1888.26 150.33Z" fill="#99C2DF" stroke="#F0F0F0" stroke-width="0.5"/>
</g>
<g class="hex hex-52">
<path d="M1818.17 38.7993L1818.61 112.308L1751.99 75.5184L1818.17 38.7993Z" fill="#CFE8E6" stroke="#F0F0F0" stroke-width="0.5"/>
<path d="M1884.1 75.9718L1819.35 112.058L1818.91 39.2151L1884.1 75.9718Z" fill="#C7E4E2" stroke="#F0F0F0" stroke-width="0.5"/>
<path d="M1752.06 76.5936L1817.93 112.808L1752.44 149.485L1752.06 76.5936Z" fill="#E7F3F2" stroke="#F0F0F0" stroke-width="0.5"/>
<path d="M1819.45 186.182L1819.45 113.734L1883.78 150.586L1819.45 186.182Z" fill="#B7DCDA" stroke="#F0F0F0" stroke-width="0.5"/>
<path d="M1884.21 149.757L1820.13 112.813L1884.21 76.8752L1884.21 149.757Z" fill="#DCEEED" stroke="#F0F0F0" stroke-width="0.5"/>
<path d="M1753.61 150.33L1818.2 113.985L1818.2 185.759L1753.61 150.33Z" fill="#99C2DF" stroke="#F0F0F0" stroke-width="0.5"/>
</g>
<g class="hex hex-51">
<path d="M1683.2 38.7993L1683.64 112.308L1617.03 75.5184L1683.2 38.7993Z" fill="#CFE8E6" stroke="#F0F0F0" stroke-width="0.5"/>
<path d="M1749.13 75.9718L1684.38 112.058L1683.94 39.2151L1749.13 75.9718Z" fill="#C7E4E2" stroke="#F0F0F0" stroke-width="0.5"/>
<path d="M1617.1 76.5936L1682.97 112.808L1617.48 149.485L1617.1 76.5936Z" fill="#E7F3F2" stroke="#F0F0F0" stroke-width="0.5"/>
<path d="M1684.49 186.182L1684.49 113.734L1748.82 150.586L1684.49 186.182Z" fill="#B7DCDA" stroke="#F0F0F0" stroke-width="0.5"/>
<path d="M1749.25 149.757L1685.17 112.813L1749.25 76.8752L1749.25 149.757Z" fill="#DCEEED" stroke="#F0F0F0" stroke-width="0.5"/>
<path d="M1618.64 150.33L1683.24 113.985L1683.24 185.759L1618.64 150.33Z" fill="#99C2DF" stroke="#F0F0F0" stroke-width="0.5"/>
</g>
<g class="hex hex-50">
<path d="M1550.24 38.7993L1550.68 112.308L1484.07 75.5184L1550.24 38.7993Z" fill="#CFE8E6" stroke="#F0F0F0" stroke-width="0.5"/>
<path d="M1616.17 75.9718L1551.42 112.058L1550.98 39.2151L1616.17 75.9718Z" fill="#C7E4E2" stroke="#F0F0F0" stroke-width="0.5"/>
<path d="M1484.14 76.5936L1550.01 112.808L1484.52 149.485L1484.14 76.5936Z" fill="#E7F3F2" stroke="#F0F0F0" stroke-width="0.5"/>
<path d="M1551.53 186.182L1551.53 113.734L1615.86 150.586L1551.53 186.182Z" fill="#B7DCDA" stroke="#F0F0F0" stroke-width="0.5"/>
<path d="M1616.29 149.757L1552.2 112.813L1616.29 76.8752L1616.29 149.757Z" fill="#DCEEED" stroke="#F0F0F0" stroke-width="0.5"/>
<path d="M1485.68 150.33L1550.28 113.985L1550.28 185.759L1485.68 150.33Z" fill="#99C2DF" stroke="#F0F0F0" stroke-width="0.5"/>
</g>
<g class="hex hex-49">
<path d="M1415.01 38.7993L1415.46 112.308L1348.84 75.5184L1415.01 38.7993Z" fill="#CFE8E6" stroke="#F0F0F0" stroke-width="0.5"/>
<path d="M1480.95 75.9718L1416.19 112.058L1415.76 39.2151L1480.95 75.9718Z" fill="#C7E4E2" stroke="#F0F0F0" stroke-width="0.5"/>
<path d="M1348.91 76.5936L1414.78 112.808L1349.29 149.485L1348.91 76.5936Z" fill="#E7F3F2" stroke="#F0F0F0" stroke-width="0.5"/>
<path d="M1416.3 186.182L1416.3 113.734L1480.63 150.586L1416.3 186.182Z" fill="#B7DCDA" stroke="#F0F0F0" stroke-width="0.5"/>
<path d="M1481.06 149.757L1416.98 112.813L1481.06 76.8752L1481.06 149.757Z" fill="#DCEEED" stroke="#F0F0F0" stroke-width="0.5"/>
<path d="M1350.45 150.33L1415.05 113.985L1415.05 185.759L1350.45 150.33Z" fill="#99C2DF" stroke="#F0F0F0" stroke-width="0.5"/>
</g>
<g class="hex hex-48">
<path d="M1280.36 38.7993L1280.8 112.308L1214.18 75.5184L1280.36 38.7993Z" fill="#CFE8E6" stroke="#F0F0F0" stroke-width="0.5"/>
<path d="M1346.29 75.9718L1281.54 112.058L1281.1 39.2151L1346.29 75.9718Z" fill="#C7E4E2" stroke="#F0F0F0" stroke-width="0.5"/>
<path d="M1214.25 76.5936L1280.12 112.808L1214.63 149.485L1214.25 76.5936Z" fill="#E7F3F2" stroke="#F0F0F0" stroke-width="0.5"/>
<path d="M1281.64 186.182L1281.64 113.734L1345.97 150.586L1281.64 186.182Z" fill="#B7DCDA" stroke="#F0F0F0" stroke-width="0.5"/>
<path d="M1346.4 149.757L1282.32 112.813L1346.4 76.8752L1346.4 149.757Z" fill="#DCEEED" stroke="#F0F0F0" stroke-width="0.5"/>
<path d="M1215.8 150.33L1280.39 113.985L1280.39 185.759L1215.8 150.33Z" fill="#99C2DF" stroke="#F0F0F0" stroke-width="0.5"/>
</g>
<g class="hex hex-47">
<path d="M1145.13 38.7993L1145.57 112.308L1078.96 75.5184L1145.13 38.7993Z" fill="#CFE8E6" stroke="#F0F0F0" stroke-width="0.5"/>
<path d="M1211.06 75.9718L1146.31 112.058L1145.87 39.2151L1211.06 75.9718Z" fill="#C7E4E2" stroke="#F0F0F0" stroke-width="0.5"/>
<path d="M1079.03 76.5936L1144.9 112.808L1079.41 149.485L1079.03 76.5936Z" fill="#E7F3F2" stroke="#F0F0F0" stroke-width="0.5"/>
<path d="M1146.42 186.182L1146.42 113.734L1210.75 150.586L1146.42 186.182Z" fill="#B7DCDA" stroke="#F0F0F0" stroke-width="0.5"/>
<path d="M1211.17 149.757L1147.09 112.813L1211.17 76.8752L1211.17 149.757Z" fill="#DCEEED" stroke="#F0F0F0" stroke-width="0.5"/>
<path d="M1080.57 150.33L1145.17 113.985L1145.17 185.759L1080.57 150.33Z" fill="#99C2DF" stroke="#F0F0F0" stroke-width="0.5"/>
</g>
<g class="hex hex-46">
<path d="M1009.9 38.7993L1010.35 112.308L943.732 75.5184L1009.9 38.7993Z" fill="#78CCBA" stroke="#F0F0F0" stroke-width="0.5"/>
<path d="M1075.84 75.9718L1011.08 112.058L1010.65 39.2151L1075.84 75.9718Z" fill="#40B79E" stroke="#F0F0F0" stroke-width="0.5"/>
<path d="M943.802 76.5936L1009.67 112.808L944.183 149.485L943.802 76.5936Z" fill="#AADFD4" stroke="#F0F0F0" stroke-width="0.5"/>
<path d="M1011.19 186.182L1011.19 113.734L1075.52 150.586L1011.19 186.182Z" fill="#40B79E" stroke="#F0F0F0" stroke-width="0.5"/>
<path d="M1075.95 149.757L1011.87 112.813L1075.95 76.8752L1075.95 149.757Z" fill="#78CCBA" stroke="#F0F0F0" stroke-width="0.5"/>
<path d="M945.345 150.33L1009.94 113.985L1009.94 185.759L945.345 150.33Z" fill="#008066" stroke="#F0F0F0" stroke-width="0.5"/>
</g>
<g class="hex hex-45">
<path d="M874.679 38.7993L875.121 112.308L808.506 75.5184L874.679 38.7993Z" fill="#CFE8E6" stroke="#F0F0F0" stroke-width="0.5"/>
<path d="M940.611 75.9718L875.859 112.058L875.421 39.2151L940.611 75.9718Z" fill="#C7E4E2" stroke="#F0F0F0" stroke-width="0.5"/>
<path d="M808.577 76.5936L874.447 112.808L808.957 149.485L808.577 76.5936Z" fill="#E7F3F2" stroke="#F0F0F0" stroke-width="0.5"/>
<path d="M875.964 186.182L875.964 113.734L940.298 150.586L875.964 186.182Z" fill="#B7DCDA" stroke="#F0F0F0" stroke-width="0.5"/>
<path d="M940.724 149.757L876.643 112.813L940.724 76.8752L940.724 149.757Z" fill="#DCEEED" stroke="#F0F0F0" stroke-width="0.5"/>
<path d="M810.119 150.33L874.716 113.985L874.716 185.759L810.119 150.33Z" fill="#99C2DF" stroke="#F0F0F0" stroke-width="0.5"/>
</g>
<g class="hex hex-44">
<path d="M740.02 38.7993L740.461 112.308L673.847 75.5184L740.02 38.7993Z" fill="#CFE8E6" stroke="#F0F0F0" stroke-width="0.5"/>
<path d="M805.951 75.9718L741.199 112.058L740.762 39.2151L805.951 75.9718Z" fill="#C7E4E2" stroke="#F0F0F0" stroke-width="0.5"/>
<path d="M673.917 76.5936L739.787 112.808L674.298 149.485L673.917 76.5936Z" fill="#E7F3F2" stroke="#F0F0F0" stroke-width="0.5"/>
<path d="M741.305 186.182L741.305 113.734L805.639 150.586L741.305 186.182Z" fill="#B7DCDA" stroke="#F0F0F0" stroke-width="0.5"/>
<path d="M806.064 149.757L741.983 112.813L806.064 76.8752L806.064 149.757Z" fill="#DCEEED" stroke="#F0F0F0" stroke-width="0.5"/>
<path d="M675.46 150.33L740.056 113.985L740.056 185.759L675.46 150.33Z" fill="#99C2DF" stroke="#F0F0F0" stroke-width="0.5"/>
</g>
<g class="hex hex-43">
<path d="M604.229 38.2336L604.67 111.742L538.056 74.9526L604.229 38.2336Z" fill="#E8AFAC" stroke="#F0F0F0" stroke-width="0.5"/>
<path d="M670.161 75.4061L605.409 111.493L604.971 38.6494L670.161 75.4061Z" fill="#C34833" stroke="#F0F0F0" stroke-width="0.5"/>
<path d="M538.126 76.0278L603.996 112.242L538.507 148.92L538.126 76.0278Z" fill="#F1CCCB" stroke="#F0F0F0" stroke-width="0.5"/>
<path d="M605.514 185.616L605.514 113.168L669.848 150.02L605.514 185.616Z" fill="#D36D63" stroke="#F0F0F0" stroke-width="0.5"/>
<path d="M670.274 149.191L606.193 112.247L670.274 76.3095L670.274 149.191Z" fill="#DF908B" stroke="#F0F0F0" stroke-width="0.5"/>
<path d="M539.669 149.764L604.266 113.419L604.266 185.193L539.669 149.764Z" fill="#AC3619" stroke="#F0F0F0" stroke-width="0.5"/>
</g>
<g class="hex hex-42">
<path d="M469.569 38.7993L470.01 112.308L403.396 75.5184L469.569 38.7993Z" fill="#CFE8E6" stroke="#F0F0F0" stroke-width="0.5"/>
<path d="M535.501 75.9718L470.748 112.058L470.311 39.2151L535.501 75.9718Z" fill="#C7E4E2" stroke="#F0F0F0" stroke-width="0.5"/>
<path d="M403.466 76.5936L469.336 112.808L403.847 149.485L403.466 76.5936Z" fill="#E7F3F2" stroke="#F0F0F0" stroke-width="0.5"/>
<path d="M470.854 186.181L470.854 113.733L535.188 150.586L470.854 186.181Z" fill="#B7DCDA" stroke="#F0F0F0" stroke-width="0.5"/>
<path d="M535.613 149.757L471.533 112.813L535.613 76.8752L535.613 149.757Z" fill="#DCEEED" stroke="#F0F0F0" stroke-width="0.5"/>
<path d="M405.009 150.33L469.606 113.985L469.606 185.759L405.009 150.33Z" fill="#99C2DF" stroke="#F0F0F0" stroke-width="0.5"/>
</g>
<g class="hex hex-41">
<path d="M334.513 38.4675L334.958 112.59L267.787 75.4935L334.513 38.4675Z" fill="#62718F" stroke="#F0F0F0" stroke-width="0.25"/>
<path d="M401.101 75.87L335.211 112.591L334.766 38.4673L401.101 75.87Z" fill="#394C71" stroke="#F0F0F0" stroke-width="0.25"/>
<path d="M267.657 75.7052L334.829 112.803L268.045 150.374L267.657 75.7052Z" fill="#B6BDCB" stroke="#F0F0F0" stroke-width="0.25"/>
<path d="M335.212 187.217L335.212 113.016L401.102 150.76L335.212 187.217Z" fill="#62718F" stroke="#F0F0F0" stroke-width="0.25"/>
<path d="M401.23 150.547L335.34 112.803L401.23 76.0878L401.23 150.547Z" fill="#9CA5B8" stroke="#F0F0F0" stroke-width="0.25"/>
<path d="M268.176 150.589L334.959 113.014L334.959 187.217L268.176 150.589Z" fill="#25385C" stroke="#F0F0F0" stroke-width="0.25"/>
</g>
<g class="hex hex-40">
<path d="M199.684 38.7993L200.126 112.308L133.511 75.5184L199.684 38.7993Z" fill="#CFE8E6" stroke="#F0F0F0" stroke-width="0.5"/>
<path d="M265.616 75.9718L200.864 112.058L200.426 39.2151L265.616 75.9718Z" fill="#C7E4E2" stroke="#F0F0F0" stroke-width="0.5"/>
<path d="M133.581 76.5936L199.452 112.808L133.962 149.485L133.581 76.5936Z" fill="#E7F3F2" stroke="#F0F0F0" stroke-width="0.5"/>
<path d="M200.969 186.181L200.969 113.733L265.303 150.586L200.969 186.181Z" fill="#B7DCDA" stroke="#F0F0F0" stroke-width="0.5"/>
<path d="M265.729 149.757L201.648 112.813L265.729 76.8752L265.729 149.757Z" fill="#DCEEED" stroke="#F0F0F0" stroke-width="0.5"/>
<path d="M135.124 150.33L199.721 113.985L199.721 185.759L135.124 150.33Z" fill="#99C2DF" stroke="#F0F0F0" stroke-width="0.5"/>
</g>
<g class="hex hex-39">
<path d="M64.459 38.7993L64.9005 112.308L-1.71393 75.5184L64.459 38.7993Z" fill="#CFE8E6" stroke="#F0F0F0" stroke-width="0.5"/>
<path d="M130.391 75.9718L65.6386 112.058L65.201 39.2151L130.391 75.9718Z" fill="#C7E4E2" stroke="#F0F0F0" stroke-width="0.5"/>
<path d="M-1.64368 76.5936L64.2265 112.808L-1.26289 149.485L-1.64368 76.5936Z" fill="#E7F3F2" stroke="#F0F0F0" stroke-width="0.5"/>
<path d="M65.7442 186.181L65.7442 113.733L130.078 150.586L65.7442 186.181Z" fill="#B7DCDA" stroke="#F0F0F0" stroke-width="0.5"/>
<path d="M130.504 149.757L66.4227 112.813L130.504 76.8752L130.504 149.757Z" fill="#DCEEED" stroke="#F0F0F0" stroke-width="0.5"/>
<path d="M-0.100937 150.33L64.4957 113.985L64.4957 185.759L-0.100937 150.33Z" fill="#99C2DF" stroke="#F0F0F0" stroke-width="0.5"/>
</g>
<g class="hex hex-38">
<path d="M2562.19 151.38L2562.63 224.888L2496.02 188.099L2562.19 151.38Z" fill="#CFE8E6" stroke="#F0F0F0" stroke-width="0.5"/>
<path d="M2628.12 188.553L2563.37 224.639L2562.93 151.796L2628.12 188.553Z" fill="#C7E4E2" stroke="#F0F0F0" stroke-width="0.5"/>
<path d="M2496.09 189.174L2561.96 225.389L2496.47 262.066L2496.09 189.174Z" fill="#E7F3F2" stroke="#F0F0F0" stroke-width="0.5"/>
<path d="M2563.47 298.762L2563.47 226.314L2627.81 263.166L2563.47 298.762Z" fill="#B7DCDA" stroke="#F0F0F0" stroke-width="0.5"/>
<path d="M2497.63 262.91L2562.22 226.566L2562.22 298.34L2497.63 262.91Z" fill="#99C2DF" stroke="#F0F0F0" stroke-width="0.5"/>
</g>
<g class="hex hex-37">
<path d="M2427.28 151.048L2427.73 225.171L2360.56 188.074L2427.28 151.048Z" fill="#62718F" stroke="#F0F0F0" stroke-width="0.25"/>
<path d="M2493.87 188.451L2427.98 225.172L2427.53 151.048L2493.87 188.451Z" fill="#394C71" stroke="#F0F0F0" stroke-width="0.25"/>
<path d="M2360.43 188.286L2427.6 225.383L2360.81 262.955L2360.43 188.286Z" fill="#B6BDCB" stroke="#F0F0F0" stroke-width="0.25"/>
<path d="M2427.98 299.797L2427.98 225.597L2493.87 263.341L2427.98 299.797Z" fill="#62718F" stroke="#F0F0F0" stroke-width="0.25"/>
<path d="M2494 263.128L2428.11 225.384L2494 188.669L2494 263.128Z" fill="#9CA5B8" stroke="#F0F0F0" stroke-width="0.25"/>
<path d="M2360.94 263.17L2427.73 225.595L2427.73 299.798L2360.94 263.17Z" fill="#25385C" stroke="#F0F0F0" stroke-width="0.25"/>
</g>
<g class="hex hex-36">
<path d="M2292.3 151.38L2292.74 224.888L2226.13 188.099L2292.3 151.38Z" fill="#CFE8E6" stroke="#F0F0F0" stroke-width="0.5"/>
<path d="M2358.23 188.553L2293.48 224.639L2293.05 151.796L2358.23 188.553Z" fill="#C7E4E2" stroke="#F0F0F0" stroke-width="0.5"/>
<path d="M2226.2 189.174L2292.07 225.389L2226.58 262.066L2226.2 189.174Z" fill="#E7F3F2" stroke="#F0F0F0" stroke-width="0.5"/>
<path d="M2293.59 298.762L2293.59 226.314L2357.92 263.166L2293.59 298.762Z" fill="#B7DCDA" stroke="#F0F0F0" stroke-width="0.5"/>
<path d="M2358.35 262.337L2294.27 225.393L2358.35 189.456L2358.35 262.337Z" fill="#DCEEED" stroke="#F0F0F0" stroke-width="0.5"/>
<path d="M2227.74 262.91L2292.34 226.566L2292.34 298.34L2227.74 262.91Z" fill="#99C2DF" stroke="#F0F0F0" stroke-width="0.5"/>
</g>
<g class="hex hex-35">
<path d="M2021.85 151.38L2022.29 224.888L1955.68 188.099L2021.85 151.38Z" fill="#CFE8E6" stroke="#F0F0F0" stroke-width="0.5"/>
<path d="M2087.78 188.553L2023.03 224.639L2022.59 151.796L2087.78 188.553Z" fill="#C7E4E2" stroke="#F0F0F0" stroke-width="0.5"/>
<path d="M1955.75 189.174L2021.62 225.389L1956.13 262.066L1955.75 189.174Z" fill="#E7F3F2" stroke="#F0F0F0" stroke-width="0.5"/>
<path d="M2023.14 298.762L2023.14 226.314L2087.47 263.166L2023.14 298.762Z" fill="#B7DCDA" stroke="#F0F0F0" stroke-width="0.5"/>
<path d="M2087.9 262.337L2023.82 225.393L2087.9 189.456L2087.9 262.337Z" fill="#DCEEED" stroke="#F0F0F0" stroke-width="0.5"/>
<path d="M1957.29 262.91L2021.89 226.566L2021.89 298.34L1957.29 262.91Z" fill="#99C2DF" stroke="#F0F0F0" stroke-width="0.5"/>
</g>
<g class="hex hex-34">
<path d="M2157.08 151.38L2157.52 224.888L2090.9 188.099L2157.08 151.38Z" fill="#CFE8E6" stroke="#F0F0F0" stroke-width="0.5"/>
<path d="M2223.01 188.553L2158.26 224.639L2157.82 151.796L2223.01 188.553Z" fill="#C7E4E2" stroke="#F0F0F0" stroke-width="0.5"/>
<path d="M2090.97 189.174L2156.84 225.389L2091.36 262.066L2090.97 189.174Z" fill="#E7F3F2" stroke="#F0F0F0" stroke-width="0.5"/>
<path d="M2158.36 298.762L2158.36 226.314L2222.7 263.166L2158.36 298.762Z" fill="#B7DCDA" stroke="#F0F0F0" stroke-width="0.5"/>
<path d="M2223.12 262.337L2159.04 225.393L2223.12 189.456L2223.12 262.337Z" fill="#DCEEED" stroke="#F0F0F0" stroke-width="0.5"/>
<path d="M2092.52 262.91L2157.11 226.566L2157.11 298.34L2092.52 262.91Z" fill="#99C2DF" stroke="#F0F0F0" stroke-width="0.5"/>
</g>
<g class="hex hex-33">
<path d="M1886.63 151.38L1887.07 224.888L1820.45 188.099L1886.63 151.38Z" fill="#CFE8E6" stroke="#F0F0F0" stroke-width="0.5"/>
<path d="M1952.56 188.553L1887.81 224.639L1887.37 151.796L1952.56 188.553Z" fill="#C7E4E2" stroke="#F0F0F0" stroke-width="0.5"/>
<path d="M1820.52 189.174L1886.39 225.389L1820.91 262.066L1820.52 189.174Z" fill="#E7F3F2" stroke="#F0F0F0" stroke-width="0.5"/>
<path d="M1887.91 298.762L1887.91 226.314L1952.25 263.166L1887.91 298.762Z" fill="#B7DCDA" stroke="#F0F0F0" stroke-width="0.5"/>
<path d="M1952.67 262.337L1888.59 225.393L1952.67 189.456L1952.67 262.337Z" fill="#DCEEED" stroke="#F0F0F0" stroke-width="0.5"/>
<path d="M1822.07 262.91L1886.66 226.566L1886.66 298.34L1822.07 262.91Z" fill="#99C2DF" stroke="#F0F0F0" stroke-width="0.5"/>
</g>
<g class="hex hex-32">
<path d="M1752.4 151.048L1752.84 225.171L1685.67 188.074L1752.4 151.048Z" fill="#62718F" stroke="#F0F0F0" stroke-width="0.25"/>
<path d="M1818.99 188.451L1753.1 225.172L1752.65 151.048L1818.99 188.451Z" fill="#394C71" stroke="#F0F0F0" stroke-width="0.25"/>
<path d="M1685.54 188.286L1752.71 225.383L1685.93 262.955L1685.54 188.286Z" fill="#B6BDCB" stroke="#F0F0F0" stroke-width="0.25"/>
<path d="M1753.1 299.797L1753.1 225.597L1818.99 263.341L1753.1 299.797Z" fill="#62718F" stroke="#F0F0F0" stroke-width="0.25"/>
<path d="M1819.12 263.128L1753.23 225.384L1819.12 188.669L1819.12 263.128Z" fill="#9CA5B8" stroke="#F0F0F0" stroke-width="0.25"/>
<path d="M1686.06 263.17L1752.84 225.595L1752.84 299.798L1686.06 263.17Z" fill="#25385C" stroke="#F0F0F0" stroke-width="0.25"/>
</g>
<g class="hex hex-31">
<path d="M1617 151.38L1617.45 224.888L1550.83 188.099L1617 151.38Z" fill="#CFE8E6" stroke="#F0F0F0" stroke-width="0.5"/>
<path d="M1682.94 188.553L1618.18 224.639L1617.75 151.796L1682.94 188.553Z" fill="#C7E4E2" stroke="#F0F0F0" stroke-width="0.5"/>
<path d="M1550.9 189.174L1616.77 225.389L1551.28 262.066L1550.9 189.174Z" fill="#E7F3F2" stroke="#F0F0F0" stroke-width="0.5"/>
<path d="M1618.29 298.762L1618.29 226.314L1682.62 263.166L1618.29 298.762Z" fill="#B7DCDA" stroke="#F0F0F0" stroke-width="0.5"/>
<path d="M1683.05 262.337L1618.97 225.393L1683.05 189.456L1683.05 262.337Z" fill="#DCEEED" stroke="#F0F0F0" stroke-width="0.5"/>
<path d="M1552.44 262.91L1617.04 226.566L1617.04 298.34L1552.44 262.91Z" fill="#99C2DF" stroke="#F0F0F0" stroke-width="0.5"/>
</g>
<g class="hex hex-30">
<path d="M1484.04 151.38L1484.48 224.888L1417.87 188.099L1484.04 151.38Z" fill="#CFE8E6" stroke="#F0F0F0" stroke-width="0.5"/>
<path d="M1549.97 188.553L1485.22 224.639L1484.78 151.796L1549.97 188.553Z" fill="#C7E4E2" stroke="#F0F0F0" stroke-width="0.5"/>
<path d="M1417.94 189.174L1483.81 225.389L1418.32 262.066L1417.94 189.174Z" fill="#E7F3F2" stroke="#F0F0F0" stroke-width="0.5"/>
<path d="M1485.33 298.762L1485.33 226.314L1549.66 263.166L1485.33 298.762Z" fill="#B7DCDA" stroke="#F0F0F0" stroke-width="0.5"/>
<path d="M1550.09 262.337L1486.01 225.393L1550.09 189.456L1550.09 262.337Z" fill="#DCEEED" stroke="#F0F0F0" stroke-width="0.5"/>
<path d="M1419.48 262.91L1484.08 226.566L1484.08 298.34L1419.48 262.91Z" fill="#99C2DF" stroke="#F0F0F0" stroke-width="0.5"/>
</g>
<g class="hex hex-29">
<path d="M1348.82 151.38L1349.26 224.888L1282.64 188.099L1348.82 151.38Z" fill="#E8AFAC" stroke="#F0F0F0" stroke-width="0.5"/>
<path d="M1414.75 188.553L1350 224.639L1349.56 151.796L1414.75 188.553Z" fill="#C34833" stroke="#F0F0F0" stroke-width="0.5"/>
<path d="M1282.71 189.174L1348.58 225.389L1283.1 262.066L1282.71 189.174Z" fill="#F1CCCB" stroke="#F0F0F0" stroke-width="0.5"/>
<path d="M1350.1 298.762L1350.1 226.314L1414.44 263.166L1350.1 298.762Z" fill="#D36D63" stroke="#F0F0F0" stroke-width="0.5"/>
<path d="M1414.86 262.337L1350.78 225.393L1414.86 189.456L1414.86 262.337Z" fill="#DF908B" stroke="#F0F0F0" stroke-width="0.5"/>
<path d="M1284.26 262.91L1348.85 226.566L1348.85 298.34L1284.26 262.91Z" fill="#AC3619" stroke="#F0F0F0" stroke-width="0.5"/>
</g>
<g class="hex hex-28">
<path d="M808.482 151.38L808.923 224.888L742.309 188.099L808.482 151.38Z" fill="#CFE8E6" stroke="#F0F0F0" stroke-width="0.5"/>
<path d="M874.414 188.553L809.662 224.639L809.224 151.796L874.414 188.553Z" fill="#C7E4E2" stroke="#F0F0F0" stroke-width="0.5"/>
<path d="M742.379 189.174L808.249 225.389L742.76 262.066L742.379 189.174Z" fill="#E7F3F2" stroke="#F0F0F0" stroke-width="0.5"/>
<path d="M809.767 298.762L809.767 226.314L874.101 263.166L809.767 298.762Z" fill="#B7DCDA" stroke="#F0F0F0" stroke-width="0.5"/>
<path d="M874.527 262.337L810.446 225.393L874.527 189.456L874.527 262.337Z" fill="#DCEEED" stroke="#F0F0F0" stroke-width="0.5"/>
<path d="M743.922 262.91L808.519 226.566L808.519 298.34L743.922 262.91Z" fill="#99C2DF" stroke="#F0F0F0" stroke-width="0.5"/>
</g>
<g class="hex hex-27">
<path d="M538.597 151.38L539.038 224.888L472.424 188.099L538.597 151.38Z" fill="#CFE8E6" stroke="#F0F0F0" stroke-width="0.5"/>
<path d="M604.528 188.553L539.776 224.639L539.339 151.796L604.528 188.553Z" fill="#C7E4E2" stroke="#F0F0F0" stroke-width="0.5"/>
<path d="M472.494 189.174L538.364 225.389L472.875 262.066L472.494 189.174Z" fill="#E7F3F2" stroke="#F0F0F0" stroke-width="0.5"/>
<path d="M539.882 298.762L539.882 226.314L604.216 263.166L539.882 298.762Z" fill="#B7DCDA" stroke="#F0F0F0" stroke-width="0.5"/>
<path d="M604.641 262.337L540.56 225.393L604.641 189.456L604.641 262.337Z" fill="#DCEEED" stroke="#F0F0F0" stroke-width="0.5"/>
<path d="M474.037 262.91L538.633 226.566L538.633 298.34L474.037 262.91Z" fill="#99C2DF" stroke="#F0F0F0" stroke-width="0.5"/>
</g>
<g class="hex hex-26">
<path d="M403.371 151.38L403.813 224.888L337.198 188.099L403.371 151.38Z" fill="#CFE8E6" stroke="#F0F0F0" stroke-width="0.5"/>
<path d="M469.303 188.553L404.551 224.639L404.113 151.796L469.303 188.553Z" fill="#C7E4E2" stroke="#F0F0F0" stroke-width="0.5"/>
<path d="M337.268 189.174L403.139 225.389L337.649 262.066L337.268 189.174Z" fill="#E7F3F2" stroke="#F0F0F0" stroke-width="0.5"/>
<path d="M404.656 298.762L404.656 226.314L468.99 263.166L404.656 298.762Z" fill="#B7DCDA" stroke="#F0F0F0" stroke-width="0.5"/>
<path d="M469.416 262.337L405.335 225.393L469.416 189.456L469.416 262.337Z" fill="#DCEEED" stroke="#F0F0F0" stroke-width="0.5"/>
<path d="M338.811 262.91L403.408 226.566L403.408 298.34L338.811 262.91Z" fill="#99C2DF" stroke="#F0F0F0" stroke-width="0.5"/>
</g>
<g class="hex hex-25">
<path d="M268.146 151.38L268.587 224.888L201.973 188.099L268.146 151.38Z" fill="#CFE8E6" stroke="#F0F0F0" stroke-width="0.5"/>
<path d="M334.078 188.553L269.326 224.639L268.888 151.796L334.078 188.553Z" fill="#C7E4E2" stroke="#F0F0F0" stroke-width="0.5"/>
<path d="M202.043 189.174L267.913 225.389L202.424 262.066L202.043 189.174Z" fill="#E7F3F2" stroke="#F0F0F0" stroke-width="0.5"/>
<path d="M269.431 298.762L269.431 226.314L333.765 263.166L269.431 298.762Z" fill="#B7DCDA" stroke="#F0F0F0" stroke-width="0.5"/>
<path d="M334.191 262.337L270.11 225.393L334.191 189.456L334.191 262.337Z" fill="#DCEEED" stroke="#F0F0F0" stroke-width="0.5"/>
<path d="M203.586 262.91L268.183 226.566L268.183 298.34L203.586 262.91Z" fill="#99C2DF" stroke="#F0F0F0" stroke-width="0.5"/>
</g>
<g class="hex hex-24">
<path d="M133.486 151.38L133.928 224.888L67.3134 188.099L133.486 151.38Z" fill="#CFE8E6" stroke="#F0F0F0" stroke-width="0.5"/>
<path d="M199.418 188.553L134.666 224.639L134.228 151.796L199.418 188.553Z" fill="#C7E4E2" stroke="#F0F0F0" stroke-width="0.5"/>
<path d="M67.3837 189.174L133.254 225.389L67.7645 262.066L67.3837 189.174Z" fill="#E7F3F2" stroke="#F0F0F0" stroke-width="0.5"/>
<path d="M134.772 298.762L134.772 226.314L199.105 263.166L134.772 298.762Z" fill="#B7DCDA" stroke="#F0F0F0" stroke-width="0.5"/>
<path d="M199.531 262.337L135.45 225.393L199.531 189.456L199.531 262.337Z" fill="#DCEEED" stroke="#F0F0F0" stroke-width="0.5"/>
<path d="M68.9264 262.91L133.523 226.566L133.523 298.34L68.9264 262.91Z" fill="#99C2DF" stroke="#F0F0F0" stroke-width="0.5"/>
</g>
<g class="hex hex-23">
<path d="M-1.73928 151.38L-1.29778 224.888L-67.9122 188.099L-1.73928 151.38Z" fill="#F7CF7D" stroke="#F0F0F0" stroke-width="0.5"/>
<path d="M64.1925 188.553L-0.559681 224.639L-0.997216 151.796L64.1925 188.553Z" fill="#DF9611" stroke="#F0F0F0" stroke-width="0.5"/>
<path d="M-0.454001 298.762L-0.454014 226.314L63.8798 263.166L-0.454001 298.762Z" fill="#F4B12E" stroke="#F0F0F0" stroke-width="0.5"/>
<path d="M64.3053 262.337L0.224492 225.393L64.3053 189.456L64.3053 262.337Z" fill="#F7CF7D" stroke="#F0F0F0" stroke-width="0.5"/>
<path d="M-66.2992 262.91L-1.70257 226.566L-1.70257 298.34L-66.2992 262.91Z" fill="#DF9611" stroke="#F0F0F0" stroke-width="0.5"/>
</g>
<g class="hex hex-22">
<path d="M2498.03 263.961L2498.47 337.469L2431.86 300.68L2498.03 263.961Z" fill="#CFE8E6" stroke="#F0F0F0" stroke-width="0.5"/>
<path d="M2563.96 301.133L2499.21 337.22L2498.77 264.376L2563.96 301.133Z" fill="#C7E4E2" stroke="#F0F0F0" stroke-width="0.5"/>
<path d="M2431.93 301.755L2497.8 337.969L2432.31 374.647L2431.93 301.755Z" fill="#E7F3F2" stroke="#F0F0F0" stroke-width="0.5"/>
<path d="M2499.32 411.343L2499.32 338.895L2563.65 375.747L2499.32 411.343Z" fill="#B7DCDA" stroke="#F0F0F0" stroke-width="0.5"/>
<path d="M2564.08 374.918L2500 337.974L2564.08 302.037L2564.08 374.918Z" fill="#DCEEED" stroke="#F0F0F0" stroke-width="0.5"/>
<path d="M2433.47 375.491L2498.07 339.146L2498.07 410.921L2433.47 375.491Z" fill="#99C2DF" stroke="#F0F0F0" stroke-width="0.5"/>
</g>
<g class="hex hex-21">
<path d="M2361.35 263.961L2361.79 337.469L2295.17 300.68L2361.35 263.961Z" fill="#F7CF7D" stroke="#F0F0F0" stroke-width="0.5"/>
<path d="M2427.28 301.133L2362.53 337.22L2362.09 264.376L2427.28 301.133Z" fill="#DF9611" stroke="#F0F0F0" stroke-width="0.5"/>
<path d="M2295.24 301.755L2361.11 337.969L2295.62 374.647L2295.24 301.755Z" fill="#FCECCB" stroke="#F0F0F0" stroke-width="0.5"/>
<path d="M2362.63 411.343L2362.63 338.895L2426.97 375.747L2362.63 411.343Z" fill="#F4B12E" stroke="#F0F0F0" stroke-width="0.5"/>
<path d="M2427.39 374.918L2363.31 337.974L2427.39 302.037L2427.39 374.918Z" fill="#F7CF7D" stroke="#F0F0F0" stroke-width="0.5"/>
<path d="M2296.79 375.491L2361.38 339.146L2361.38 410.921L2296.79 375.491Z" fill="#DF9611" stroke="#F0F0F0" stroke-width="0.5"/>
</g>
<g class="hex hex-20">
<path d="M1823.15 263.961L1823.59 337.469L1756.98 300.68L1823.15 263.961Z" fill="#CFE8E6" stroke="#F0F0F0" stroke-width="0.5"/>
<path d="M1889.08 301.133L1824.33 337.22L1823.89 264.376L1889.08 301.133Z" fill="#C7E4E2" stroke="#F0F0F0" stroke-width="0.5"/>
<path d="M1757.05 301.755L1822.92 337.969L1757.43 374.647L1757.05 301.755Z" fill="#E7F3F2" stroke="#F0F0F0" stroke-width="0.5"/>
<path d="M1824.43 411.343L1824.43 338.895L1888.77 375.747L1824.43 411.343Z" fill="#B7DCDA" stroke="#F0F0F0" stroke-width="0.5"/>
<path d="M1889.19 374.918L1825.11 337.974L1889.19 302.037L1889.19 374.918Z" fill="#DCEEED" stroke="#F0F0F0" stroke-width="0.5"/>
<path d="M1758.59 375.491L1823.19 339.146L1823.19 410.921L1758.59 375.491Z" fill="#99C2DF" stroke="#F0F0F0" stroke-width="0.5"/>
</g>
<g class="hex hex-19">
<path d="M1686.46 263.961L1686.9 337.469L1620.29 300.68L1686.46 263.961Z" fill="#F7CF7D" stroke="#F0F0F0" stroke-width="0.5"/>
<path d="M1752.39 301.133L1687.64 337.22L1687.2 264.376L1752.39 301.133Z" fill="#DF9611" stroke="#F0F0F0" stroke-width="0.5"/>
<path d="M1620.36 301.755L1686.23 337.969L1620.74 374.647L1620.36 301.755Z" fill="#FCECCB" stroke="#F0F0F0" stroke-width="0.5"/>
<path d="M1687.75 411.343L1687.75 338.895L1752.08 375.747L1687.75 411.343Z" fill="#F4B12E" stroke="#F0F0F0" stroke-width="0.5"/>
<path d="M1752.51 374.918L1688.43 337.974L1752.51 302.037L1752.51 374.918Z" fill="#F7CF7D" stroke="#F0F0F0" stroke-width="0.5"/>
<path d="M1621.9 375.491L1686.5 339.146L1686.5 410.921L1621.9 375.491Z" fill="#DF9611" stroke="#F0F0F0" stroke-width="0.5"/>
</g>
<g class="hex hex-18">
<path d="M471.832 263.961L472.274 337.469L405.66 300.68L471.832 263.961Z" fill="#CFE8E6" stroke="#F0F0F0" stroke-width="0.5"/>
<path d="M537.764 301.133L473.012 337.22L472.575 264.376L537.764 301.133Z" fill="#C7E4E2" stroke="#F0F0F0" stroke-width="0.5"/>
<path d="M405.73 301.755L471.6 337.969L406.111 374.647L405.73 301.755Z" fill="#E7F3F2" stroke="#F0F0F0" stroke-width="0.5"/>
<path d="M473.118 411.343L473.118 338.895L537.452 375.747L473.118 411.343Z" fill="#B7DCDA" stroke="#F0F0F0" stroke-width="0.5"/>
<path d="M537.877 374.918L473.796 337.974L537.877 302.037L537.877 374.918Z" fill="#DCEEED" stroke="#F0F0F0" stroke-width="0.5"/>
<path d="M407.273 375.491L471.869 339.146L471.869 410.921L407.273 375.491Z" fill="#99C2DF" stroke="#F0F0F0" stroke-width="0.5"/>
</g>
<g class="hex hex-17">
<path d="M336.607 263.961L337.048 337.469L270.434 300.68L336.607 263.961Z" fill="#CFE8E6" stroke="#F0F0F0" stroke-width="0.5"/>
<path d="M402.539 301.133L337.787 337.22L337.349 264.376L402.539 301.133Z" fill="#C7E4E2" stroke="#F0F0F0" stroke-width="0.5"/>
<path d="M270.504 301.755L336.374 337.969L270.885 374.647L270.504 301.755Z" fill="#E7F3F2" stroke="#F0F0F0" stroke-width="0.5"/>
<path d="M337.892 411.343L337.892 338.895L402.226 375.747L337.892 411.343Z" fill="#B7DCDA" stroke="#F0F0F0" stroke-width="0.5"/>
<path d="M402.652 374.918L338.571 337.974L402.652 302.037L402.652 374.918Z" fill="#DCEEED" stroke="#F0F0F0" stroke-width="0.5"/>
<path d="M272.047 375.491L336.644 339.146L336.644 410.921L272.047 375.491Z" fill="#99C2DF" stroke="#F0F0F0" stroke-width="0.5"/>
</g>
<g class="hex hex-16">
<path d="M200.816 263.961L201.257 337.469L134.643 300.68L200.816 263.961Z" fill="#78CCBA" stroke="#F0F0F0" stroke-width="0.5"/>
<path d="M266.748 301.133L201.995 337.22L201.558 264.376L266.748 301.133Z" fill="#40B79E" stroke="#F0F0F0" stroke-width="0.5"/>
<path d="M134.713 301.755L200.583 337.969L135.094 374.647L134.713 301.755Z" fill="#AADFD4" stroke="#F0F0F0" stroke-width="0.5"/>
<path d="M202.101 411.343L202.101 338.895L266.435 375.747L202.101 411.343Z" fill="#40B79E" stroke="#F0F0F0" stroke-width="0.5"/>
<path d="M266.861 374.918L202.78 337.974L266.861 302.037L266.861 374.918Z" fill="#78CCBA" stroke="#F0F0F0" stroke-width="0.5"/>
<path d="M136.256 375.491L200.853 339.146L200.853 410.921L136.256 375.491Z" fill="#008066" stroke="#F0F0F0" stroke-width="0.5"/>
</g>
<g class="hex hex-15">
<path d="M65.5903 263.961L66.0318 337.469L-0.582578 300.68L65.5903 263.961Z" fill="#CFE8E6" stroke="#F0F0F0" stroke-width="0.5"/>
<path d="M131.522 301.133L66.7699 337.22L66.3324 264.376L131.522 301.133Z" fill="#C7E4E2" stroke="#F0F0F0" stroke-width="0.5"/>
<path d="M-0.512337 301.755L65.3578 337.969L-0.131542 374.647L-0.512337 301.755Z" fill="#E7F3F2" stroke="#F0F0F0" stroke-width="0.5"/>
<path d="M66.8756 411.343L66.8756 338.895L131.209 375.747L66.8756 411.343Z" fill="#B7DCDA" stroke="#F0F0F0" stroke-width="0.5"/>
<path d="M131.635 374.918L67.5541 337.974L131.635 302.037L131.635 374.918Z" fill="#DCEEED" stroke="#F0F0F0" stroke-width="0.5"/>
<path d="M1.03041 375.491L65.627 339.146L65.627 410.921L1.03041 375.491Z" fill="#99C2DF" stroke="#F0F0F0" stroke-width="0.5"/>
</g>
<g class="hex hex-14">
<path d="M2560.39 376.209L2560.84 450.332L2493.66 413.236L2560.39 376.209Z" fill="#62718F" stroke="#F0F0F0" stroke-width="0.25"/>
<path d="M2626.98 413.612L2561.09 450.333L2560.64 376.209L2626.98 413.612Z" fill="#394C71" stroke="#F0F0F0" stroke-width="0.25"/>
<path d="M2493.53 413.447L2560.71 450.545L2493.92 488.116L2493.53 413.447Z" fill="#B6BDCB" stroke="#F0F0F0" stroke-width="0.25"/>
<path d="M2561.09 524.959L2561.09 450.758L2626.98 488.502L2561.09 524.959Z" fill="#62718F" stroke="#F0F0F0" stroke-width="0.25"/>
<path d="M2494.05 488.331L2560.84 450.756L2560.84 524.959L2494.05 488.331Z" fill="#25385C" stroke="#F0F0F0" stroke-width="0.25"/>
</g>
<g class="hex hex-13">
<path d="M2426.13 376.541L2426.57 450.05L2359.96 413.26L2426.13 376.541Z" fill="#CFE8E6" stroke="#F0F0F0" stroke-width="0.5"/>
<path d="M2492.06 413.714L2427.31 449.8L2426.87 376.957L2492.06 413.714Z" fill="#C7E4E2" stroke="#F0F0F0" stroke-width="0.5"/>
<path d="M2360.03 414.336L2425.9 450.55L2360.41 487.227L2360.03 414.336Z" fill="#E7F3F2" stroke="#F0F0F0" stroke-width="0.5"/>
<path d="M2427.41 523.923L2427.41 451.475L2491.75 488.328L2427.41 523.923Z" fill="#B7DCDA" stroke="#F0F0F0" stroke-width="0.5"/>
<path d="M2492.17 487.499L2428.09 450.555L2492.17 414.617L2492.17 487.499Z" fill="#DCEEED" stroke="#F0F0F0" stroke-width="0.5"/>
<path d="M2361.57 488.072L2426.17 451.727L2426.17 523.501L2361.57 488.072Z" fill="#99C2DF" stroke="#F0F0F0" stroke-width="0.5"/>
</g>
<g class="hex hex-12">
<path d="M2027.4 375.976L2027.84 449.484L1961.23 412.695L2027.4 375.976Z" fill="#78CCBA" stroke="#F0F0F0" stroke-width="0.5"/>
<path d="M2093.33 413.148L2028.58 449.235L2028.14 376.391L2093.33 413.148Z" fill="#40B79E" stroke="#F0F0F0" stroke-width="0.5"/>
<path d="M1961.3 413.77L2027.17 449.984L1961.68 486.662L1961.3 413.77Z" fill="#AADFD4" stroke="#F0F0F0" stroke-width="0.5"/>
<path d="M2028.69 523.358L2028.69 450.91L2093.02 487.762L2028.69 523.358Z" fill="#40B79E" stroke="#F0F0F0" stroke-width="0.5"/>
<path d="M2093.45 486.933L2029.36 449.989L2093.45 414.051L2093.45 486.933Z" fill="#78CCBA" stroke="#F0F0F0" stroke-width="0.5"/>
<path d="M1962.84 487.506L2027.44 451.161L2027.44 522.935L1962.84 487.506Z" fill="#008066" stroke="#F0F0F0" stroke-width="0.5"/>
</g>
<g class="hex hex-11">
<path d="M1892.18 377.107L1892.62 450.615L1826 413.826L1892.18 377.107Z" fill="#CFE8E6" stroke="#F0F0F0" stroke-width="0.5"/>
<path d="M1958.11 414.279L1893.36 450.366L1892.92 377.523L1958.11 414.279Z" fill="#C7E4E2" stroke="#F0F0F0" stroke-width="0.5"/>
<path d="M1826.07 414.901L1891.94 451.116L1826.45 487.793L1826.07 414.901Z" fill="#E7F3F2" stroke="#F0F0F0" stroke-width="0.5"/>
<path d="M1893.46 524.489L1893.46 452.041L1957.79 488.893L1893.46 524.489Z" fill="#B7DCDA" stroke="#F0F0F0" stroke-width="0.5"/>
<path d="M1958.22 488.064L1894.14 451.12L1958.22 415.183L1958.22 488.064Z" fill="#DCEEED" stroke="#F0F0F0" stroke-width="0.5"/>
<path d="M1827.62 488.637L1892.21 452.293L1892.21 524.067L1827.62 488.637Z" fill="#99C2DF" stroke="#F0F0F0" stroke-width="0.5"/>
</g>
<g class="hex hex-09">
<path d="M134.618 376.541L135.059 450.05L68.4448 413.26L134.618 376.541Z" fill="#CFE8E6" stroke="#F0F0F0" stroke-width="0.5"/>
<path d="M200.549 413.714L135.797 449.8L135.36 376.957L200.549 413.714Z" fill="#C7E4E2" stroke="#F0F0F0" stroke-width="0.5"/>
<path d="M68.515 414.336L134.385 450.55L68.8958 487.227L68.515 414.336Z" fill="#E7F3F2" stroke="#F0F0F0" stroke-width="0.5"/>
<path d="M135.903 523.923L135.903 451.475L200.237 488.328L135.903 523.923Z" fill="#B7DCDA" stroke="#F0F0F0" stroke-width="0.5"/>
<path d="M200.662 487.499L136.581 450.555L200.662 414.617L200.662 487.499Z" fill="#DCEEED" stroke="#F0F0F0" stroke-width="0.5"/>
<path d="M70.0578 488.072L134.654 451.727L134.654 523.501L70.0578 488.072Z" fill="#99C2DF" stroke="#F0F0F0" stroke-width="0.5"/>
</g>
<g class="hex hex-08">
<path d="M0.692801 376.209L1.138 450.332L-66.0333 413.236L0.692801 376.209Z" fill="#62718F" stroke="#F0F0F0" stroke-width="0.25"/>
<path d="M67.2816 413.612L1.39144 450.333L0.946225 376.209L67.2816 413.612Z" fill="#394C71" stroke="#F0F0F0" stroke-width="0.25"/>
<path d="M-66.1632 413.447L1.00938 450.545L-65.7749 488.116L-66.1632 413.447Z" fill="#B6BDCB" stroke="#F0F0F0" stroke-width="0.25"/>
<path d="M1.39258 524.959L1.39256 450.758L67.2823 488.502L1.39258 524.959Z" fill="#62718F" stroke="#F0F0F0" stroke-width="0.25"/>
<path d="M67.4105 488.289L1.52022 450.545L67.4105 413.83L67.4105 488.289Z" fill="#9CA5B8" stroke="#F0F0F0" stroke-width="0.25"/>
<path d="M-65.6434 488.331L1.13927 450.756L1.13927 524.959L-65.6434 488.331Z" fill="#25385C" stroke="#F0F0F0" stroke-width="0.25"/>
</g>
<g class="hex hex-07">
<path d="M2493.46 488.956L2493.9 562.465L2427.29 525.675L2493.46 488.956Z" fill="#CFE8E6" stroke="#F0F0F0" stroke-width="0.5"/>
<path d="M2559.39 526.129L2494.64 562.215L2494.2 489.372L2559.39 526.129Z" fill="#C7E4E2" stroke="#F0F0F0" stroke-width="0.5"/>
<path d="M2427.36 526.75L2493.23 562.965L2427.74 599.642L2427.36 526.75Z" fill="#E7F3F2" stroke="#F0F0F0" stroke-width="0.5"/>
<path d="M2494.74 636.338L2494.74 563.89L2559.08 600.743L2494.74 636.338Z" fill="#B7DCDA" stroke="#F0F0F0" stroke-width="0.5"/>
<path d="M2559.5 599.914L2495.42 562.97L2559.5 527.032L2559.5 599.914Z" fill="#DCEEED" stroke="#F0F0F0" stroke-width="0.5"/>
<path d="M2428.9 600.486L2493.5 564.142L2493.5 635.916L2428.9 600.486Z" fill="#99C2DF" stroke="#F0F0F0" stroke-width="0.5"/>
</g>
<g class="hex hex-06">
<path d="M67.854 488.956L68.2955 562.465L1.68109 525.675L67.854 488.956Z" fill="#E8AFAC" stroke="#F0F0F0" stroke-width="0.5"/>
<path d="M133.786 526.129L69.0336 562.215L68.596 489.372L133.786 526.129Z" fill="#C34833" stroke="#F0F0F0" stroke-width="0.5"/>
<path d="M1.75134 526.75L67.6215 562.965L2.13213 599.642L1.75134 526.75Z" fill="#F1CCCB" stroke="#F0F0F0" stroke-width="0.5"/>
<path d="M69.1393 636.338L69.1392 563.89L133.473 600.743L69.1393 636.338Z" fill="#D36D63" stroke="#F0F0F0" stroke-width="0.5"/>
<path d="M133.899 599.914L69.8178 562.97L133.899 527.032L133.899 599.914Z" fill="#DF908B" stroke="#F0F0F0" stroke-width="0.5"/>
<path d="M3.29408 600.486L67.8907 564.142L67.8907 635.916L3.29408 600.486Z" fill="#AC3619" stroke="#F0F0F0" stroke-width="0.5"/>
</g>
<g class="hex hex-05">
<path d="M2559.68 602.344L2560.12 675.853L2493.51 639.063L2559.68 602.344Z" fill="#E8AFAC" stroke="#F0F0F0" stroke-width="0.5"/>
<path d="M2625.61 639.517L2560.86 675.603L2560.42 602.76L2625.61 639.517Z" fill="#C34833" stroke="#F0F0F0" stroke-width="0.5"/>
<path d="M2493.58 640.138L2559.45 676.353L2493.96 713.03L2493.58 640.138Z" fill="#F1CCCB" stroke="#F0F0F0" stroke-width="0.5"/>
<path d="M2560.97 749.726L2560.97 677.278L2625.3 714.131L2560.97 749.726Z" fill="#D36D63" stroke="#F0F0F0" stroke-width="0.5"/>
<path d="M2495.12 713.874L2559.72 677.53L2559.72 749.304L2495.12 713.874Z" fill="#AC3619" stroke="#F0F0F0" stroke-width="0.5"/>
</g>
<g class="hex hex-04">
<path d="M403.371 601.611L403.813 675.119L337.198 638.33L403.371 601.611Z" fill="#F7CF7D" stroke="#F0F0F0" stroke-width="0.5"/>
<path d="M469.303 638.783L404.551 674.87L404.113 602.027L469.303 638.783Z" fill="#DF9611" stroke="#F0F0F0" stroke-width="0.5"/>
<path d="M337.268 639.405L403.139 675.62L337.649 712.297L337.268 639.405Z" fill="#FCECCB" stroke="#F0F0F0" stroke-width="0.5"/>
<path d="M404.656 748.993L404.656 676.545L468.99 713.397L404.656 748.993Z" fill="#F4B12E" stroke="#F0F0F0" stroke-width="0.5"/>
<path d="M469.416 712.568L405.335 675.624L469.416 639.687L469.416 712.568Z" fill="#F7CF7D" stroke="#F0F0F0" stroke-width="0.5"/>
<path d="M338.811 713.141L403.408 676.797L403.408 748.571L338.811 713.141Z" fill="#DF9611" stroke="#F0F0F0" stroke-width="0.5"/>
</g>
<g class="hex hex-03">
<path d="M0.524388 602.344L0.965896 675.853L-65.6485 639.063L0.524388 602.344Z" fill="#CFE8E6" stroke="#F0F0F0" stroke-width="0.5"/>
<path d="M66.4562 639.517L1.70399 675.603L1.26646 602.76L66.4562 639.517Z" fill="#C7E4E2" stroke="#F0F0F0" stroke-width="0.5"/>
<path d="M-65.5783 640.138L0.29189 676.353L-65.1975 713.03L-65.5783 640.138Z" fill="#E7F3F2" stroke="#F0F0F0" stroke-width="0.5"/>
<path d="M1.80967 749.726L1.80966 677.278L66.1435 714.131L1.80967 749.726Z" fill="#B7DCDA" stroke="#F0F0F0" stroke-width="0.5"/>
<path d="M66.569 713.302L2.48816 676.358L66.569 640.42L66.569 713.302Z" fill="#DCEEED" stroke="#F0F0F0" stroke-width="0.5"/>
<path d="M-64.0355 713.874L0.561103 677.53L0.561106 749.304L-64.0355 713.874Z" fill="#99C2DF" stroke="#F0F0F0" stroke-width="0.5"/>
</g>
<g class="hex hex-02">
<path d="M2358.5 713.611L2358.94 787.119L2292.33 750.33L2358.5 713.611Z" fill="#CFE8E6" stroke="#F0F0F0" stroke-width="0.5"/>
<path d="M2424.43 750.783L2359.68 786.87L2359.24 714.027L2424.43 750.783Z" fill="#C7E4E2" stroke="#F0F0F0" stroke-width="0.5"/>
<path d="M2292.4 751.405L2358.27 787.62L2292.78 824.297L2292.4 751.405Z" fill="#E7F3F2" stroke="#F0F0F0" stroke-width="0.5"/>
<path d="M2359.79 860.993L2359.79 788.545L2424.12 825.397L2359.79 860.993Z" fill="#B7DCDA" stroke="#F0F0F0" stroke-width="0.5"/>
<path d="M2424.55 824.568L2360.46 787.624L2424.55 751.687L2424.55 824.568Z" fill="#DCEEED" stroke="#F0F0F0" stroke-width="0.5"/>
<path d="M2293.94 825.141L2358.54 788.797L2358.54 860.571L2293.94 825.141Z" fill="#99C2DF" stroke="#F0F0F0" stroke-width="0.5"/>
</g>
<g class="hex hex-01">
<path d="M200.816 864.611L201.257 938.119L134.643 901.33L200.816 864.611Z" fill="#78CCBA" stroke="#F0F0F0" stroke-width="0.5"/>
<path d="M266.748 901.783L201.995 937.87L201.558 865.027L266.748 901.783Z" fill="#40B79E" stroke="#F0F0F0" stroke-width="0.5"/>
<path d="M134.713 902.405L200.583 938.62L135.094 975.297L134.713 902.405Z" fill="#AADFD4" stroke="#F0F0F0" stroke-width="0.5"/>
<path d="M202.101 1011.99L202.101 939.545L266.435 976.397L202.101 1011.99Z" fill="#40B79E" stroke="#F0F0F0" stroke-width="0.5"/>
<path d="M266.861 975.568L202.78 938.624L266.861 902.687L266.861 975.568Z" fill="#78CCBA" stroke="#F0F0F0" stroke-width="0.5"/>
<path d="M136.256 976.141L200.853 939.797L200.853 1011.57L136.256 976.141Z" fill="#008066" stroke="#F0F0F0" stroke-width="0.5"/>
</g>
</g>
<defs>
<filter id="filter0_d_1027_4102" x="-78" y="-75" width="2716" height="1105.08" filterUnits="userSpaceOnUse" color-interpolation-filters="sRGB">
<feFlood flood-opacity="0" result="BackgroundImageFix"/>
<feColorMatrix in="SourceAlpha" type="matrix" values="0 0 0 0 0 0 0 0 0 0 0 0 0 0 0 0 0 0 127 0" result="hardAlpha"/>
<feOffset dy="8"/>
<feGaussianBlur stdDeviation="4"/>
<feComposite in2="hardAlpha" operator="out"/>
<feColorMatrix type="matrix" values="0 0 0 0 0 0 0 0 0 0 0 0 0 0 0 0 0 0 0.3 0"/>
<feBlend mode="normal" in2="BackgroundImageFix" result="effect1_dropShadow_1027_4102"/>
<feBlend mode="normal" in="SourceGraphic" in2="effect1_dropShadow_1027_4102" result="shape"/>
</filter>
</defs>
</svg>
