<svg width="451" height="325" viewBox="0 0 351 225" fill="none" xmlns="http://www.w3.org/2000/svg">
<path class="hex" d="M255.239 53.8094L222 34.6188L188.761 53.8094V92.1906L222 111.381L255.239 92.1906V53.8094Z" stroke="#C34833" stroke-width="8"/>
<path class="hex" d="M264.813 22.2321L280 13.4641L295.187 22.232V39.768L280 48.5359L264.813 39.768V22.2321Z" stroke="#F4B12E" stroke-width="6"/>
<path class="hex" d="M159.5 26L245.67 75.75V175.25L159.5 225L73.3305 175.25V75.75L159.5 26Z" fill="#394C71"/>
<g class="hex">
    <path d="M258.982 104.238L259.153 132.623L233.43 118.417L258.982 104.238Z" fill="#CFE8E6" stroke="#F0F0F0" stroke-width="0.25"/>
    <path d="M284.637 118.562L259.406 132.623L259.236 104.24L284.637 118.562Z" fill="#C7E4E2" stroke="#F0F0F0" stroke-width="0.25"/>
    <path d="M233.3 118.629L259.024 132.835L233.449 147.223L233.3 118.629Z" fill="#E7F3F2" stroke="#F0F0F0" stroke-width="0.25"/>
    <path d="M259.407 161.461L259.407 133.049L284.637 147.501L259.407 161.461Z" fill="#B7DCDA" stroke="#F0F0F0" stroke-width="0.25"/>
    <path d="M284.765 147.288L259.535 132.836L284.765 118.777L284.765 147.288Z" fill="#DCEEED" stroke="#F0F0F0" stroke-width="0.25"/>
    <path d="M233.58 147.436L259.154 133.047L259.154 161.462L233.58 147.436Z" fill="#99C2DF" stroke="#F0F0F0" stroke-width="0.25"/>
</g>
<g class="hex">
    <path d="M186.88 183.231L187.004 203.779L168.383 193.495L186.88 183.231Z" fill="#CFE8E6" stroke="#F0F0F0" stroke-width="0.25"/>
    <path d="M205.521 193.601L187.257 203.779L187.134 183.233L205.521 193.601Z" fill="#C7E4E2" stroke="#F0F0F0" stroke-width="0.25"/>
    <path d="M168.253 193.707L186.875 203.991L168.36 214.407L168.253 193.707Z" fill="#E7F3F2" stroke="#F0F0F0" stroke-width="0.25"/>
    <path d="M187.258 224.772L187.258 204.205L205.522 214.667L187.258 224.772Z" fill="#B7DCDA" stroke="#F0F0F0" stroke-width="0.25"/>
    <path d="M205.65 214.454L187.386 203.992L205.65 193.815L205.65 214.454Z" fill="#DCEEED" stroke="#F0F0F0" stroke-width="0.25"/>
    <path d="M168.492 214.619L187.005 204.203L187.005 224.773L168.492 214.619Z" fill="#99C2DF" stroke="#F0F0F0" stroke-width="0.25"/>
</g>
<g class="hex">
    <path d="M115.88 0.231182L116.004 20.779L97.3828 10.4953L115.88 0.231182Z" fill="#CFE8E6" stroke="#F0F0F0" stroke-width="0.25"/>
    <path d="M134.521 10.6009L116.257 20.7794L116.134 0.233411L134.521 10.6009Z" fill="#C7E4E2" stroke="#F0F0F0" stroke-width="0.25"/>
    <path d="M97.2528 10.707L115.875 20.9914L97.3605 31.4072L97.2528 10.707Z" fill="#E7F3F2" stroke="#F0F0F0" stroke-width="0.25"/>
    <path d="M116.258 41.772L116.258 21.205L134.522 31.6668L116.258 41.772Z" fill="#B7DCDA" stroke="#F0F0F0" stroke-width="0.25"/>
    <path d="M134.65 31.454L116.386 20.9919L134.65 10.8149L134.65 31.454Z" fill="#DCEEED" stroke="#F0F0F0" stroke-width="0.25"/>
    <path d="M97.4919 31.6191L116.005 21.2031L116.005 41.7729L97.4919 31.6191Z" fill="#99C2DF" stroke="#F0F0F0" stroke-width="0.25"/>
</g>
<g class="hex">
    <path d="M301.931 60.2342L302.075 84.1485L280.403 72.1799L301.931 60.2342Z" fill="#CFE8E6" stroke="#F0F0F0" stroke-width="0.25"/>
    <path d="M323.585 72.3026L302.328 84.1489L302.185 60.2363L323.585 72.3026Z" fill="#C7E4E2" stroke="#F0F0F0" stroke-width="0.25"/>
    <path d="M280.273 72.3916L301.946 84.3609L280.398 96.4832L280.273 72.3916Z" fill="#E7F3F2" stroke="#F0F0F0" stroke-width="0.25"/>
    <path d="M302.329 108.512L302.329 84.5745L323.586 96.7506L302.329 108.512Z" fill="#B7DCDA" stroke="#F0F0F0" stroke-width="0.25"/>
    <path d="M323.713 96.5378L302.457 84.3614L323.713 72.5168L323.713 96.5378Z" fill="#DCEEED" stroke="#F0F0F0" stroke-width="0.25"/>
    <path d="M280.53 96.6952L302.076 84.5726L302.076 108.513L280.53 96.6952Z" fill="#99C2DF" stroke="#F0F0F0" stroke-width="0.25"/>
</g>
<g class="hex">
    <path d="M27.8827 102.24L28.0658 132.722L0.442797 117.466L27.8827 102.24Z" fill="#CFE8E6" stroke="#F0F0F0" stroke-width="0.25"/>
    <path d="M55.4141 117.622L28.3193 132.722L28.1362 102.242L55.4141 117.622Z" fill="#C7E4E2" stroke="#F0F0F0" stroke-width="0.25"/>
    <path d="M0.312777 117.678L27.9371 132.934L0.472472 148.385L0.312777 117.678Z" fill="#E7F3F2" stroke="#F0F0F0" stroke-width="0.25"/>
    <path d="M28.3206 163.66L28.3206 133.148L55.415 148.668L28.3206 163.66Z" fill="#B7DCDA" stroke="#F0F0F0" stroke-width="0.25"/>
    <path d="M55.5428 148.455L28.448 132.935L55.5428 117.837L55.5428 148.455Z" fill="#DCEEED" stroke="#F0F0F0" stroke-width="0.25"/>
    <path d="M0.604001 148.598L28.0671 133.146L28.0671 163.66L0.604001 148.598Z" fill="#99C2DF" stroke="#F0F0F0" stroke-width="0.25"/>
</g>
<path class="hex" d="M121.234 135.559L81.5 112.619L41.7657 135.559V181.441L81.5 204.381L121.234 181.441V135.559Z" stroke="#F4B12E" stroke-width="8"/>
<path class="hex" d="M293 162L312.919 173.5V196.5L293 208L273.081 196.5V173.5L293 162Z" fill="#C34833"/>
<path class="hex" d="M60 21L92.909 40V78L60 97L27.091 78V40L60 21Z" fill="#009E7D"/>
</svg>
