<svg width="451" height="325" viewBox="0 0 351 225" fill="none" xmlns="http://www.w3.org/2000/svg">
<path class="hex" d="M284.239 53.8094L251 34.6188L217.761 53.8094V92.1906L251 111.381L284.239 92.1906V53.8094Z" stroke="#006C56" stroke-width="8"/>
<path class="hex" d="M188.5 26L274.67 75.75V175.25L188.5 225L102.33 175.25V75.75L188.5 26Z" fill="#F4B12E"/>
<path class="hex" d="M278.5 126L310.976 144.75V182.25L278.5 201L246.024 182.25V144.75L278.5 126Z" fill="#394C71"/>
<path class="hex" d="M239 164L258.919 175.5V198.5L239 210L219.081 198.5V175.5L239 164Z" fill="#009E7D"/>
<g class="hex">
    <path d="M59.8827 70.24L60.0658 100.722L32.4428 85.4664L59.8827 70.24Z" fill="#CFE8E6" stroke="#F0F0F0" stroke-width="0.25"/>
    <path d="M87.4141 85.6222L60.3193 100.722L60.1362 70.2418L87.4141 85.6222Z" fill="#C7E4E2" stroke="#F0F0F0" stroke-width="0.25"/>
    <path d="M32.3128 85.6781L59.9371 100.934L32.4725 116.385L32.3128 85.6781Z" fill="#E7F3F2" stroke="#F0F0F0" stroke-width="0.25"/>
    <path d="M60.3206 131.66L60.3206 101.148L87.415 116.668L60.3206 131.66Z" fill="#B7DCDA" stroke="#F0F0F0" stroke-width="0.25"/>
    <path d="M87.5428 116.455L60.448 100.935L87.5428 85.8369L87.5428 116.455Z" fill="#DCEEED" stroke="#F0F0F0" stroke-width="0.25"/>
    <path d="M32.604 116.598L60.0671 101.146L60.0671 131.66L32.604 116.598Z" fill="#99C2DF" stroke="#F0F0F0" stroke-width="0.25"/>
</g>
<g class="hex">
    <path d="M150.88 153.231L151.004 173.779L132.383 163.495L150.88 153.231Z" fill="#CFE8E6" stroke="#F0F0F0" stroke-width="0.25"/>
    <path d="M169.521 163.601L151.257 173.779L151.134 153.233L169.521 163.601Z" fill="#C7E4E2" stroke="#F0F0F0" stroke-width="0.25"/>
    <path d="M132.253 163.707L150.875 173.991L132.36 184.407L132.253 163.707Z" fill="#E7F3F2" stroke="#F0F0F0" stroke-width="0.25"/>
    <path d="M151.258 194.772L151.258 174.205L169.522 184.667L151.258 194.772Z" fill="#B7DCDA" stroke="#F0F0F0" stroke-width="0.25"/>
    <path d="M169.65 184.454L151.386 173.992L169.65 163.815L169.65 184.454Z" fill="#DCEEED" stroke="#F0F0F0" stroke-width="0.25"/>
    <path d="M132.492 184.619L151.005 174.203L151.005 194.773L132.492 184.619Z" fill="#99C2DF" stroke="#F0F0F0" stroke-width="0.25"/>
</g>
<g class="hex">
    <path d="M299.88 90.2312L300.004 110.779L281.383 100.495L299.88 90.2312Z" fill="#CFE8E6" stroke="#F0F0F0" stroke-width="0.25"/>
    <path d="M318.521 100.601L300.257 110.779L300.134 90.2334L318.521 100.601Z" fill="#C7E4E2" stroke="#F0F0F0" stroke-width="0.25"/>
    <path d="M281.253 100.707L299.875 110.991L281.36 121.407L281.253 100.707Z" fill="#E7F3F2" stroke="#F0F0F0" stroke-width="0.25"/>
    <path d="M300.258 131.772L300.258 111.205L318.522 121.667L300.258 131.772Z" fill="#B7DCDA" stroke="#F0F0F0" stroke-width="0.25"/>
    <path d="M318.65 121.454L300.386 110.992L318.65 100.815L318.65 121.454Z" fill="#DCEEED" stroke="#F0F0F0" stroke-width="0.25"/>
    <path d="M281.492 121.619L300.005 111.203L300.005 131.773L281.492 121.619Z" fill="#99C2DF" stroke="#F0F0F0" stroke-width="0.25"/>
</g>
<g class="hex">
    <path d="M144.88 0.231213L145.004 20.779L126.383 10.4953L144.88 0.231213Z" fill="#CFE8E6" stroke="#F0F0F0" stroke-width="0.25"/>
    <path d="M163.521 10.6009L145.257 20.7794L145.134 0.233411L163.521 10.6009Z" fill="#C7E4E2" stroke="#F0F0F0" stroke-width="0.25"/>
    <path d="M126.253 10.707L144.875 20.9914L126.36 31.4073L126.253 10.707Z" fill="#E7F3F2" stroke="#F0F0F0" stroke-width="0.25"/>
    <path d="M145.258 41.772L145.258 21.205L163.522 31.6668L145.258 41.772Z" fill="#B7DCDA" stroke="#F0F0F0" stroke-width="0.25"/>
    <path d="M163.65 31.454L145.386 20.9919L163.65 10.8149L163.65 31.454Z" fill="#DCEEED" stroke="#F0F0F0" stroke-width="0.25"/>
    <path d="M126.492 31.6191L145.005 21.2031L145.005 41.7729L126.492 31.6191Z" fill="#99C2DF" stroke="#F0F0F0" stroke-width="0.25"/>
</g>
<g class="hex">
    <path d="M215.882 21.2381L216.052 49.5123L190.429 35.3617L215.882 21.2381Z" fill="#CFE8E6" stroke="#F0F0F0" stroke-width="0.25"/>
    <path d="M241.438 35.5064L216.306 49.5127L216.136 21.2399L241.438 35.5064Z" fill="#C7E4E2" stroke="#F0F0F0" stroke-width="0.25"/>
    <path d="M190.299 35.5734L215.923 49.7247L190.448 64.0569L190.299 35.5734Z" fill="#E7F3F2" stroke="#F0F0F0" stroke-width="0.25"/>
    <path d="M216.307 78.24L216.307 49.9383L241.439 64.3346L216.307 78.24Z" fill="#B7DCDA" stroke="#F0F0F0" stroke-width="0.25"/>
    <path d="M241.567 64.1217L216.434 49.7252L241.567 35.7208L241.567 64.1217Z" fill="#DCEEED" stroke="#F0F0F0" stroke-width="0.25"/>
    <path d="M190.579 64.2691L216.053 49.9364L216.053 78.241L190.579 64.2691Z" fill="#99C2DF" stroke="#F0F0F0" stroke-width="0.25"/>
</g>
<path class="hex" d="M145.234 52.5594L105.5 29.6188L65.7657 52.5594V98.4406L105.5 121.381L145.234 98.4406V52.5594Z" stroke="#C34833" stroke-width="8"/>
<path class="hex" d="M80.8135 151.232L96 142.464L111.187 151.232V168.768L96 177.536L80.8135 168.768V151.232Z" stroke="#C34833" stroke-width="6"/>
</svg>
