<svg width="451" height="325" viewBox="0 0 351 225" fill="none" xmlns="http://www.w3.org/2000/svg">
<path class="hex" d="M299.234 39.5594L259.5 16.6188L219.766 39.5594V85.4406L259.5 108.381L299.234 85.4406V39.5594Z" stroke="#394C71" stroke-width="8"/>
<g class="hex">
    <path d="M59.8827 70.2401L60.0658 100.722L32.4428 85.4664L59.8827 70.2401Z" fill="#CFE8E6" stroke="#F0F0F0" stroke-width="0.25"/>
    <path d="M87.4141 85.6222L60.3193 100.722L60.1362 70.2418L87.4141 85.6222Z" fill="#C7E4E2" stroke="#F0F0F0" stroke-width="0.25"/>
    <path d="M32.3128 85.678L59.9371 100.934L32.4725 116.385L32.3128 85.678Z" fill="#E7F3F2" stroke="#F0F0F0" stroke-width="0.25"/>
    <path d="M60.3206 131.659L60.3206 101.148L87.415 116.668L60.3206 131.659Z" fill="#B7DCDA" stroke="#F0F0F0" stroke-width="0.25"/>
    <path d="M87.5428 116.455L60.448 100.935L87.5428 85.8369L87.5428 116.455Z" fill="#DCEEED" stroke="#F0F0F0" stroke-width="0.25"/>
    <path d="M32.604 116.598L60.0671 101.146L60.0671 131.66L32.604 116.598Z" fill="#99C2DF" stroke="#F0F0F0" stroke-width="0.25"/>
</g>
<path class="hex" d="M145.239 76.8094L112 57.6188L78.7609 76.8094V115.191L112 134.381L145.239 115.191V76.8094Z" stroke="#F4B12E" stroke-width="8"/>
<path class="hex" d="M188.5 26L274.67 75.75V175.25L188.5 225L102.33 175.25V75.75L188.5 26Z" fill="#009E7D"/>
<path class="hex" d="M98.5 122L130.976 140.75V178.25L98.5 197L66.024 178.25V140.75L98.5 122Z" fill="#C34833"/>
<g class="hex">
    <path d="M125.88 164.231L126.004 184.779L107.383 174.495L125.88 164.231Z" fill="#CFE8E6" stroke="#F0F0F0" stroke-width="0.25"/>
    <path d="M144.521 174.601L126.257 184.779L126.134 164.233L144.521 174.601Z" fill="#C7E4E2" stroke="#F0F0F0" stroke-width="0.25"/>
    <path d="M107.253 174.707L125.875 184.991L107.36 195.407L107.253 174.707Z" fill="#E7F3F2" stroke="#F0F0F0" stroke-width="0.25"/>
    <path d="M126.258 205.772L126.258 185.205L144.522 195.667L126.258 205.772Z" fill="#B7DCDA" stroke="#F0F0F0" stroke-width="0.25"/>
    <path d="M144.65 195.454L126.386 184.992L144.65 174.815L144.65 195.454Z" fill="#DCEEED" stroke="#F0F0F0" stroke-width="0.25"/>
    <path d="M107.492 195.619L126.005 185.203L126.005 205.773L107.492 195.619Z" fill="#99C2DF" stroke="#F0F0F0" stroke-width="0.25"/>
</g>
<g class="hex">
    <path d="M300.88 79.2312L301.004 99.779L282.383 89.4953L300.88 79.2312Z" fill="#CFE8E6" stroke="#F0F0F0" stroke-width="0.25"/>
    <path d="M319.521 89.6009L301.257 99.7794L301.134 79.2334L319.521 89.6009Z" fill="#C7E4E2" stroke="#F0F0F0" stroke-width="0.25"/>
    <path d="M282.253 89.7069L300.875 99.9914L282.36 110.407L282.253 89.7069Z" fill="#E7F3F2" stroke="#F0F0F0" stroke-width="0.25"/>
    <path d="M301.258 120.772L301.258 100.205L319.522 110.667L301.258 120.772Z" fill="#B7DCDA" stroke="#F0F0F0" stroke-width="0.25"/>
    <path d="M319.65 110.454L301.386 99.9919L319.65 89.8149L319.65 110.454Z" fill="#DCEEED" stroke="#F0F0F0" stroke-width="0.25"/>
    <path d="M282.492 110.619L301.005 100.203L301.005 120.773L282.492 110.619Z" fill="#99C2DF" stroke="#F0F0F0" stroke-width="0.25"/>
</g>
<g class="hex">
    <path d="M135.88 0.231213L136.004 20.779L117.383 10.4953L135.88 0.231213Z" fill="#CFE8E6" stroke="#F0F0F0" stroke-width="0.25"/>
    <path d="M154.521 10.6009L136.257 20.7794L136.134 0.23335L154.521 10.6009Z" fill="#C7E4E2" stroke="#F0F0F0" stroke-width="0.25"/>
    <path d="M117.253 10.7069L135.875 20.9914L117.36 31.4072L117.253 10.7069Z" fill="#E7F3F2" stroke="#F0F0F0" stroke-width="0.25"/>
    <path d="M136.258 41.772L136.258 21.205L154.522 31.6668L136.258 41.772Z" fill="#B7DCDA" stroke="#F0F0F0" stroke-width="0.25"/>
    <path d="M154.65 31.454L136.386 20.9919L154.65 10.8149L154.65 31.454Z" fill="#DCEEED" stroke="#F0F0F0" stroke-width="0.25"/>
    <path d="M117.492 31.619L136.005 21.2031L136.005 41.7728L117.492 31.619Z" fill="#99C2DF" stroke="#F0F0F0" stroke-width="0.25"/>
</g>
<g class="hex">
<path d="M279.882 138.238L280.052 166.512L254.429 152.362L279.882 138.238Z" fill="#CFE8E6" stroke="#F0F0F0" stroke-width="0.25"/>
<path d="M305.438 152.506L280.306 166.513L280.136 138.24L305.438 152.506Z" fill="#C7E4E2" stroke="#F0F0F0" stroke-width="0.25"/>
<path d="M254.299 152.573L279.923 166.725L254.448 181.057L254.299 152.573Z" fill="#E7F3F2" stroke="#F0F0F0" stroke-width="0.25"/>
<path d="M280.307 195.24L280.307 166.938L305.439 181.335L280.307 195.24Z" fill="#B7DCDA" stroke="#F0F0F0" stroke-width="0.25"/>
<path d="M305.567 181.122L280.434 166.725L305.567 152.721L305.567 181.122Z" fill="#DCEEED" stroke="#F0F0F0" stroke-width="0.25"/>
<path d="M254.579 181.269L280.053 166.936L280.053 195.241L254.579 181.269Z" fill="#99C2DF" stroke="#F0F0F0" stroke-width="0.25"/>
</g>
<path class="hex" d="M219.581 175.789L239 164.577L258.419 175.789V198.211L239 209.423L219.581 198.211V175.789Z" fill="#F4B12E"/>
<path class="hex" d="M65.8135 33.2321L81 24.4641L96.1865 33.232V50.768L81 59.5359L65.8135 50.768V33.2321Z" stroke="#394C71" stroke-width="6"/>
</svg>
