<svg width="2560" height="933" viewBox="0 0 2560 933" fill="none" xmlns="http://www.w3.org/2000/svg">
<g filter="url(#filter0_d_72_1271)">
<path d="M95.2841 -108.678L95.9357 -0.423781L-2.38883 -54.6028L95.2841 -108.678Z" fill="#5CC1AC" stroke="#F0F0F0" stroke-width="0.25"/>
<path d="M192.64 -54.0538L96.1896 -0.423346L95.538 -108.68L192.64 -54.0538Z" fill="#45B9A1" stroke="#F0F0F0" stroke-width="0.25"/>
<path d="M-2.5191 -54.3914L95.8068 -0.21167L-1.95067 54.6602L-2.5191 -54.3914Z" fill="#B9E4DB" stroke="#F0F0F0" stroke-width="0.25"/>
<path d="M96.1908 108.371L96.1908 0.0016088L192.641 55.1257L96.1908 108.371Z" fill="#2EB095" stroke="#F0F0F0" stroke-width="0.25"/>
<path d="M192.769 54.9132L96.3185 -0.21117L192.769 -53.8337L192.769 54.9132Z" fill="#8ED4C5" stroke="#F0F0F0" stroke-width="0.25"/>
<path d="M-1.81898 54.8762L95.937 -0.00031683L95.937 108.371L-1.81898 54.8762Z" fill="#009F7E" stroke="#F0F0F0" stroke-width="0.25"/>
<path d="M96.9359 219.936L97.5876 328.19L-0.736979 274.011L96.9359 219.936Z" fill="#F7ABA8" stroke="#F0F0F0" stroke-width="0.25"/>
<path d="M194.292 274.56L97.8415 328.191L97.1898 219.934L194.292 274.56Z" fill="#F48A86" stroke="#F0F0F0" stroke-width="0.25"/>
<path d="M-0.867241 274.223L97.4586 328.403L-0.298818 383.274L-0.867241 274.223Z" fill="#FACDCB" stroke="#F0F0F0" stroke-width="0.25"/>
<path d="M97.8426 436.985L97.8426 328.616L194.293 383.74L97.8426 436.985Z" fill="#F16963" stroke="#F0F0F0" stroke-width="0.25"/>
<path d="M194.421 383.527L97.9704 328.403L194.421 274.78L194.421 383.527Z" fill="#F8B6B4" stroke="#F0F0F0" stroke-width="0.25"/>
<path d="M-0.167123 383.49L97.5888 328.614L97.5888 436.986L-0.167123 383.49Z" fill="#D9423C" stroke="#F0F0F0" stroke-width="0.25"/>
<path d="M100.239 548.55L100.891 656.805L2.56624 602.626L100.239 548.55Z" fill="#F3CF76" stroke="#F0F0F0" stroke-width="0.25"/>
<path d="M197.595 603.174L101.145 656.805L100.493 548.548L197.595 603.174Z" fill="#F1C75F" stroke="#F0F0F0" stroke-width="0.25"/>
<path d="M2.43598 602.837L100.762 657.017L3.0044 711.889L2.43598 602.837Z" fill="#F9E7BA" stroke="#F0F0F0" stroke-width="0.25"/>
<path d="M101.146 765.599L101.146 657.23L197.596 712.354L101.146 765.599Z" fill="#EDB732" stroke="#F0F0F0" stroke-width="0.25"/>
<path d="M197.724 712.142L101.274 657.017L197.724 603.395L197.724 712.142Z" fill="#F6DC9C" stroke="#F0F0F0" stroke-width="0.25"/>
<path d="M3.1361 712.105L100.892 657.228L100.892 765.6L3.1361 712.105Z" fill="#E9A705" stroke="#F0F0F0" stroke-width="0.25"/>
<path d="M2461.22 219.936L2461.87 328.19L2363.55 274.011L2461.22 219.936Z" fill="#CFE8E6" stroke="#F0F0F0" stroke-width="0.25"/>
<path d="M2558.58 274.56L2462.13 328.191L2461.47 219.934L2558.58 274.56Z" fill="#C7E4E2" stroke="#F0F0F0" stroke-width="0.25"/>
<path d="M2363.42 274.223L2461.74 328.403L2363.99 383.274L2363.42 274.223Z" fill="#E7F3F2" stroke="#F0F0F0" stroke-width="0.25"/>
<path d="M2462.13 436.985L2462.13 328.616L2558.58 383.74L2462.13 436.985Z" fill="#B7DCDA" stroke="#F0F0F0" stroke-width="0.25"/>
<path d="M2558.7 383.527L2462.25 328.403L2558.7 274.78L2558.7 383.527Z" fill="#DCEEED" stroke="#F0F0F0" stroke-width="0.25"/>
<path d="M2364.12 383.49L2461.87 328.614L2461.87 436.986L2364.12 383.49Z" fill="#99C2DF" stroke="#F0F0F0" stroke-width="0.25"/>
<path d="M490.02 -109.504L490.672 -1.24945L392.347 -55.4284L490.02 -109.504Z" fill="#546FA0" stroke="#F0F0F0" stroke-width="0.25"/>
<path d="M587.376 -54.8795L490.925 -1.24901L490.274 -109.506L587.376 -54.8795Z" fill="#365287" stroke="#F0F0F0" stroke-width="0.25"/>
<path d="M392.217 -55.217L490.543 -1.03734L392.785 53.8346L392.217 -55.217Z" fill="#8997B1" stroke="#F0F0F0" stroke-width="0.25"/>
<path d="M490.927 107.545L490.927 -0.82406L587.377 54.3L490.927 107.545Z" fill="#385B9D" stroke="#F0F0F0" stroke-width="0.25"/>
<path d="M587.505 54.0875L491.054 -1.03684L587.505 -54.6594L587.505 54.0875Z" fill="#6682B7" stroke="#F0F0F0" stroke-width="0.25"/>
<path d="M392.917 54.0506L490.673 -0.825985L490.673 107.546L392.917 54.0506Z" fill="#293E66" stroke="#F0F0F0" stroke-width="0.25"/>
<path d="M292.652 -108.678L293.304 -0.423781L194.979 -54.6028L292.652 -108.678Z" fill="#CFE8E6" stroke="#F0F0F0" stroke-width="0.25"/>
<path d="M390.008 -54.0538L293.558 -0.423346L292.906 -108.68L390.008 -54.0538Z" fill="#C7E4E2" stroke="#F0F0F0" stroke-width="0.25"/>
<path d="M194.849 -54.3914L293.175 -0.21167L195.417 54.6602L194.849 -54.3914Z" fill="#E7F3F2" stroke="#F0F0F0" stroke-width="0.25"/>
<path d="M293.559 108.371L293.559 0.0016088L390.009 55.1257L293.559 108.371Z" fill="#B7DCDA" stroke="#F0F0F0" stroke-width="0.25"/>
<path d="M390.137 54.9132L293.687 -0.21117L390.137 -53.8337L390.137 54.9132Z" fill="#DCEEED" stroke="#F0F0F0" stroke-width="0.25"/>
<path d="M195.549 54.8762L293.305 -0.00031683L293.305 108.371L195.549 54.8762Z" fill="#99C2DF" stroke="#F0F0F0" stroke-width="0.25"/>
<path d="M687.388 -113.678L688.039 -5.42378L589.715 -59.6028L687.388 -113.678Z" fill="#CFE8E6" stroke="#F0F0F0" stroke-width="0.25"/>
<path d="M784.744 -59.0538L688.293 -5.42335L687.641 -113.68L784.744 -59.0538Z" fill="#C7E4E2" stroke="#F0F0F0" stroke-width="0.25"/>
<path d="M589.584 -59.3914L687.91 -5.21167L590.153 49.6602L589.584 -59.3914Z" fill="#E7F3F2" stroke="#F0F0F0" stroke-width="0.25"/>
<path d="M688.294 103.371L688.294 -4.99839L784.744 50.1257L688.294 103.371Z" fill="#B7DCDA" stroke="#F0F0F0" stroke-width="0.25"/>
<path d="M784.872 49.9132L688.422 -5.21117L784.872 -58.8337L784.872 49.9132Z" fill="#DCEEED" stroke="#F0F0F0" stroke-width="0.25"/>
<path d="M590.285 49.8762L688.04 -5.00032L688.04 103.371L590.285 49.8762Z" fill="#99C2DF" stroke="#F0F0F0" stroke-width="0.25"/>
<path d="M1278.66 -108.678L1279.32 -0.423781L1180.99 -54.6028L1278.66 -108.678Z" fill="#CFE8E6" stroke="#F0F0F0" stroke-width="0.25"/>
<path d="M1376.02 -54.0538L1279.57 -0.423346L1278.92 -108.68L1376.02 -54.0538Z" fill="#C7E4E2" stroke="#F0F0F0" stroke-width="0.25"/>
<path d="M1180.86 -54.3914L1279.19 -0.21167L1181.43 54.6602L1180.86 -54.3914Z" fill="#E7F3F2" stroke="#F0F0F0" stroke-width="0.25"/>
<path d="M1279.57 108.371L1279.57 0.0016088L1376.02 55.1257L1279.57 108.371Z" fill="#B7DCDA" stroke="#F0F0F0" stroke-width="0.25"/>
<path d="M1376.15 54.9132L1279.7 -0.21117L1376.15 -53.8337L1376.15 54.9132Z" fill="#DCEEED" stroke="#F0F0F0" stroke-width="0.25"/>
<path d="M1181.56 54.8762L1279.32 -0.00031683L1279.32 108.371L1181.56 54.8762Z" fill="#99C2DF" stroke="#F0F0F0" stroke-width="0.25"/>
<path d="M883.93 -108.678L884.581 -0.423781L786.257 -54.6028L883.93 -108.678Z" fill="#5CC1AC" stroke="#F0F0F0" stroke-width="0.25"/>
<path d="M981.286 -54.0538L884.835 -0.423346L884.183 -108.68L981.286 -54.0538Z" fill="#45B9A1" stroke="#F0F0F0" stroke-width="0.25"/>
<path d="M786.126 -54.3914L884.452 -0.21167L786.695 54.6602L786.126 -54.3914Z" fill="#B9E4DB" stroke="#F0F0F0" stroke-width="0.25"/>
<path d="M884.836 108.371L884.836 0.0016088L981.286 55.1257L884.836 108.371Z" fill="#2EB095" stroke="#F0F0F0" stroke-width="0.25"/>
<path d="M981.414 54.9132L884.964 -0.21117L981.414 -53.8337L981.414 54.9132Z" fill="#8ED4C5" stroke="#F0F0F0" stroke-width="0.25"/>
<path d="M786.827 54.8762L884.582 -0.00031683L884.582 108.371L786.827 54.8762Z" fill="#009F7E" stroke="#F0F0F0" stroke-width="0.25"/>
<path d="M-1.33507 55.6287L-0.683394 163.883L-99.008 109.704L-1.33507 55.6287Z" fill="#CFE8E6" stroke="#F0F0F0" stroke-width="0.25"/>
<path d="M96.0209 110.253L-0.429492 163.884L-1.08119 55.6269L96.0209 110.253Z" fill="#C7E4E2" stroke="#F0F0F0" stroke-width="0.25"/>
<path d="M-0.428373 272.678L-0.428389 164.309L96.0216 219.433L-0.428373 272.678Z" fill="#B7DCDA" stroke="#F0F0F0" stroke-width="0.25"/>
<path d="M96.1498 219.22L-0.300636 164.096L96.1498 110.473L96.1498 219.22Z" fill="#DCEEED" stroke="#F0F0F0" stroke-width="0.25"/>
<path d="M-98.4381 219.183L-0.682175 164.307L-0.68218 272.679L-98.4381 219.183Z" fill="#99C2DF" stroke="#F0F0F0" stroke-width="0.25"/>
<path d="M-1.33507 712.031L-0.683394 820.286L-99.008 766.107L-1.33507 712.031Z" fill="#CFE8E6" stroke="#F0F0F0" stroke-width="0.25"/>
<path d="M96.0209 766.656L-0.429492 820.286L-1.08119 712.03L96.0209 766.656Z" fill="#C7E4E2" stroke="#F0F0F0" stroke-width="0.25"/>
<path d="M-0.428373 929.08L-0.428389 820.711L96.0216 875.835L-0.428373 929.08Z" fill="#B7DCDA" stroke="#F0F0F0" stroke-width="0.25"/>
<path d="M96.1498 875.623L-0.300636 820.499L96.1498 766.876L96.1498 875.623Z" fill="#DCEEED" stroke="#F0F0F0" stroke-width="0.25"/>
<path d="M-98.4381 875.586L-0.682175 820.709L-0.68218 929.081L-98.4381 875.586Z" fill="#99C2DF" stroke="#F0F0F0" stroke-width="0.25"/>
<path d="M1.96815 384.243L2.61983 492.497L-95.7048 438.319L1.96815 384.243Z" fill="#546FA0" stroke="#F0F0F0" stroke-width="0.25"/>
<path d="M99.3241 438.867L2.87373 492.498L2.22204 384.241L99.3241 438.867Z" fill="#365287" stroke="#F0F0F0" stroke-width="0.25"/>
<path d="M-95.835 438.53L2.49087 492.71L-95.2666 547.582L-95.835 438.53Z" fill="#8997B1" stroke="#F0F0F0" stroke-width="0.25"/>
<path d="M2.87485 601.292L2.87483 492.923L99.3248 548.047L2.87485 601.292Z" fill="#385B9D" stroke="#F0F0F0" stroke-width="0.25"/>
<path d="M99.4531 547.834L3.00259 492.71L99.4531 439.088L99.4531 547.834Z" fill="#6682B7" stroke="#F0F0F0" stroke-width="0.25"/>
<path d="M-95.1349 547.798L2.62105 492.921L2.62104 601.293L-95.1349 547.798Z" fill="#293E66" stroke="#F0F0F0" stroke-width="0.25"/>
<path d="M2169.71 383.417L2170.36 491.672L2072.04 437.493L2169.71 383.417Z" fill="#CFE8E6" stroke="#F0F0F0" stroke-width="0.25"/>
<path d="M2267.07 438.042L2170.62 491.672L2169.96 383.415L2267.07 438.042Z" fill="#C7E4E2" stroke="#F0F0F0" stroke-width="0.25"/>
<path d="M2071.91 437.704L2170.23 491.884L2072.48 546.756L2071.91 437.704Z" fill="#E7F3F2" stroke="#F0F0F0" stroke-width="0.25"/>
<path d="M2170.62 600.466L2170.62 492.097L2267.07 547.221L2170.62 600.466Z" fill="#B7DCDA" stroke="#F0F0F0" stroke-width="0.25"/>
<path d="M2267.2 547.009L2170.74 491.884L2267.2 438.262L2267.2 547.009Z" fill="#DCEEED" stroke="#F0F0F0" stroke-width="0.25"/>
<path d="M2072.61 546.972L2170.36 492.095L2170.36 600.467L2072.61 546.972Z" fill="#99C2DF" stroke="#F0F0F0" stroke-width="0.25"/>
<path d="M196.033 55.6287L196.684 163.883L98.3597 109.704L196.033 55.6287Z" fill="#CFE8E6" stroke="#F0F0F0" stroke-width="0.25"/>
<path d="M293.389 110.253L196.938 163.884L196.286 55.6269L293.389 110.253Z" fill="#C7E4E2" stroke="#F0F0F0" stroke-width="0.25"/>
<path d="M98.2294 109.916L196.555 164.095L98.7979 218.967L98.2294 109.916Z" fill="#E7F3F2" stroke="#F0F0F0" stroke-width="0.25"/>
<path d="M196.939 272.678L196.939 164.309L293.389 219.433L196.939 272.678Z" fill="#B7DCDA" stroke="#F0F0F0" stroke-width="0.25"/>
<path d="M293.518 219.22L197.067 164.096L293.518 110.473L293.518 219.22Z" fill="#DCEEED" stroke="#F0F0F0" stroke-width="0.25"/>
<path d="M98.9296 219.183L196.686 164.307L196.685 272.679L98.9296 219.183Z" fill="#99C2DF" stroke="#F0F0F0" stroke-width="0.25"/>
<path d="M193.555 384.243L194.207 492.497L95.8822 438.319L193.555 384.243Z" fill="#CFE8E6" stroke="#F0F0F0" stroke-width="0.25"/>
<path d="M290.911 438.867L194.461 492.498L193.809 384.241L290.911 438.867Z" fill="#C7E4E2" stroke="#F0F0F0" stroke-width="0.25"/>
<path d="M95.7519 438.53L194.078 492.71L96.3203 547.582L95.7519 438.53Z" fill="#E7F3F2" stroke="#F0F0F0" stroke-width="0.25"/>
<path d="M194.462 601.292L194.462 492.923L290.912 548.047L194.462 601.292Z" fill="#B7DCDA" stroke="#F0F0F0" stroke-width="0.25"/>
<path d="M291.04 547.834L194.59 492.71L291.04 439.088L291.04 547.834Z" fill="#DCEEED" stroke="#F0F0F0" stroke-width="0.25"/>
<path d="M96.452 547.798L194.208 492.921L194.208 601.293L96.452 547.798Z" fill="#99C2DF" stroke="#F0F0F0" stroke-width="0.25"/>
<path d="M2263.85 -110.33L2264.5 -2.07511L2166.18 -56.2541L2263.85 -110.33Z" fill="#F3CF76" stroke="#F0F0F0" stroke-width="0.25"/>
<path d="M2361.21 -55.7052L2264.76 -2.07467L2264.11 -110.331L2361.21 -55.7052Z" fill="#F1C75F" stroke="#F0F0F0" stroke-width="0.25"/>
<path d="M2166.05 -56.0427L2264.37 -1.863L2166.62 53.0089L2166.05 -56.0427Z" fill="#F9E7BA" stroke="#F0F0F0" stroke-width="0.25"/>
<path d="M2264.76 106.719L2264.76 -1.64972L2361.21 53.4743L2264.76 106.719Z" fill="#EDB732" stroke="#F0F0F0" stroke-width="0.25"/>
<path d="M2361.34 53.2619L2264.89 -1.8625L2361.34 -55.485L2361.34 53.2619Z" fill="#F6DC9C" stroke="#F0F0F0" stroke-width="0.25"/>
<path d="M2166.75 53.2249L2264.5 -1.65165L2264.5 106.72L2166.75 53.2249Z" fill="#E9A705" stroke="#F0F0F0" stroke-width="0.25"/>
<path d="M2560.32 384.243L2560.97 492.497L2462.64 438.319L2560.32 384.243Z" fill="#F7ABA8" stroke="#F0F0F0" stroke-width="0.25"/>
<path d="M2657.67 438.867L2561.22 492.498L2560.57 384.241L2657.67 438.867Z" fill="#F48A86" stroke="#F0F0F0" stroke-width="0.25"/>
<path d="M2462.51 438.53L2560.84 492.71L2463.08 547.582L2462.51 438.53Z" fill="#FACDCB" stroke="#F0F0F0" stroke-width="0.25"/>
<path d="M2561.22 601.292L2561.22 492.923L2657.67 548.047L2561.22 601.292Z" fill="#F16963" stroke="#F0F0F0" stroke-width="0.25"/>
<path d="M2463.21 547.798L2560.97 492.921L2560.97 601.293L2463.21 547.798Z" fill="#D9423C" stroke="#F0F0F0" stroke-width="0.25"/>
<path d="M2559.49 55.6287L2560.14 163.883L2461.82 109.704L2559.49 55.6287Z" fill="#CFE8E6" stroke="#F0F0F0" stroke-width="0.25"/>
<path d="M2656.85 110.253L2560.4 163.884L2559.74 55.6269L2656.85 110.253Z" fill="#C7E4E2" stroke="#F0F0F0" stroke-width="0.25"/>
<path d="M2461.69 109.916L2560.01 164.095L2462.26 218.967L2461.69 109.916Z" fill="#E7F3F2" stroke="#F0F0F0" stroke-width="0.25"/>
<path d="M2560.4 272.678L2560.4 164.309L2656.85 219.433L2560.4 272.678Z" fill="#B7DCDA" stroke="#F0F0F0" stroke-width="0.25"/>
<path d="M2462.39 219.183L2560.14 164.307L2560.14 272.679L2462.39 219.183Z" fill="#99C2DF" stroke="#F0F0F0" stroke-width="0.25"/>
</g>
<defs>
<filter id="filter0_d_72_1271" x="-107.922" y="-113.988" width="2775.02" height="1060.51" filterUnits="userSpaceOnUse" color-interpolation-filters="sRGB">
<feFlood flood-opacity="0" result="BackgroundImageFix"/>
<feColorMatrix in="SourceAlpha" type="matrix" values="0 0 0 0 0 0 0 0 0 0 0 0 0 0 0 0 0 0 127 0" result="hardAlpha"/>
<feOffset dy="8"/>
<feGaussianBlur stdDeviation="4"/>
<feComposite in2="hardAlpha" operator="out"/>
<feColorMatrix type="matrix" values="0 0 0 0 0 0 0 0 0 0 0 0 0 0 0 0 0 0 0.3 0"/>
<feBlend mode="normal" in2="BackgroundImageFix" result="effect1_dropShadow_72_1271"/>
<feBlend mode="normal" in="SourceGraphic" in2="effect1_dropShadow_72_1271" result="shape"/>
</filter>
</defs>
</svg>
