<svg width="575" height="225" viewBox="0 0 575 225" fill="none" xmlns="http://www.w3.org/2000/svg">
<g clip-path="url(#clip0_865_678)">
<g filter="url(#filter0_d_865_678)">
<path d="M21.5872 -23.3904L21.7284 0.125524L0.41796 -11.6437L21.5872 -23.3904Z" fill="#78CCBA" stroke="#F0F0F0" stroke-width="0.5"/>
<path d="M43.0179 -11.4955L22.311 0.0445007L22.1711 -23.2499L43.0179 -11.4955Z" fill="#40B79E" stroke="#F0F0F0" stroke-width="0.5"/>
<path d="M0.266029 -11.0073L21.3332 0.575176L0.387818 12.3056L0.266029 -11.0073Z" fill="#AADFD4" stroke="#F0F0F0" stroke-width="0.5"/>
<path d="M22.3475 24.3293L22.3475 1.16563L42.9168 12.9483L22.3475 24.3293Z" fill="#40B79E" stroke="#F0F0F0" stroke-width="0.5"/>
<path d="M43.2281 12.3896L22.7393 0.577343L43.2281 -10.9131L43.2281 12.3896Z" fill="#78CCBA" stroke="#F0F0F0" stroke-width="0.5"/>
<path d="M0.945457 12.865L21.5974 1.2455L21.5974 24.1921L0.945457 12.865Z" fill="#008066" stroke="#F0F0F0" stroke-width="0.5"/>
<path d="M21.9584 50.4681L22.0996 73.984L0.789176 62.2148L21.9584 50.4681Z" fill="#E8AFAC" stroke="#F0F0F0" stroke-width="0.5"/>
<path d="M43.3892 62.3629L22.6823 73.903L22.5423 50.6086L43.3892 62.3629Z" fill="#C34833" stroke="#F0F0F0" stroke-width="0.5"/>
<path d="M0.637241 62.8512L21.7044 74.4336L0.75903 86.1641L0.637241 62.8512Z" fill="#F1CCCB" stroke="#F0F0F0" stroke-width="0.5"/>
<path d="M22.7187 98.1877L22.7187 75.0241L43.288 86.8067L22.7187 98.1877Z" fill="#D36D63" stroke="#F0F0F0" stroke-width="0.5"/>
<path d="M43.5993 86.248L23.1105 74.4358L43.5993 62.9454L43.5993 86.248Z" fill="#DF908B" stroke="#F0F0F0" stroke-width="0.5"/>
<path d="M1.31667 86.7235L21.9686 75.104L21.9686 98.0506L1.31667 86.7235Z" fill="#AC3619" stroke="#F0F0F0" stroke-width="0.5"/>
<path d="M22.7008 124.327L22.8421 147.842L1.5316 136.073L22.7008 124.327Z" fill="#F7CF7D" stroke="#F0F0F0" stroke-width="0.5"/>
<path d="M44.1316 136.221L23.4247 147.761L23.2848 124.467L44.1316 136.221Z" fill="#DF9611" stroke="#F0F0F0" stroke-width="0.5"/>
<path d="M1.37967 136.71L22.4469 148.292L1.50145 160.023L1.37967 136.71Z" fill="#FCECCB" stroke="#F0F0F0" stroke-width="0.5"/>
<path d="M23.4611 172.046L23.4611 148.883L44.0304 160.665L23.4611 172.046Z" fill="#F4B12E" stroke="#F0F0F0" stroke-width="0.5"/>
<path d="M44.3417 160.106L23.8529 148.294L44.3417 136.804L44.3417 160.106Z" fill="#F7CF7D" stroke="#F0F0F0" stroke-width="0.5"/>
<path d="M2.05909 160.582L22.711 148.962L22.711 171.909L2.05909 160.582Z" fill="#DF9611" stroke="#F0F0F0" stroke-width="0.5"/>
<path d="M553.349 50.4681L553.49 73.984L532.179 62.2148L553.349 50.4681Z" fill="#CFE8E6" stroke="#F0F0F0" stroke-width="0.5"/>
<path d="M574.779 62.3629L554.073 73.903L553.933 50.6086L574.779 62.3629Z" fill="#C7E4E2" stroke="#F0F0F0" stroke-width="0.5"/>
<path d="M532.028 62.8512L553.095 74.4336L532.149 86.1641L532.028 62.8512Z" fill="#E7F3F2" stroke="#F0F0F0" stroke-width="0.5"/>
<path d="M554.109 98.1877L554.109 75.0241L574.678 86.8067L554.109 98.1877Z" fill="#B7DCDA" stroke="#F0F0F0" stroke-width="0.5"/>
<path d="M574.99 86.248L554.501 74.4358L574.99 62.9454L574.99 86.248Z" fill="#DCEEED" stroke="#F0F0F0" stroke-width="0.5"/>
<path d="M532.707 86.7235L553.359 75.104L553.359 98.0506L532.707 86.7235Z" fill="#99C2DF" stroke="#F0F0F0" stroke-width="0.5"/>
<path d="M110.446 -23.8275L110.591 0.174737L88.8393 -11.8379L110.446 -23.8275Z" fill="#62718F" stroke="#F0F0F0" stroke-width="0.25"/>
<path d="M132.179 -11.7148L110.844 0.175187L110.7 -23.8255L132.179 -11.7148Z" fill="#394C71" stroke="#F0F0F0" stroke-width="0.25"/>
<path d="M88.7093 -11.6262L110.462 0.387174L88.835 12.554L88.7093 -11.6262Z" fill="#B6BDCB" stroke="#F0F0F0" stroke-width="0.25"/>
<path d="M110.845 24.6259L110.845 0.600775L132.18 12.8217L110.845 24.6259Z" fill="#62718F" stroke="#F0F0F0" stroke-width="0.25"/>
<path d="M132.308 12.6089L110.973 0.387668L132.308 -11.5006L132.308 12.6089Z" fill="#9CA5B8" stroke="#F0F0F0" stroke-width="0.25"/>
<path d="M88.9666 12.766L110.592 0.598855L110.592 24.6269L88.9666 12.766Z" fill="#25385C" stroke="#F0F0F0" stroke-width="0.25"/>
<path d="M65.947 -23.3904L66.0883 0.125524L44.7778 -11.6437L65.947 -23.3904Z" fill="#CFE8E6" stroke="#F0F0F0" stroke-width="0.5"/>
<path d="M87.3778 -11.4955L66.6709 0.0445007L66.531 -23.2499L87.3778 -11.4955Z" fill="#C7E4E2" stroke="#F0F0F0" stroke-width="0.5"/>
<path d="M44.6259 -11.0073L65.6931 0.575176L44.7477 12.3056L44.6259 -11.0073Z" fill="#E7F3F2" stroke="#F0F0F0" stroke-width="0.5"/>
<path d="M66.7073 24.3293L66.7073 1.16563L87.2766 12.9483L66.7073 24.3293Z" fill="#B7DCDA" stroke="#F0F0F0" stroke-width="0.5"/>
<path d="M87.5879 12.3896L67.0992 0.577343L87.5879 -10.9131L87.5879 12.3896Z" fill="#DCEEED" stroke="#F0F0F0" stroke-width="0.5"/>
<path d="M45.3053 12.865L65.9573 1.2455L65.9573 24.1921L45.3053 12.865Z" fill="#99C2DF" stroke="#F0F0F0" stroke-width="0.5"/>
<path d="M154.667 -24.5142L154.808 -0.998255L133.498 -12.7674L154.667 -24.5142Z" fill="#CFE8E6" stroke="#F0F0F0" stroke-width="0.5"/>
<path d="M176.098 -12.6193L155.391 -1.07928L155.251 -24.3736L176.098 -12.6193Z" fill="#C7E4E2" stroke="#F0F0F0" stroke-width="0.5"/>
<path d="M133.346 -12.1311L154.413 -0.548603L133.467 11.1818L133.346 -12.1311Z" fill="#E7F3F2" stroke="#F0F0F0" stroke-width="0.5"/>
<path d="M155.427 23.2055L155.427 0.0418512L175.996 11.8245L155.427 23.2055Z" fill="#B7DCDA" stroke="#F0F0F0" stroke-width="0.5"/>
<path d="M176.308 11.2658L155.819 -0.546436L176.308 -12.0368L176.308 11.2658Z" fill="#DCEEED" stroke="#F0F0F0" stroke-width="0.5"/>
<path d="M134.025 11.7413L154.677 0.121716L154.677 23.0683L134.025 11.7413Z" fill="#99C2DF" stroke="#F0F0F0" stroke-width="0.5"/>
<path d="M287.561 -23.3904L287.702 0.125524L266.392 -11.6437L287.561 -23.3904Z" fill="#CFE8E6" stroke="#F0F0F0" stroke-width="0.5"/>
<path d="M308.991 -11.4955L288.285 0.0445007L288.145 -23.2499L308.991 -11.4955Z" fill="#C7E4E2" stroke="#F0F0F0" stroke-width="0.5"/>
<path d="M266.24 -11.0073L287.307 0.575176L266.361 12.3056L266.24 -11.0073Z" fill="#E7F3F2" stroke="#F0F0F0" stroke-width="0.5"/>
<path d="M288.321 24.3293L288.321 1.16563L308.89 12.9483L288.321 24.3293Z" fill="#B7DCDA" stroke="#F0F0F0" stroke-width="0.5"/>
<path d="M309.202 12.3896L288.713 0.577343L309.202 -10.9131L309.202 12.3896Z" fill="#DCEEED" stroke="#F0F0F0" stroke-width="0.5"/>
<path d="M266.919 12.865L287.571 1.2455L287.571 24.1921L266.919 12.865Z" fill="#99C2DF" stroke="#F0F0F0" stroke-width="0.5"/>
<path d="M198.841 -23.3904L198.982 0.125524L177.672 -11.6437L198.841 -23.3904Z" fill="#F7CF7D" stroke="#F0F0F0" stroke-width="0.5"/>
<path d="M220.272 -11.4955L199.565 0.0445007L199.425 -23.2499L220.272 -11.4955Z" fill="#DF9611" stroke="#F0F0F0" stroke-width="0.5"/>
<path d="M177.52 -11.0073L198.587 0.575176L177.642 12.3056L177.52 -11.0073Z" fill="#FCECCB" stroke="#F0F0F0" stroke-width="0.5"/>
<path d="M199.601 24.3293L199.601 1.16563L220.171 12.9483L199.601 24.3293Z" fill="#F4B12E" stroke="#F0F0F0" stroke-width="0.5"/>
<path d="M220.482 12.3896L199.993 0.577343L220.482 -10.9131L220.482 12.3896Z" fill="#F7CF7D" stroke="#F0F0F0" stroke-width="0.5"/>
<path d="M178.199 12.865L198.851 1.2455L198.851 24.1921L178.199 12.865Z" fill="#DF9611" stroke="#F0F0F0" stroke-width="0.5"/>
<path d="M-0.128727 13.5389L0.0125136 37.0548L-21.298 25.2856L-0.128727 13.5389Z" fill="#CFE8E6" stroke="#F0F0F0" stroke-width="0.5"/>
<path d="M21.302 25.4337L0.595128 36.9738L0.455214 13.6794L21.302 25.4337Z" fill="#C7E4E2" stroke="#F0F0F0" stroke-width="0.5"/>
<path d="M-21.4499 25.922L-0.382699 37.5044L-21.3281 49.2349L-21.4499 25.922Z" fill="#E7F3F2" stroke="#F0F0F0" stroke-width="0.5"/>
<path d="M0.631547 61.2585L0.631544 38.0949L21.2008 49.8775L0.631547 61.2585Z" fill="#B7DCDA" stroke="#F0F0F0" stroke-width="0.5"/>
<path d="M21.5122 49.3188L1.02338 37.5066L21.5122 26.0162L21.5122 49.3188Z" fill="#DCEEED" stroke="#F0F0F0" stroke-width="0.5"/>
<path d="M-20.7705 49.7943L-0.118501 38.1748L-0.118501 61.1214L-20.7705 49.7943Z" fill="#99C2DF" stroke="#F0F0F0" stroke-width="0.5"/>
<path d="M-0.128727 161.07L0.0125136 184.586L-21.298 172.817L-0.128727 161.07Z" fill="#CFE8E6" stroke="#F0F0F0" stroke-width="0.5"/>
<path d="M21.302 172.965L0.595128 184.505L0.455214 161.211L21.302 172.965Z" fill="#C7E4E2" stroke="#F0F0F0" stroke-width="0.5"/>
<path d="M-21.4499 173.453L-0.382699 185.036L-21.3281 196.766L-21.4499 173.453Z" fill="#E7F3F2" stroke="#F0F0F0" stroke-width="0.5"/>
<path d="M0.631547 208.79L0.631544 185.626L21.2008 197.409L0.631547 208.79Z" fill="#B7DCDA" stroke="#F0F0F0" stroke-width="0.5"/>
<path d="M21.5122 196.85L1.02338 185.038L21.5122 173.548L21.5122 196.85Z" fill="#DCEEED" stroke="#F0F0F0" stroke-width="0.5"/>
<path d="M-20.7705 197.326L-0.118501 185.706L-0.118501 208.653L-20.7705 197.326Z" fill="#99C2DF" stroke="#F0F0F0" stroke-width="0.5"/>
<path d="M0.753172 87.1458L0.897336 111.148L-20.8539 99.1354L0.753172 87.1458Z" fill="#62718F" stroke="#F0F0F0" stroke-width="0.25"/>
<path d="M22.4856 99.2585L1.15082 111.148L1.00666 87.1478L22.4856 99.2585Z" fill="#394C71" stroke="#F0F0F0" stroke-width="0.25"/>
<path d="M-20.9839 99.3471L0.768602 111.36L-20.8582 123.527L-20.9839 99.3471Z" fill="#B6BDCB" stroke="#F0F0F0" stroke-width="0.25"/>
<path d="M1.15207 135.599L1.15207 111.574L22.4864 123.795L1.15207 135.599Z" fill="#62718F" stroke="#F0F0F0" stroke-width="0.25"/>
<path d="M22.6143 123.582L1.27944 111.361L22.6143 99.4727L22.6143 123.582Z" fill="#9CA5B8" stroke="#F0F0F0" stroke-width="0.25"/>
<path d="M-20.7266 123.739L0.898601 111.572L0.8986 135.6L-20.7266 123.739Z" fill="#25385C" stroke="#F0F0F0" stroke-width="0.25"/>
<path d="M487.83 87.2117L487.971 110.728L466.66 98.9585L487.83 87.2117Z" fill="#CFE8E6" stroke="#F0F0F0" stroke-width="0.5"/>
<path d="M509.26 99.1066L488.554 110.647L488.414 87.3522L509.26 99.1066Z" fill="#C7E4E2" stroke="#F0F0F0" stroke-width="0.5"/>
<path d="M466.509 99.5948L487.576 111.177L466.63 122.908L466.509 99.5948Z" fill="#E7F3F2" stroke="#F0F0F0" stroke-width="0.5"/>
<path d="M488.59 134.931L488.59 111.768L509.159 123.55L488.59 134.931Z" fill="#B7DCDA" stroke="#F0F0F0" stroke-width="0.5"/>
<path d="M509.471 122.992L488.982 111.179L509.471 99.689L509.471 122.992Z" fill="#DCEEED" stroke="#F0F0F0" stroke-width="0.5"/>
<path d="M467.188 123.467L487.84 111.848L487.84 134.794L467.188 123.467Z" fill="#99C2DF" stroke="#F0F0F0" stroke-width="0.5"/>
<path d="M44.2311 13.5389L44.3724 37.0548L23.0619 25.2856L44.2311 13.5389Z" fill="#CFE8E6" stroke="#F0F0F0" stroke-width="0.5"/>
<path d="M65.6619 25.4337L44.955 36.9738L44.8151 13.6794L65.6619 25.4337Z" fill="#C7E4E2" stroke="#F0F0F0" stroke-width="0.5"/>
<path d="M22.91 25.922L43.9772 37.5044L23.0318 49.2349L22.91 25.922Z" fill="#E7F3F2" stroke="#F0F0F0" stroke-width="0.5"/>
<path d="M44.9914 61.2585L44.9914 38.0949L65.5607 49.8775L44.9914 61.2585Z" fill="#B7DCDA" stroke="#F0F0F0" stroke-width="0.5"/>
<path d="M65.872 49.3188L45.3832 37.5066L65.872 26.0162L65.872 49.3188Z" fill="#DCEEED" stroke="#F0F0F0" stroke-width="0.5"/>
<path d="M23.5894 49.7943L44.2414 38.1748L44.2414 61.1214L23.5894 49.7943Z" fill="#99C2DF" stroke="#F0F0F0" stroke-width="0.5"/>
<path d="M43.6743 87.3973L43.8156 110.913L22.5051 99.1441L43.6743 87.3973Z" fill="#CFE8E6" stroke="#F0F0F0" stroke-width="0.5"/>
<path d="M65.1051 99.2922L44.3982 110.832L44.2583 87.5379L65.1051 99.2922Z" fill="#C7E4E2" stroke="#F0F0F0" stroke-width="0.5"/>
<path d="M22.3532 99.7804L43.4203 111.363L22.4749 123.093L22.3532 99.7804Z" fill="#E7F3F2" stroke="#F0F0F0" stroke-width="0.5"/>
<path d="M44.4346 135.117L44.4346 111.953L65.0039 123.736L44.4346 135.117Z" fill="#B7DCDA" stroke="#F0F0F0" stroke-width="0.5"/>
<path d="M65.3152 123.177L44.8264 111.365L65.3152 99.8747L65.3152 123.177Z" fill="#DCEEED" stroke="#F0F0F0" stroke-width="0.5"/>
<path d="M23.0326 123.653L43.6845 112.033L43.6845 134.98L23.0326 123.653Z" fill="#99C2DF" stroke="#F0F0F0" stroke-width="0.5"/>
<path d="M508.989 -23.7615L509.13 -0.24563L487.82 -12.0148L508.989 -23.7615Z" fill="#CFE8E6" stroke="#F0F0F0" stroke-width="0.5"/>
<path d="M530.42 -11.8667L509.713 -0.326654L509.573 -23.621L530.42 -11.8667Z" fill="#C7E4E2" stroke="#F0F0F0" stroke-width="0.5"/>
<path d="M487.668 -11.3784L508.735 0.204021L487.789 11.9345L487.668 -11.3784Z" fill="#E7F3F2" stroke="#F0F0F0" stroke-width="0.5"/>
<path d="M509.749 23.9581L509.749 0.794476L530.318 12.5771L509.749 23.9581Z" fill="#B7DCDA" stroke="#F0F0F0" stroke-width="0.5"/>
<path d="M530.63 12.0184L510.141 0.206188L530.63 -11.2842L530.63 12.0184Z" fill="#DCEEED" stroke="#F0F0F0" stroke-width="0.5"/>
<path d="M488.347 12.4939L508.999 0.874341L508.999 23.821L488.347 12.4939Z" fill="#99C2DF" stroke="#F0F0F0" stroke-width="0.5"/>
<path d="M575.621 87.3973L575.763 110.913L554.452 99.1441L575.621 87.3973Z" fill="#E8AFAC" stroke="#F0F0F0" stroke-width="0.5"/>
<path d="M597.052 99.2922L576.345 110.832L576.205 87.5379L597.052 99.2922Z" fill="#C34833" stroke="#F0F0F0" stroke-width="0.5"/>
<path d="M554.3 99.7804L575.367 111.363L554.422 123.093L554.3 99.7804Z" fill="#F1CCCB" stroke="#F0F0F0" stroke-width="0.5"/>
<path d="M576.382 135.117L576.382 111.953L596.951 123.736L576.382 135.117Z" fill="#D36D63" stroke="#F0F0F0" stroke-width="0.5"/>
<path d="M554.98 123.653L575.632 112.033L575.632 134.98L554.98 123.653Z" fill="#AC3619" stroke="#F0F0F0" stroke-width="0.5"/>
<path d="M575.436 13.5389L575.577 37.0548L554.267 25.2856L575.436 13.5389Z" fill="#CFE8E6" stroke="#F0F0F0" stroke-width="0.5"/>
<path d="M596.867 25.4337L576.16 36.9738L576.02 13.6794L596.867 25.4337Z" fill="#C7E4E2" stroke="#F0F0F0" stroke-width="0.5"/>
<path d="M554.115 25.922L575.182 37.5044L554.237 49.2349L554.115 25.922Z" fill="#E7F3F2" stroke="#F0F0F0" stroke-width="0.5"/>
<path d="M576.196 61.2585L576.196 38.0949L596.765 49.8775L576.196 61.2585Z" fill="#B7DCDA" stroke="#F0F0F0" stroke-width="0.5"/>
<path d="M554.794 49.7943L575.446 38.1748L575.446 61.1214L554.794 49.7943Z" fill="#99C2DF" stroke="#F0F0F0" stroke-width="0.5"/>
<path d="M443.525 13.5389L443.666 37.0548L422.356 25.2856L443.525 13.5389Z" fill="#78CCBA" stroke="#F0F0F0" stroke-width="0.5"/>
<path d="M464.956 25.4337L444.249 36.9738L444.109 13.6794L464.956 25.4337Z" fill="#40B79E" stroke="#F0F0F0" stroke-width="0.5"/>
<path d="M422.204 25.922L443.271 37.5044L422.326 49.2349L422.204 25.922Z" fill="#AADFD4" stroke="#F0F0F0" stroke-width="0.5"/>
<path d="M444.285 61.2585L444.285 38.0949L464.855 49.8775L444.285 61.2585Z" fill="#40B79E" stroke="#F0F0F0" stroke-width="0.5"/>
<path d="M465.166 49.3188L444.677 37.5066L465.166 26.0162L465.166 49.3188Z" fill="#78CCBA" stroke="#F0F0F0" stroke-width="0.5"/>
<path d="M422.883 49.7943L443.535 38.1748L443.535 61.1214L422.883 49.7943Z" fill="#008066" stroke="#F0F0F0" stroke-width="0.5"/>
</g>
</g>
<defs>
<filter id="filter0_d_865_678" x="-24" y="-25" width="624.01" height="238.761" filterUnits="userSpaceOnUse" color-interpolation-filters="sRGB">
<feFlood flood-opacity="0" result="BackgroundImageFix"/>
<feColorMatrix in="SourceAlpha" type="matrix" values="0 0 0 0 0 0 0 0 0 0 0 0 0 0 0 0 0 0 127 0" result="hardAlpha"/>
<feOffset dy="2"/>
<feGaussianBlur stdDeviation="1"/>
<feComposite in2="hardAlpha" operator="out"/>
<feColorMatrix type="matrix" values="0 0 0 0 0 0 0 0 0 0 0 0 0 0 0 0 0 0 0.3 0"/>
<feBlend mode="normal" in2="BackgroundImageFix" result="effect1_dropShadow_865_678"/>
<feBlend mode="normal" in="SourceGraphic" in2="effect1_dropShadow_865_678" result="shape"/>
</filter>
<clipPath id="clip0_865_678">
<rect width="575" height="225" fill="white"/>
</clipPath>
</defs>
</svg>
