<svg width="2560" height="768" viewBox="0 0 2560 768" fill="none" xmlns="http://www.w3.org/2000/svg">
<g filter="url(#filter0_d_1037_4900)">
<path d="M2156.08 -74.3892L2156.52 -0.880823L2089.91 -37.6701L2156.08 -74.3892Z" fill="#F7CF7D" stroke="#F0F0F0" stroke-width="0.5"/>
<path d="M2222.01 -37.2167L2157.26 -1.13006L2156.82 -73.9735L2222.01 -37.2167Z" fill="#DF9611" stroke="#F0F0F0" stroke-width="0.5"/>
<path d="M2089.98 -36.595L2155.85 -0.380421L2090.36 36.2968L2089.98 -36.595Z" fill="#FCECCB" stroke="#F0F0F0" stroke-width="0.5"/>
<path d="M2157.37 72.993L2157.37 0.545006L2221.7 37.3972L2157.37 72.993Z" fill="#F4B12E" stroke="#F0F0F0" stroke-width="0.5"/>
<path d="M2222.13 36.5681L2158.04 -0.375839L2222.13 -36.3133L2222.13 36.5681Z" fill="#F7CF7D" stroke="#F0F0F0" stroke-width="0.5"/>
<path d="M2091.52 37.141L2156.12 0.796614L2156.12 72.5706L2091.52 37.141Z" fill="#DF9611" stroke="#F0F0F0" stroke-width="0.5"/>
<path d="M1885.63 -74.3892L1886.07 -0.880823L1819.46 -37.6701L1885.63 -74.3892Z" fill="#CFE8E6" stroke="#F0F0F0" stroke-width="0.5"/>
<path d="M1951.56 -37.2167L1886.81 -1.13006L1886.37 -73.9735L1951.56 -37.2167Z" fill="#C7E4E2" stroke="#F0F0F0" stroke-width="0.5"/>
<path d="M1819.53 -36.595L1885.4 -0.380421L1819.91 36.2968L1819.53 -36.595Z" fill="#E7F3F2" stroke="#F0F0F0" stroke-width="0.5"/>
<path d="M1886.92 72.993L1886.92 0.545006L1951.25 37.3972L1886.92 72.993Z" fill="#B7DCDA" stroke="#F0F0F0" stroke-width="0.5"/>
<path d="M1951.67 36.5681L1887.59 -0.375839L1951.67 -36.3133L1951.67 36.5681Z" fill="#DCEEED" stroke="#F0F0F0" stroke-width="0.5"/>
<path d="M1821.07 37.141L1885.67 0.796614L1885.67 72.5706L1821.07 37.141Z" fill="#99C2DF" stroke="#F0F0F0" stroke-width="0.5"/>
<path d="M2561.19 -74.3892L2561.63 -0.880823L2495.02 -37.6701L2561.19 -74.3892Z" fill="#CFE8E6" stroke="#F0F0F0" stroke-width="0.5"/>
<path d="M2627.12 -37.2167L2562.37 -1.13006L2561.93 -73.9735L2627.12 -37.2167Z" fill="#C7E4E2" stroke="#F0F0F0" stroke-width="0.5"/>
<path d="M2495.09 -36.595L2560.96 -0.380421L2495.47 36.2968L2495.09 -36.595Z" fill="#E7F3F2" stroke="#F0F0F0" stroke-width="0.5"/>
<path d="M2562.48 72.993L2562.48 0.545006L2626.81 37.3972L2562.48 72.993Z" fill="#B7DCDA" stroke="#F0F0F0" stroke-width="0.5"/>
<path d="M2496.63 37.141L2561.23 0.796614L2561.23 72.5706L2496.63 37.141Z" fill="#99C2DF" stroke="#F0F0F0" stroke-width="0.5"/>
<path d="M2426.71 -74.3892L2427.15 -0.880823L2360.53 -37.6701L2426.71 -74.3892Z" fill="#CFE8E6" stroke="#F0F0F0" stroke-width="0.5"/>
<path d="M2492.64 -37.2167L2427.89 -1.13006L2427.45 -73.9735L2492.64 -37.2167Z" fill="#C7E4E2" stroke="#F0F0F0" stroke-width="0.5"/>
<path d="M2360.6 -36.595L2426.47 -0.380421L2360.99 36.2968L2360.6 -36.595Z" fill="#E7F3F2" stroke="#F0F0F0" stroke-width="0.5"/>
<path d="M2427.99 72.993L2427.99 0.545006L2492.33 37.3972L2427.99 72.993Z" fill="#B7DCDA" stroke="#F0F0F0" stroke-width="0.5"/>
<path d="M2492.75 36.5681L2428.67 -0.375839L2492.75 -36.3133L2492.75 36.5681Z" fill="#DCEEED" stroke="#F0F0F0" stroke-width="0.5"/>
<path d="M2362.15 37.141L2426.74 0.796614L2426.74 72.5706L2362.15 37.141Z" fill="#99C2DF" stroke="#F0F0F0" stroke-width="0.5"/>
<path d="M2291.31 -74.3892L2291.75 -0.880823L2225.13 -37.6701L2291.31 -74.3892Z" fill="#CFE8E6" stroke="#F0F0F0" stroke-width="0.5"/>
<path d="M2357.24 -37.2167L2292.49 -1.13006L2292.05 -73.9735L2357.24 -37.2167Z" fill="#C7E4E2" stroke="#F0F0F0" stroke-width="0.5"/>
<path d="M2225.2 -36.595L2291.07 -0.380421L2225.58 36.2968L2225.2 -36.595Z" fill="#E7F3F2" stroke="#F0F0F0" stroke-width="0.5"/>
<path d="M2292.59 72.993L2292.59 0.545006L2356.93 37.3972L2292.59 72.993Z" fill="#B7DCDA" stroke="#F0F0F0" stroke-width="0.5"/>
<path d="M2357.35 36.5681L2293.27 -0.375839L2357.35 -36.3133L2357.35 36.5681Z" fill="#DCEEED" stroke="#F0F0F0" stroke-width="0.5"/>
<path d="M2226.75 37.141L2291.34 0.796614L2291.34 72.5706L2226.75 37.141Z" fill="#99C2DF" stroke="#F0F0F0" stroke-width="0.5"/>
<path d="M2020.86 -74.3892L2021.3 -0.880823L1954.68 -37.6701L2020.86 -74.3892Z" fill="#CFE8E6" stroke="#F0F0F0" stroke-width="0.5"/>
<path d="M2086.79 -37.2167L2022.04 -1.13006L2021.6 -73.9735L2086.79 -37.2167Z" fill="#C7E4E2" stroke="#F0F0F0" stroke-width="0.5"/>
<path d="M1954.75 -36.595L2020.62 -0.380421L1955.13 36.2968L1954.75 -36.595Z" fill="#E7F3F2" stroke="#F0F0F0" stroke-width="0.5"/>
<path d="M2022.14 72.993L2022.14 0.545006L2086.47 37.3972L2022.14 72.993Z" fill="#B7DCDA" stroke="#F0F0F0" stroke-width="0.5"/>
<path d="M2086.9 36.5681L2022.82 -0.375839L2086.9 -36.3133L2086.9 36.5681Z" fill="#DCEEED" stroke="#F0F0F0" stroke-width="0.5"/>
<path d="M1956.3 37.141L2020.89 0.796614L2020.89 72.5706L1956.3 37.141Z" fill="#99C2DF" stroke="#F0F0F0" stroke-width="0.5"/>
<path d="M1751.23 -74.3892L1751.67 -0.880823L1685.06 -37.6701L1751.23 -74.3892Z" fill="#CFE8E6" stroke="#F0F0F0" stroke-width="0.5"/>
<path d="M1817.16 -37.2167L1752.41 -1.13006L1751.97 -73.9735L1817.16 -37.2167Z" fill="#C7E4E2" stroke="#F0F0F0" stroke-width="0.5"/>
<path d="M1685.13 -36.595L1751 -0.380421L1685.51 36.2968L1685.13 -36.595Z" fill="#E7F3F2" stroke="#F0F0F0" stroke-width="0.5"/>
<path d="M1752.52 72.993L1752.52 0.545006L1816.85 37.3972L1752.52 72.993Z" fill="#B7DCDA" stroke="#F0F0F0" stroke-width="0.5"/>
<path d="M1817.28 36.5681L1753.2 -0.375839L1817.28 -36.3133L1817.28 36.5681Z" fill="#DCEEED" stroke="#F0F0F0" stroke-width="0.5"/>
<path d="M1686.67 37.141L1751.27 0.796614L1751.27 72.5706L1686.67 37.141Z" fill="#99C2DF" stroke="#F0F0F0" stroke-width="0.5"/>
<path d="M1483.05 -74.3892L1483.49 -0.880823L1416.87 -37.6701L1483.05 -74.3892Z" fill="#78CCBA" stroke="#F0F0F0" stroke-width="0.5"/>
<path d="M1548.98 -37.2167L1484.22 -1.13006L1483.79 -73.9735L1548.98 -37.2167Z" fill="#40B79E" stroke="#F0F0F0" stroke-width="0.5"/>
<path d="M1416.94 -36.595L1482.81 -0.380421L1417.32 36.2968L1416.94 -36.595Z" fill="#AADFD4" stroke="#F0F0F0" stroke-width="0.5"/>
<path d="M1484.33 72.993L1484.33 0.545006L1548.66 37.3972L1484.33 72.993Z" fill="#40B79E" stroke="#F0F0F0" stroke-width="0.5"/>
<path d="M1549.09 36.5681L1485.01 -0.375839L1549.09 -36.3133L1549.09 36.5681Z" fill="#78CCBA" stroke="#F0F0F0" stroke-width="0.5"/>
<path d="M1418.49 37.141L1483.08 0.796614L1483.08 72.5706L1418.49 37.141Z" fill="#008066" stroke="#F0F0F0" stroke-width="0.5"/>
<path d="M807.485 -74.3892L807.926 -0.880823L741.312 -37.6701L807.485 -74.3892Z" fill="#CFE8E6" stroke="#F0F0F0" stroke-width="0.5"/>
<path d="M873.417 -37.2167L808.664 -1.13006L808.227 -73.9735L873.417 -37.2167Z" fill="#C7E4E2" stroke="#F0F0F0" stroke-width="0.5"/>
<path d="M741.382 -36.595L807.252 -0.380421L741.763 36.2968L741.382 -36.595Z" fill="#E7F3F2" stroke="#F0F0F0" stroke-width="0.5"/>
<path d="M808.77 72.993L808.77 0.545006L873.104 37.3972L808.77 72.993Z" fill="#B7DCDA" stroke="#F0F0F0" stroke-width="0.5"/>
<path d="M873.529 36.5681L809.449 -0.375839L873.529 -36.3133L873.529 36.5681Z" fill="#DCEEED" stroke="#F0F0F0" stroke-width="0.5"/>
<path d="M742.925 37.141L807.522 0.796614L807.522 72.5706L742.925 37.141Z" fill="#99C2DF" stroke="#F0F0F0" stroke-width="0.5"/>
<path d="M537.6 -74.3892L538.042 -0.880823L471.427 -37.6701L537.6 -74.3892Z" fill="#CFE8E6" stroke="#F0F0F0" stroke-width="0.5"/>
<path d="M603.532 -37.2167L538.78 -1.13006L538.342 -73.9735L603.532 -37.2167Z" fill="#C7E4E2" stroke="#F0F0F0" stroke-width="0.5"/>
<path d="M471.497 -36.595L537.368 -0.380421L471.878 36.2968L471.497 -36.595Z" fill="#E7F3F2" stroke="#F0F0F0" stroke-width="0.5"/>
<path d="M538.885 72.993L538.885 0.545006L603.219 37.3972L538.885 72.993Z" fill="#B7DCDA" stroke="#F0F0F0" stroke-width="0.5"/>
<path d="M603.645 36.5681L539.564 -0.375839L603.645 -36.3133L603.645 36.5681Z" fill="#DCEEED" stroke="#F0F0F0" stroke-width="0.5"/>
<path d="M473.04 37.141L537.637 0.796614L537.637 72.5706L473.04 37.141Z" fill="#99C2DF" stroke="#F0F0F0" stroke-width="0.5"/>
<path d="M402.374 -74.3892L402.816 -0.880823L336.202 -37.6701L402.374 -74.3892Z" fill="#F7CF7D" stroke="#F0F0F0" stroke-width="0.5"/>
<path d="M468.306 -37.2167L403.554 -1.13006L403.117 -73.9735L468.306 -37.2167Z" fill="#DF9611" stroke="#F0F0F0" stroke-width="0.5"/>
<path d="M336.272 -36.595L402.142 -0.380421L336.653 36.2968L336.272 -36.595Z" fill="#FCECCB" stroke="#F0F0F0" stroke-width="0.5"/>
<path d="M403.66 72.993L403.66 0.545006L467.994 37.3972L403.66 72.993Z" fill="#F4B12E" stroke="#F0F0F0" stroke-width="0.5"/>
<path d="M468.419 36.5681L404.338 -0.375839L468.419 -36.3133L468.419 36.5681Z" fill="#F7CF7D" stroke="#F0F0F0" stroke-width="0.5"/>
<path d="M337.815 37.141L402.411 0.796614L402.411 72.5706L337.815 37.141Z" fill="#DF9611" stroke="#F0F0F0" stroke-width="0.5"/>
<path d="M267.149 -74.3892L267.591 -0.880823L200.977 -37.6701L267.149 -74.3892Z" fill="#CFE8E6" stroke="#F0F0F0" stroke-width="0.5"/>
<path d="M333.081 -37.2167L268.329 -1.13006L267.891 -73.9735L333.081 -37.2167Z" fill="#C7E4E2" stroke="#F0F0F0" stroke-width="0.5"/>
<path d="M201.047 -36.595L266.917 -0.380421L201.428 36.2968L201.047 -36.595Z" fill="#E7F3F2" stroke="#F0F0F0" stroke-width="0.5"/>
<path d="M268.435 72.993L268.435 0.545006L332.768 37.3972L268.435 72.993Z" fill="#B7DCDA" stroke="#F0F0F0" stroke-width="0.5"/>
<path d="M333.194 36.5681L269.113 -0.375839L333.194 -36.3133L333.194 36.5681Z" fill="#DCEEED" stroke="#F0F0F0" stroke-width="0.5"/>
<path d="M202.589 37.141L267.186 0.796614L267.186 72.5706L202.589 37.141Z" fill="#99C2DF" stroke="#F0F0F0" stroke-width="0.5"/>
<path d="M132.658 -74.7211L133.103 -0.598177L65.9316 -37.695L132.658 -74.7211Z" fill="#62718F" stroke="#F0F0F0" stroke-width="0.25"/>
<path d="M199.246 -37.3186L133.356 -0.597761L132.911 -74.7213L199.246 -37.3186Z" fill="#394C71" stroke="#F0F0F0" stroke-width="0.25"/>
<path d="M65.8016 -37.4832L132.974 -0.385677L66.19 37.1858L65.8016 -37.4832Z" fill="#B6BDCB" stroke="#F0F0F0" stroke-width="0.25"/>
<path d="M133.357 74.028L133.357 -0.172152L199.247 37.5713L133.357 74.028Z" fill="#62718F" stroke="#F0F0F0" stroke-width="0.25"/>
<path d="M199.375 37.3586L133.485 -0.38517L199.375 -37.1006L199.375 37.3586Z" fill="#9CA5B8" stroke="#F0F0F0" stroke-width="0.25"/>
<path d="M66.3214 37.4004L133.104 -0.174008L133.104 74.029L66.3214 37.4004Z" fill="#25385C" stroke="#F0F0F0" stroke-width="0.25"/>
<path d="M-2.73587 -74.3892L-2.29436 -0.880823L-68.9088 -37.6701L-2.73587 -74.3892Z" fill="#CFE8E6" stroke="#F0F0F0" stroke-width="0.5"/>
<path d="M63.1959 -37.2167L-1.55626 -1.13006L-1.9938 -73.9735L63.1959 -37.2167Z" fill="#C7E4E2" stroke="#F0F0F0" stroke-width="0.5"/>
<path d="M-1.45058 72.993L-1.4506 0.545006L62.8832 37.3972L-1.45058 72.993Z" fill="#B7DCDA" stroke="#F0F0F0" stroke-width="0.5"/>
<path d="M63.3088 36.5681L-0.77209 -0.375839L63.3088 -36.3133L63.3088 36.5681Z" fill="#DCEEED" stroke="#F0F0F0" stroke-width="0.5"/>
<path d="M-67.2958 37.141L-2.69915 0.796614L-2.69915 72.5706L-67.2958 37.141Z" fill="#99C2DF" stroke="#F0F0F0" stroke-width="0.5"/>
<path d="M2493.16 38.7993L2493.6 112.308L2426.99 75.5184L2493.16 38.7993Z" fill="#CFE8E6" stroke="#F0F0F0" stroke-width="0.5"/>
<path d="M2559.09 75.9718L2494.34 112.058L2493.9 39.215L2559.09 75.9718Z" fill="#C7E4E2" stroke="#F0F0F0" stroke-width="0.5"/>
<path d="M2427.06 76.5935L2492.93 112.808L2427.44 149.485L2427.06 76.5935Z" fill="#E7F3F2" stroke="#F0F0F0" stroke-width="0.5"/>
<path d="M2494.45 186.181L2494.45 113.733L2558.78 150.586L2494.45 186.181Z" fill="#B7DCDA" stroke="#F0F0F0" stroke-width="0.5"/>
<path d="M2559.21 149.757L2495.12 112.813L2559.21 76.8751L2559.21 149.757Z" fill="#DCEEED" stroke="#F0F0F0" stroke-width="0.5"/>
<path d="M2428.6 150.33L2493.2 113.985L2493.2 185.759L2428.6 150.33Z" fill="#99C2DF" stroke="#F0F0F0" stroke-width="0.5"/>
<path d="M2358.5 38.7993L2358.94 112.308L2292.33 75.5184L2358.5 38.7993Z" fill="#CFE8E6" stroke="#F0F0F0" stroke-width="0.5"/>
<path d="M2424.43 75.9718L2359.68 112.058L2359.24 39.215L2424.43 75.9718Z" fill="#C7E4E2" stroke="#F0F0F0" stroke-width="0.5"/>
<path d="M2292.4 76.5935L2358.27 112.808L2292.78 149.485L2292.4 76.5935Z" fill="#E7F3F2" stroke="#F0F0F0" stroke-width="0.5"/>
<path d="M2359.79 186.181L2359.79 113.733L2424.12 150.586L2359.79 186.181Z" fill="#B7DCDA" stroke="#F0F0F0" stroke-width="0.5"/>
<path d="M2424.55 149.757L2360.46 112.813L2424.55 76.8751L2424.55 149.757Z" fill="#DCEEED" stroke="#F0F0F0" stroke-width="0.5"/>
<path d="M2293.94 150.33L2358.54 113.985L2358.54 185.759L2293.94 150.33Z" fill="#99C2DF" stroke="#F0F0F0" stroke-width="0.5"/>
<path d="M2223.28 38.7993L2223.72 112.308L2157.1 75.5184L2223.28 38.7993Z" fill="#E8AFAC" stroke="#F0F0F0" stroke-width="0.5"/>
<path d="M2289.21 75.9718L2224.46 112.058L2224.02 39.215L2289.21 75.9718Z" fill="#C34833" stroke="#F0F0F0" stroke-width="0.5"/>
<path d="M2157.17 76.5935L2223.04 112.808L2157.55 149.485L2157.17 76.5935Z" fill="#F1CCCB" stroke="#F0F0F0" stroke-width="0.5"/>
<path d="M2224.56 186.181L2224.56 113.733L2288.9 150.586L2224.56 186.181Z" fill="#D36D63" stroke="#F0F0F0" stroke-width="0.5"/>
<path d="M2289.32 149.757L2225.24 112.813L2289.32 76.8751L2289.32 149.757Z" fill="#DF908B" stroke="#F0F0F0" stroke-width="0.5"/>
<path d="M2158.72 150.33L2223.31 113.985L2223.31 185.759L2158.72 150.33Z" fill="#AC3619" stroke="#F0F0F0" stroke-width="0.5"/>
<path d="M2088.05 38.7993L2088.49 112.308L2021.88 75.5184L2088.05 38.7993Z" fill="#78CCBA" stroke="#F0F0F0" stroke-width="0.5"/>
<path d="M2153.98 75.9718L2089.23 112.058L2088.79 39.215L2153.98 75.9718Z" fill="#40B79E" stroke="#F0F0F0" stroke-width="0.5"/>
<path d="M2021.95 76.5935L2087.82 112.808L2022.33 149.485L2021.95 76.5935Z" fill="#AADFD4" stroke="#F0F0F0" stroke-width="0.5"/>
<path d="M2089.34 186.181L2089.34 113.733L2153.67 150.586L2089.34 186.181Z" fill="#40B79E" stroke="#F0F0F0" stroke-width="0.5"/>
<path d="M2154.09 149.757L2090.01 112.813L2154.09 76.8751L2154.09 149.757Z" fill="#78CCBA" stroke="#F0F0F0" stroke-width="0.5"/>
<path d="M2023.49 150.33L2088.09 113.985L2088.09 185.759L2023.49 150.33Z" fill="#008066" stroke="#F0F0F0" stroke-width="0.5"/>
<path d="M335.264 263.611L335.706 337.119L269.091 300.33L335.264 263.611Z" fill="#CFE8E6" stroke="#F0F0F0" stroke-width="0.5"/>
<path d="M401.196 300.783L336.444 336.87L336.006 264.027L401.196 300.783Z" fill="#C7E4E2" stroke="#F0F0F0" stroke-width="0.5"/>
<path d="M269.161 301.405L335.032 337.62L269.542 374.297L269.161 301.405Z" fill="#E7F3F2" stroke="#F0F0F0" stroke-width="0.5"/>
<path d="M336.549 410.993L336.549 338.545L400.883 375.397L336.549 410.993Z" fill="#B7DCDA" stroke="#F0F0F0" stroke-width="0.5"/>
<path d="M401.309 374.568L337.228 337.624L401.309 301.687L401.309 374.568Z" fill="#DCEEED" stroke="#F0F0F0" stroke-width="0.5"/>
<path d="M270.704 375.141L335.301 338.797L335.301 410.571L270.704 375.141Z" fill="#99C2DF" stroke="#F0F0F0" stroke-width="0.5"/>
<path d="M334.513 38.4674L334.958 112.59L267.787 75.4935L334.513 38.4674Z" fill="#62718F" stroke="#F0F0F0" stroke-width="0.25"/>
<path d="M401.101 75.8699L335.211 112.591L334.766 38.4672L401.101 75.8699Z" fill="#394C71" stroke="#F0F0F0" stroke-width="0.25"/>
<path d="M267.657 75.7052L334.829 112.803L268.045 150.374L267.657 75.7052Z" fill="#B6BDCB" stroke="#F0F0F0" stroke-width="0.25"/>
<path d="M335.212 187.216L335.212 113.016L401.102 150.76L335.212 187.216Z" fill="#62718F" stroke="#F0F0F0" stroke-width="0.25"/>
<path d="M401.23 150.547L335.34 112.803L401.23 76.0879L401.23 150.547Z" fill="#9CA5B8" stroke="#F0F0F0" stroke-width="0.25"/>
<path d="M268.176 150.589L334.959 113.014L334.959 187.217L268.176 150.589Z" fill="#25385C" stroke="#F0F0F0" stroke-width="0.25"/>
<path d="M199.684 38.7993L200.126 112.308L133.511 75.5184L199.684 38.7993Z" fill="#CFE8E6" stroke="#F0F0F0" stroke-width="0.5"/>
<path d="M265.616 75.9718L200.864 112.058L200.426 39.215L265.616 75.9718Z" fill="#C7E4E2" stroke="#F0F0F0" stroke-width="0.5"/>
<path d="M133.581 76.5935L199.452 112.808L133.962 149.485L133.581 76.5935Z" fill="#E7F3F2" stroke="#F0F0F0" stroke-width="0.5"/>
<path d="M200.969 186.181L200.969 113.733L265.303 150.586L200.969 186.181Z" fill="#B7DCDA" stroke="#F0F0F0" stroke-width="0.5"/>
<path d="M265.729 149.757L201.648 112.813L265.729 76.8751L265.729 149.757Z" fill="#DCEEED" stroke="#F0F0F0" stroke-width="0.5"/>
<path d="M135.124 150.33L199.721 113.985L199.721 185.759L135.124 150.33Z" fill="#99C2DF" stroke="#F0F0F0" stroke-width="0.5"/>
<path d="M64.459 38.7993L64.9005 112.308L-1.71393 75.5184L64.459 38.7993Z" fill="#CFE8E6" stroke="#F0F0F0" stroke-width="0.5"/>
<path d="M130.391 75.9718L65.6386 112.058L65.201 39.215L130.391 75.9718Z" fill="#C7E4E2" stroke="#F0F0F0" stroke-width="0.5"/>
<path d="M-1.64368 76.5935L64.2265 112.808L-1.26289 149.485L-1.64368 76.5935Z" fill="#E7F3F2" stroke="#F0F0F0" stroke-width="0.5"/>
<path d="M65.7442 186.181L65.7442 113.733L130.078 150.586L65.7442 186.181Z" fill="#B7DCDA" stroke="#F0F0F0" stroke-width="0.5"/>
<path d="M130.504 149.757L66.4227 112.813L130.504 76.8751L130.504 149.757Z" fill="#DCEEED" stroke="#F0F0F0" stroke-width="0.5"/>
<path d="M-0.100937 150.33L64.4957 113.985L64.4957 185.759L-0.100937 150.33Z" fill="#99C2DF" stroke="#F0F0F0" stroke-width="0.5"/>
<path d="M2562.19 151.38L2562.63 224.888L2496.02 188.099L2562.19 151.38Z" fill="#CFE8E6" stroke="#F0F0F0" stroke-width="0.5"/>
<path d="M2628.12 188.553L2563.37 224.639L2562.93 151.796L2628.12 188.553Z" fill="#C7E4E2" stroke="#F0F0F0" stroke-width="0.5"/>
<path d="M2496.09 189.174L2561.96 225.389L2496.47 262.066L2496.09 189.174Z" fill="#E7F3F2" stroke="#F0F0F0" stroke-width="0.5"/>
<path d="M2563.47 298.762L2563.47 226.314L2627.81 263.166L2563.47 298.762Z" fill="#B7DCDA" stroke="#F0F0F0" stroke-width="0.5"/>
<path d="M2497.63 262.91L2562.22 226.566L2562.22 298.34L2497.63 262.91Z" fill="#99C2DF" stroke="#F0F0F0" stroke-width="0.5"/>
<path d="M2427.28 151.048L2427.73 225.171L2360.56 188.074L2427.28 151.048Z" fill="#62718F" stroke="#F0F0F0" stroke-width="0.25"/>
<path d="M2493.87 188.451L2427.98 225.172L2427.53 151.048L2493.87 188.451Z" fill="#394C71" stroke="#F0F0F0" stroke-width="0.25"/>
<path d="M2360.43 188.286L2427.6 225.384L2360.81 262.955L2360.43 188.286Z" fill="#B6BDCB" stroke="#F0F0F0" stroke-width="0.25"/>
<path d="M2427.98 299.797L2427.98 225.597L2493.87 263.341L2427.98 299.797Z" fill="#62718F" stroke="#F0F0F0" stroke-width="0.25"/>
<path d="M2494 263.128L2428.11 225.384L2494 188.669L2494 263.128Z" fill="#9CA5B8" stroke="#F0F0F0" stroke-width="0.25"/>
<path d="M2360.94 263.17L2427.73 225.595L2427.73 299.798L2360.94 263.17Z" fill="#25385C" stroke="#F0F0F0" stroke-width="0.25"/>
<path d="M2292.3 151.38L2292.74 224.888L2226.13 188.099L2292.3 151.38Z" fill="#CFE8E6" stroke="#F0F0F0" stroke-width="0.5"/>
<path d="M2358.23 188.553L2293.48 224.639L2293.05 151.796L2358.23 188.553Z" fill="#C7E4E2" stroke="#F0F0F0" stroke-width="0.5"/>
<path d="M2226.2 189.174L2292.07 225.389L2226.58 262.066L2226.2 189.174Z" fill="#E7F3F2" stroke="#F0F0F0" stroke-width="0.5"/>
<path d="M2293.59 298.762L2293.59 226.314L2357.92 263.166L2293.59 298.762Z" fill="#B7DCDA" stroke="#F0F0F0" stroke-width="0.5"/>
<path d="M2358.35 262.337L2294.27 225.393L2358.35 189.456L2358.35 262.337Z" fill="#DCEEED" stroke="#F0F0F0" stroke-width="0.5"/>
<path d="M2227.74 262.91L2292.34 226.566L2292.34 298.34L2227.74 262.91Z" fill="#99C2DF" stroke="#F0F0F0" stroke-width="0.5"/>
<path d="M133.486 151.38L133.928 224.888L67.3134 188.099L133.486 151.38Z" fill="#CFE8E6" stroke="#F0F0F0" stroke-width="0.5"/>
<path d="M199.418 188.553L134.666 224.639L134.228 151.796L199.418 188.553Z" fill="#C7E4E2" stroke="#F0F0F0" stroke-width="0.5"/>
<path d="M67.3837 189.174L133.254 225.389L67.7645 262.066L67.3837 189.174Z" fill="#E7F3F2" stroke="#F0F0F0" stroke-width="0.5"/>
<path d="M134.772 298.762L134.772 226.314L199.105 263.166L134.772 298.762Z" fill="#B7DCDA" stroke="#F0F0F0" stroke-width="0.5"/>
<path d="M199.531 262.337L135.45 225.393L199.531 189.456L199.531 262.337Z" fill="#DCEEED" stroke="#F0F0F0" stroke-width="0.5"/>
<path d="M68.9264 262.91L133.523 226.566L133.523 298.34L68.9264 262.91Z" fill="#99C2DF" stroke="#F0F0F0" stroke-width="0.5"/>
<path d="M-1.73928 151.38L-1.29778 224.888L-67.9122 188.099L-1.73928 151.38Z" fill="#F7CF7D" stroke="#F0F0F0" stroke-width="0.5"/>
<path d="M64.1925 188.553L-0.559681 224.639L-0.997216 151.796L64.1925 188.553Z" fill="#DF9611" stroke="#F0F0F0" stroke-width="0.5"/>
<path d="M-0.454001 298.762L-0.454014 226.314L63.8798 263.166L-0.454001 298.762Z" fill="#F4B12E" stroke="#F0F0F0" stroke-width="0.5"/>
<path d="M64.3053 262.337L0.224492 225.393L64.3053 189.456L64.3053 262.337Z" fill="#F7CF7D" stroke="#F0F0F0" stroke-width="0.5"/>
<path d="M-66.2992 262.91L-1.70257 226.566L-1.70257 298.34L-66.2992 262.91Z" fill="#DF9611" stroke="#F0F0F0" stroke-width="0.5"/>
<path d="M2498.03 263.961L2498.47 337.469L2431.86 300.68L2498.03 263.961Z" fill="#CFE8E6" stroke="#F0F0F0" stroke-width="0.5"/>
<path d="M2563.96 301.133L2499.21 337.22L2498.77 264.376L2563.96 301.133Z" fill="#C7E4E2" stroke="#F0F0F0" stroke-width="0.5"/>
<path d="M2431.93 301.755L2497.8 337.969L2432.31 374.647L2431.93 301.755Z" fill="#E7F3F2" stroke="#F0F0F0" stroke-width="0.5"/>
<path d="M2499.32 411.343L2499.32 338.895L2563.65 375.747L2499.32 411.343Z" fill="#B7DCDA" stroke="#F0F0F0" stroke-width="0.5"/>
<path d="M2564.08 374.918L2500 337.974L2564.08 302.037L2564.08 374.918Z" fill="#DCEEED" stroke="#F0F0F0" stroke-width="0.5"/>
<path d="M2433.47 375.491L2498.07 339.146L2498.07 410.92L2433.47 375.491Z" fill="#99C2DF" stroke="#F0F0F0" stroke-width="0.5"/>
<path d="M2361.35 263.961L2361.79 337.469L2295.17 300.68L2361.35 263.961Z" fill="#F7CF7D" stroke="#F0F0F0" stroke-width="0.5"/>
<path d="M2427.28 301.133L2362.53 337.22L2362.09 264.376L2427.28 301.133Z" fill="#DF9611" stroke="#F0F0F0" stroke-width="0.5"/>
<path d="M2295.24 301.755L2361.11 337.969L2295.62 374.647L2295.24 301.755Z" fill="#FCECCB" stroke="#F0F0F0" stroke-width="0.5"/>
<path d="M2362.63 411.343L2362.63 338.895L2426.97 375.747L2362.63 411.343Z" fill="#F4B12E" stroke="#F0F0F0" stroke-width="0.5"/>
<path d="M2427.39 374.918L2363.31 337.974L2427.39 302.037L2427.39 374.918Z" fill="#F7CF7D" stroke="#F0F0F0" stroke-width="0.5"/>
<path d="M2296.79 375.491L2361.38 339.146L2361.38 410.92L2296.79 375.491Z" fill="#DF9611" stroke="#F0F0F0" stroke-width="0.5"/>
<path d="M65.5903 263.961L66.0318 337.469L-0.582578 300.68L65.5903 263.961Z" fill="#CFE8E6" stroke="#F0F0F0" stroke-width="0.5"/>
<path d="M131.522 301.133L66.7699 337.22L66.3324 264.376L131.522 301.133Z" fill="#C7E4E2" stroke="#F0F0F0" stroke-width="0.5"/>
<path d="M-0.512337 301.755L65.3578 337.969L-0.131542 374.647L-0.512337 301.755Z" fill="#E7F3F2" stroke="#F0F0F0" stroke-width="0.5"/>
<path d="M66.8756 411.343L66.8756 338.895L131.209 375.747L66.8756 411.343Z" fill="#B7DCDA" stroke="#F0F0F0" stroke-width="0.5"/>
<path d="M131.635 374.918L67.5541 337.974L131.635 302.037L131.635 374.918Z" fill="#DCEEED" stroke="#F0F0F0" stroke-width="0.5"/>
<path d="M1.03041 375.491L65.627 339.146L65.627 410.92L1.03041 375.491Z" fill="#99C2DF" stroke="#F0F0F0" stroke-width="0.5"/>
<path d="M2560.39 376.209L2560.84 450.332L2493.66 413.236L2560.39 376.209Z" fill="#62718F" stroke="#F0F0F0" stroke-width="0.25"/>
<path d="M2626.98 413.612L2561.09 450.333L2560.64 376.209L2626.98 413.612Z" fill="#394C71" stroke="#F0F0F0" stroke-width="0.25"/>
<path d="M2493.53 413.447L2560.71 450.545L2493.92 488.116L2493.53 413.447Z" fill="#B6BDCB" stroke="#F0F0F0" stroke-width="0.25"/>
<path d="M2561.09 524.959L2561.09 450.758L2626.98 488.502L2561.09 524.959Z" fill="#62718F" stroke="#F0F0F0" stroke-width="0.25"/>
<path d="M2494.05 488.331L2560.84 450.757L2560.84 524.96L2494.05 488.331Z" fill="#25385C" stroke="#F0F0F0" stroke-width="0.25"/>
<path d="M0.692801 376.209L1.138 450.332L-66.0333 413.236L0.692801 376.209Z" fill="#62718F" stroke="#F0F0F0" stroke-width="0.25"/>
<path d="M67.2816 413.612L1.39144 450.333L0.946225 376.209L67.2816 413.612Z" fill="#394C71" stroke="#F0F0F0" stroke-width="0.25"/>
<path d="M-66.1632 413.447L1.00938 450.545L-65.7749 488.116L-66.1632 413.447Z" fill="#B6BDCB" stroke="#F0F0F0" stroke-width="0.25"/>
<path d="M1.39258 524.959L1.39256 450.758L67.2823 488.502L1.39258 524.959Z" fill="#62718F" stroke="#F0F0F0" stroke-width="0.25"/>
<path d="M67.4105 488.289L1.52022 450.545L67.4105 413.83L67.4105 488.289Z" fill="#9CA5B8" stroke="#F0F0F0" stroke-width="0.25"/>
<path d="M-65.6434 488.331L1.13927 450.757L1.13927 524.96L-65.6434 488.331Z" fill="#25385C" stroke="#F0F0F0" stroke-width="0.25"/>
<path d="M2559.68 602.344L2560.12 675.852L2493.51 639.063L2559.68 602.344Z" fill="#E8AFAC" stroke="#F0F0F0" stroke-width="0.5"/>
<path d="M2625.61 639.517L2560.86 675.603L2560.42 602.76L2625.61 639.517Z" fill="#C34833" stroke="#F0F0F0" stroke-width="0.5"/>
<path d="M2493.58 640.139L2559.45 676.353L2493.96 713.03L2493.58 640.139Z" fill="#F1CCCB" stroke="#F0F0F0" stroke-width="0.5"/>
<path d="M2560.97 749.726L2560.97 677.278L2625.3 714.13L2560.97 749.726Z" fill="#D36D63" stroke="#F0F0F0" stroke-width="0.5"/>
<path d="M2495.12 713.874L2559.72 677.53L2559.72 749.304L2495.12 713.874Z" fill="#AC3619" stroke="#F0F0F0" stroke-width="0.5"/>
<path d="M0.524388 602.344L0.965896 675.852L-65.6485 639.063L0.524388 602.344Z" fill="#CFE8E6" stroke="#F0F0F0" stroke-width="0.5"/>
<path d="M66.4562 639.517L1.70399 675.603L1.26646 602.76L66.4562 639.517Z" fill="#C7E4E2" stroke="#F0F0F0" stroke-width="0.5"/>
<path d="M-65.5783 640.139L0.29189 676.353L-65.1975 713.03L-65.5783 640.139Z" fill="#E7F3F2" stroke="#F0F0F0" stroke-width="0.5"/>
<path d="M1.80967 749.726L1.80966 677.278L66.1435 714.13L1.80967 749.726Z" fill="#B7DCDA" stroke="#F0F0F0" stroke-width="0.5"/>
<path d="M66.569 713.302L2.48816 676.358L66.569 640.42L66.569 713.302Z" fill="#DCEEED" stroke="#F0F0F0" stroke-width="0.5"/>
<path d="M-64.0355 713.874L0.561103 677.53L0.561106 749.304L-64.0355 713.874Z" fill="#99C2DF" stroke="#F0F0F0" stroke-width="0.5"/>
</g>
<defs>
<filter id="filter0_d_1037_4900" x="-78" y="-75" width="2716" height="842.818" filterUnits="userSpaceOnUse" color-interpolation-filters="sRGB">
<feFlood flood-opacity="0" result="BackgroundImageFix"/>
<feColorMatrix in="SourceAlpha" type="matrix" values="0 0 0 0 0 0 0 0 0 0 0 0 0 0 0 0 0 0 127 0" result="hardAlpha"/>
<feOffset dy="8"/>
<feGaussianBlur stdDeviation="4"/>
<feComposite in2="hardAlpha" operator="out"/>
<feColorMatrix type="matrix" values="0 0 0 0 0 0 0 0 0 0 0 0 0 0 0 0 0 0 0.3 0"/>
<feBlend mode="normal" in2="BackgroundImageFix" result="effect1_dropShadow_1037_4900"/>
<feBlend mode="normal" in="SourceGraphic" in2="effect1_dropShadow_1037_4900" result="shape"/>
</filter>
</defs>
</svg>
